SplineFontDB: 3.2
FontName: UnicodiaDaarage
FullName: UnicodiaDaarage
FamilyName: UnicodiaDaarage
Weight: Regular
Copyright: 
Version: 2.9.0
ItalicAngle: 0
UnderlinePosition: -125
UnderlineWidth: 50
Ascent: 800
Descent: 200
InvalidEm: 0
sfntRevision: 0x00010000
LayerCount: 2
Layer: 0 0 "+BBcEMAQ0BD0EOAQ5 +BD8EOwQwBD0A" 1
Layer: 1 0 "+BB8ENQRABDUENAQ9BDgEOQAA +BD8EOwQwBD0A" 0
XUID: [1021 59 1751208496 15733]
StyleMap: 0x0040
FSType: 4
OS2Version: 4
OS2_WeightWidthSlopeOnly: 0
OS2_UseTypoMetrics: 1
CreationTime: 1604307526
ModificationTime: 1730686655
PfmFamily: 81
TTFWeight: 400
TTFWidth: 5
LineGap: 100
VLineGap: 0
Panose: 0 0 0 0 0 0 0 0 0 0
OS2TypoAscent: 750
OS2TypoAOffset: 0
OS2TypoDescent: -550
OS2TypoDOffset: 0
OS2TypoLinegap: 100
OS2WinAscent: 750
OS2WinAOffset: 0
OS2WinDescent: 250
OS2WinDOffset: 0
HheadAscent: 750
HheadAOffset: 0
HheadDescent: -550
HheadDOffset: 0
OS2SubXSize: 650
OS2SubYSize: 600
OS2SubXOff: 0
OS2SubYOff: 75
OS2SupXSize: 650
OS2SupYSize: 600
OS2SupXOff: 0
OS2SupYOff: 350
OS2StrikeYSize: 50
OS2StrikeYPos: 300
OS2CapHeight: 700
OS2XHeight: 500
OS2Vendor: '    '
OS2CodePages: 00000001.00000000
OS2UnicodeRanges: 00000001.40000000.00000000.00000000
Lookup: 4 0 1 "'liga' +BCEEQgQwBD0ENAQwBEAEQgQ9BEsENQAA +BDsEOAQzBDAEQgRDBEAESwAA in Latin lookup 0" { "'liga' +BCEEQgQwBD0ENAQwBEAEQgQ9BEsENQAA +BDsEOAQzBDAEQgRDBEAESwAA in Latin lookup 0 subtable"  } ['liga' ('DFLT' <'dflt' > 'latn' <'dflt' > ) ]
Lookup: 4 0 0 "Tutg CCMP" { "Tutg CCMP-1"  } ['ccmp' ('DFLT' <'dflt' > 'latn' <'dflt' > 'tutg' <'dflt' > ) ]
Lookup: 260 0 0 "Tutg BLWM" { "Tutg BLWM-1"  } ['blwm' ('DFLT' <'dflt' > 'latn' <'dflt' > 'tutg' <'dflt' > ) ]
Lookup: 258 8 0 "'kern' Horizontal Kerning in Latin lookup 0" { "'kern' Horizontal Kerning in Latin lookup 0 per glyph data 0" [150,15,0] "'kern' Horizontal Kerning in Latin lookup 0 per glyph data 1"  } ['kern' ('DFLT' <'dflt' > 'latn' <'dflt' > ) ]
MarkAttachClasses: 1
DEI: 91125

StartChar: .notdef
Encoding: 1114112 -1 0
Width: 552
GlyphClass: 1
Flags: W
HStem: 0 51<145 422> 532 51<145 422>
VStem: 94 51<51 532> 422 51<51 532>
LayerCount: 2
Fore
SplineSet
94 0 m 1
 94 583 l 1
 473 583 l 1
 473 0 l 1
 94 0 l 1
145 51 m 1
 422 51 l 1
 422 532 l 1
 145 532 l 1
 145 51 l 1
EndSplineSet
EndChar

StartChar: Tutg.Uml.Vir
Encoding: 70606 70606 4
Width: 0
GlyphClass: 2
Flags: MW
HStem: 521 86<-253.435 -173.71>
LayerCount: 2
Fore
SplineSet
-370 678 m 0
 -370 686 -367 690 -359 690 c 0
 -344 690 -308 645 -296 634 c 0
 -286 624 -273 615 -261 607 c 1
 -260 607 l 2
 -250 604 -240 602 -229 602 c 0
 -212 602 -188 606 -173 616 c 0
 -153 629 -127 695 -109 695 c 0
 -88 695 -56 647 -56 627 c 0
 -56 619 -69 603 -74 596 c 0
 -109 541 -116 521 -187 521 c 0
 -205 521 -224 525 -240 534 c 0
 -275 553 -370 637 -370 678 c 0
EndSplineSet
EndChar

StartChar: Tutg.Bh
Encoding: 70569 70569 5
Width: 1061
GlyphClass: 2
Flags: W
HStem: 2 79<425 670> 420 80<204.218 376.631 697.071 861.392>
VStem: 17 64<150.395 309.263> 424 63<225.972 375.564> 574 63<213.593 361.34> 980 64<159.453 320.777>
LayerCount: 2
Fore
SplineSet
17 264 m 0
 17 434 130 500 287 500 c 0
 318 500 350 494 377 478 c 0
 442 441 487 357 487 283 c 0
 487 216 466 134 425 81 c 1
 670 81 l 1
 610 152 574 246 574 339 c 0
 574 437 633 499 732 499 c 0
 775 499 819 495 860 480 c 0
 978 438 1044 327 1044 206 c 0
 1044 140 1020 77 986 21 c 0
 981 13 975 -1 964 -1 c 0
 943 -1 911 47 911 67 c 0
 911 70 912 74 913 76 c 0
 917 83 922 88 926 94 c 0
 956 139 980 210 980 263 c 0
 980 294 978 327 961 355 c 0
 931 406 828 419 774 419 c 0
 692 419 637 364 637 282 c 0
 637 221 656 146 702 104 c 0
 718 89 739 83 755 69 c 0
 769 57 787 31 787 12 c 0
 787 4 784 0 776 0 c 2
 657 -1 l 2
 628 -1 328 0 322 2 c 0
 301 11 274 45 274 69 c 0
 274 73 275 78 278 80 c 0
 287 86 298 90 307 96 c 0
 382 145 424 253 424 340 c 0
 424 353 420 381 413 392 c 0
 399 414 353 420 329 420 c 0
 190 420 81 359 81 207 c 0
 81 166 95 121 113 84 c 0
 124 63 150 36 150 12 c 0
 150 4 147 0 139 0 c 0
 125 0 106 24 99 34 c 0
 54 97 17 186 17 264 c 0
EndSplineSet
EndChar

StartChar: Tutg.Ch
Encoding: 70552 70552 6
Width: 939
GlyphClass: 2
Flags: W
HStem: -4 81<147.658 214.892 449.788 486.059 723.217 787.279> 169 81<151.343 251.903 703.208 805.08> 414 81<208.699 341.585 610.503 748.211>
VStem: 252 64<116.892 166.778> 385 63<78.0176 383.341> 498 64<86.25 362.124> 632 63<99.1561 199> 851 64<179.5 303.13>
LayerCount: 2
Fore
SplineSet
33 248 m 0
 33 374 116 495 251 495 c 0
 348 495 417 434 442 343 c 0
 451 310 453 275 453 240 c 0
 453 196 448 152 448 108 c 0
 448 97 449 88 450 77 c 1
 451 77 l 2
 495 77 498 133 498 165 c 0
 498 209 494 253 494 297 c 0
 494 413 523 496 655 496 c 0
 805 496 915 331 915 193 c 0
 915 166 911 138 903 112 c 0
 886 60 842 -3 781 -3 c 0
 707 -3 632 106 632 175 c 0
 632 223 660 251 708 251 c 0
 752 251 809 230 848 208 c 1
 850 222 851 236 851 249 c 0
 851 348 800 416 697 416 c 0
 582 416 558 339 558 240 c 0
 558 196 562 153 562 109 c 0
 562 62 555 -4 494 -4 c 0
 446 -4 405 53 393 94 c 0
 386 117 385 141 385 165 c 0
 385 209 389 252 389 296 c 0
 389 330 389 361 376 393 c 1
 375 394 l 1
 351 411 323 414 294 414 c 0
 188 414 114 325 100 227 c 1
 134 241 162 250 199 250 c 0
 263 250 316 178 316 118 c 0
 316 61 269 -4 208 -4 c 0
 134 -4 67 97 47 160 c 0
 38 188 33 218 33 248 c 0
751 170 m 0
 719 170 695 152 695 119 c 0
 695 91 713 78 739 78 c 0
 779 78 811 118 829 152 c 1
 804 163 778 170 751 170 c 0
111 131 m 0
 109 131 107 131 105 132 c 1
 114 102 132 77 166 77 c 0
 213 77 243 126 252 167 c 1
 252 168 l 1
 248 169 244 169 240 169 c 0
 209 169 174 158 146 145 c 0
 138 141 119 131 111 131 c 0
EndSplineSet
EndChar

StartChar: Tutg.Dh
Encoding: 70564 70564 7
Width: 768
GlyphClass: 2
Flags: W
HStem: 0 81<158.51 261.251 497.89 600.223>
VStem: 17 63<162.848 292.005> 350 61<194.556 268.594> 688 63<174.657 305.92>
LayerCount: 2
Fore
SplineSet
17 259 m 0
 17 347 63 418 125 476 c 0
 132 482 148 500 158 500 c 0
 179 500 211 452 211 432 c 0
 211 430 210 425 209 423 c 0
 201 412 174 392 162 380 c 0
 116 333 80 269 80 202 c 0
 80 129 123 81 197 81 c 0
 288 81 336 189 350 265 c 0
 352 274 351 286 363 286 c 0
 380 286 405 251 411 236 c 0
 415 225 417 214 419 203 c 0
 432 143 457 81 528 81 c 0
 619 81 688 173 688 259 c 0
 688 397 557 423 557 488 c 0
 557 496 560 500 568 500 c 0
 578 500 603 477 611 470 c 0
 686 402 751 307 751 202 c 0
 751 100 677 0 569 0 c 0
 492 0 427 75 395 138 c 1
 369 69 321 0 240 0 c 0
 117 0 17 145 17 259 c 0
EndSplineSet
EndChar

StartChar: E
Encoding: 69 69 8
Width: 316
GlyphClass: 2
Flags: W
HStem: 0 81<82.1284 171.413> 250 81<148.779 231> 418 81<147.602 215.129>
VStem: 17 79<84.44 175.776> 69 63<339.793 436> 231 68<157.971 250 336 405.744>
LayerCount: 2
Fore
SplineSet
17 135 m 0xf4
 17 147 27 191 36 198 c 0
 38 199 41 199 43 199 c 0
 64 199 96 151 96 131 c 0xf4
 96 127 83 93 81 84 c 1
 88 82 96 81 103 81 c 0
 200 81 220 170 231 250 c 1
 161 251 112 285 84 349 c 0
 76 368 69 389 69 409 c 0xec
 69 463 100 499 155 499 c 0
 176 499 203 486 220 474 c 0
 295 419 299 349 299 263 c 0
 299 197 285 76 234 30 c 0
 210 8 177 0 145 0 c 0
 78 0 17 69 17 135 c 0xf4
197 418 m 0
 164 418 132 392 132 358 c 0xec
 132 352 133 347 134 342 c 0
 146 334 179 331 194 331 c 0
 205 331 216 331 227 334 c 0
 230 335 233 336 236 336 c 1
 236 360 236 385 229 408 c 1
 220 414 208 418 197 418 c 0
EndSplineSet
EndChar

StartChar: F
Encoding: 70 70 9
Width: 504
GlyphClass: 2
Flags: W
HStem: 2 81<57.8968 287.623> 20 79<38.4388 162.358> 249 81<339.233 412.959> 419 81<347.5 401.189>
LayerCount: 2
Fore
SplineSet
64 20 m 0x70
 44 30 17 64 17 87 c 0
 17 95 20 99 28 99 c 0x70
 36 99 49 93 58 92 c 0
 92 86 129 83 164 83 c 0
 284 83 382 131 413 249 c 1
 410 249 406 249 404 249 c 0
 340 249 271 315 271 379 c 0
 271 412 291 470 318 490 c 0
 329 498 341 500 354 500 c 0
 370 500 392 486 404 476 c 0
 465 424 487 344 487 266 c 0
 487 248 485 230 482 212 c 0
 457 62 349 2 205 2 c 0xb0
 175 2 88 8 64 20 c 0x70
336 334 m 1
 345 331 354 330 363 330 c 0
 377 330 392 332 405 337 c 0
 411 339 417 343 424 344 c 1
 422 374 416 419 395 419 c 0
 358 419 342 363 336 334 c 1
EndSplineSet
EndChar

StartChar: Tutg.Gh
Encoding: 70549 70549 10
Width: 1062
GlyphClass: 2
Flags: W
HStem: 0 81<349.13 536.375 687.418 871.388> 417 81<140.152 223.766 546.361 626.745 865.557 931.775>
VStem: 17 63<139.191 340.54> 234 63<109.735 283.014> 260 63<248.939 406.301> 466 63<269.391 401.195> 675 64<227.172 373.582> 981 64<191.831 348.387>
LayerCount: 2
Fore
SplineSet
88 34 m 0xef
 38 108 17 199 17 287 c 0
 17 367 50 498 150 498 c 0
 175 498 199 489 221 478 c 0
 279 448 323 398 323 330 c 0xef
 323 267 297 208 297 145 c 0
 297 136 298 117 302 109 c 0
 325 86 407 80 438 80 c 0
 486 80 530 95 567 121 c 1
 505 199 466 304 466 391 c 0
 466 446 487 500 550 500 c 0
 569 500 589 494 606 487 c 0
 691 452 739 360 739 270 c 0
 739 203 716 141 677 93 c 1
 705 84 736 81 772 81 c 0
 898 81 981 167 981 292 c 0
 981 323 973 378 952 402 c 0
 940 415 920 420 903 420 c 0
 898 420 892 419 888 421 c 0
 867 431 840 464 840 488 c 0
 840 500 847 501 857 501 c 0
 975 501 1045 340 1045 236 c 0
 1045 95 957 0 814 0 c 0
 746 0 690 11 635 52 c 1
 593 19 540 -1 480 -1 c 0
 393 -1 316 16 265 94 c 0
 244 127 234 163 234 202 c 0xf7
 234 265 260 323 260 386 c 0
 260 389 259 392 259 395 c 0
 239 408 216 417 192 417 c 0
 109 417 80 295 80 230 c 0
 80 171 89 111 118 59 c 0
 126 44 139 30 139 12 c 0
 139 4 136 0 128 0 c 0
 114 0 95 24 88 34 c 0xef
597 146 m 1
 645 192 675 257 675 327 c 0
 675 342 673 383 661 394 c 0
 647 408 611 419 591 419 c 0
 545 419 529 373 529 334 c 0
 529 270 554 194 597 146 c 1
EndSplineSet
EndChar

StartChar: Tutg.Uml.Vis
Encoding: 70605 70605 11
Width: 259
GlyphClass: 2
Flags: W
HStem: 1 79<91.9465 161.537> 148 79<100.9 178.446> 256 79<86.9465 156.537> 403 79<95.8995 173.446>
VStem: 22 62<83.0354 131.216 335.061 389.036> 179 63<97.1859 147.929 357.781 400.054>
LayerCount: 2
Fore
SplineSet
22 143 m 0
 22 200 65 227 118 227 c 0
 183 227 242 154 242 92 c 0
 242 37 207 1 151 1 c 0
 87 1 22 82 22 143 c 0
17 398 m 0
 17 455 60 482 113 482 c 0
 178 482 237 409 237 347 c 0
 237 292 202 256 146 256 c 0
 82 256 17 337 17 398 c 0
159 148 m 0
 124 148 84 128 84 89 c 0
 84 88 85 86 85 85 c 0
 93 81 102 80 111 80 c 0
 148 80 178 107 179 145 c 1
 173 147 165 148 159 148 c 0
79 344 m 0
 79 343 80 341 80 340 c 0
 88 336 97 335 106 335 c 0
 143 335 173 362 174 400 c 1
 168 402 160 403 154 403 c 0
 119 403 79 383 79 344 c 0
EndSplineSet
EndChar

StartChar: Tutg.Uml.Ii
Encoding: 70586 70586 12
Width: 147
GlyphClass: 2
Flags: W
HStem: 522 81<-361.808 -263.293> 724 20G<-275.5 -171.5>
VStem: 67 63<246.922 505.998>
LayerCount: 2
Fore
SplineSet
-436 653 m 0
 -436 728 -303 744 -248 744 c 0
 -95 744 39 658 103 519 c 0
 113 497 130 456 130 432 c 0
 130 389 129 344 129 301 c 0
 129 281 130 260 129 240 c 0
 129 232 128 227 118 227 c 0
 97 227 65 275 65 295 c 0
 65 358 67 423 67 486 c 0
 67 493 64 500 62 506 c 0
 31 607 -74 653 -174 662 c 1
 -166 649 -161 637 -161 629 c 0
 -161 621 -168 606 -171 598 c 0
 -192 551 -230 522 -282 522 c 0
 -343 522 -399 558 -425 613 c 0
 -431 625 -436 639 -436 653 c 0
-234 662 m 1
 -282 658 -342 645 -368 610 c 1
 -355 604 -339 603 -325 603 c 0
 -288 603 -248 627 -234 662 c 1
EndSplineSet
EndChar

StartChar: Tutg.Jh
Encoding: 70554 70554 13
Width: 1036
GlyphClass: 2
Flags: W
HStem: 0 81<483.325 601.117 730.154 867.762> 17 81<276.446 360.42> 222 81<872.222 945.793> 241 81<207 303.057> 424 81<176.645 328.993 847.173 916.028>
VStem: 17 63<142.31 329.442> 167 63<147.396 258.5> 418 63<187.075 323.296> 628 62<216.828 323.005> 754 64<346.342 441.5> 955 64<308.508 378.046>
LayerCount: 2
Fore
SplineSet
95 28 m 0x5fe0
 41 88 17 211 17 290 c 0
 17 434 102 505 242 505 c 0
 387 505 481 340 481 208 c 0
 481 171 474 131 458 97 c 1
 483 84 510 81 538 81 c 0
 620 81 636 147 636 215 c 0
 636 254 628 293 628 332 c 0
 628 340 631 344 639 344 c 0
 658 344 685 304 690 287 c 0
 695 270 695 252 696 234 c 0
 699 189 698 134 714 92 c 1
 732 83 754 81 774 81 c 0
 797 81 821 86 843 93 c 0
 914 116 937 161 946 222 c 1
 869 222 793 299 766 366 c 0
 760 381 754 397 754 413 c 0
 754 470 809 501 862 501 c 0
 947 501 1019 369 1019 289 c 0
 1019 222 1018 122 976 67 c 0
 941 21 872 1 816 1 c 0
 761 1 718 18 685 63 c 1
 672 20 623 0 581 0 c 0xafe0
 516 0 470 21 434 60 c 1
 412 34 381 17 340 17 c 0
 246 17 167 152 167 236 c 0
 167 281 181 322 233 322 c 0
 252 322 271 315 288 308 c 0
 342 284 378 237 404 186 c 1
 414 212 418 240 418 265 c 0
 418 354 382 424 283 424 c 0
 163 424 80 362 80 233 c 0
 80 181 89 126 109 78 c 0
 118 57 139 41 139 17 c 0
 139 9 136 5 128 5 c 0
 118 5 101 21 95 28 c 0x5fe0
230 180 m 0
 230 136 250 98 298 98 c 0
 334 98 362 116 381 141 c 1
 369 166 359 196 342 215 c 0
 330 229 293 241 275 241 c 0x5fe0
 240 241 230 209 230 180 c 0
903 420 m 0
 872 420 818 397 818 360 c 0
 818 324 876 303 905 303 c 0x2fe0
 924 303 942 313 955 315 c 0
 955 317 955 320 955 322 c 0
 955 360 957 420 903 420 c 0
EndSplineSet
EndChar

StartChar: Tutg.Kh
Encoding: 70547 70547 14
Width: 809
GlyphClass: 2
Flags: W
HStem: -4 81<102.825 207.812 474.24 681.164> 210 81<116.391 201.585> 422 81<195.205 307.994>
VStem: 21 64<84.2148 175.386> 228 63<81.5 181.604> 437 63<156.806 295.341> 728 64<133.504 398.708>
LayerCount: 2
Fore
SplineSet
179 -4 m 0
 91 -4 21 75 21 161 c 0
 21 284 59 503 219 503 c 0
 366 503 500 333 500 193 c 0
 500 155 493 114 474 80 c 1
 504 80 641 81 667 90 c 0
 723 108 728 226 728 275 c 0
 728 334 724 398 705 454 c 0
 701 465 694 475 694 487 c 0
 694 495 697 499 705 499 c 0
 712 499 723 490 728 486 c 0
 780 437 792 287 792 218 c 0
 792 160 786 47 728 15 c 0
 700 0 553 -1 513 -1 c 0
 489 -1 427 1 408 12 c 0
 390 22 365 55 365 77 c 0
 365 80 366 84 367 86 c 0
 374 96 383 104 390 114 c 0
 419 153 437 200 437 249 c 0
 437 346 359 422 262 422 c 0
 186 422 137 353 113 288 c 1
 121 290 129 291 137 291 c 0
 230 291 291 170 291 89 c 0
 291 74 289 56 282 43 c 0
 264 10 214 -4 179 -4 c 0
180 210 m 0
 143 210 103 178 88 173 c 1
 86 149 85 126 85 105 c 0
 85 99 85 93 86 87 c 1
 102 79 120 77 137 77 c 0
 164 77 211 90 223 116 c 0
 227 125 228 135 228 145 c 0
 228 155 224 195 217 200 c 0
 207 207 192 210 180 210 c 0
EndSplineSet
EndChar

StartChar: Tutg.Ll
Encoding: 70579 70579 15
Width: 513
GlyphClass: 2
Flags: W
HStem: -1 72<90.9273 421.929> 6 69<254.564 480.125> 113 72<213.5 437.496> 126 72<114.887 399> 228 72<71.3324 144.993> 248 72<296.613 359.438> 427 72<167.204 365.091>
VStem: 12 56<302.293 366.341> 156 57<280.5 373.954> 443 57<192.926 235.313>
LayerCount: 2
Fore
SplineSet
134 228 m 0x0bc0
 64 228 12 301 12 366 c 0
 12 474 155 499 238 499 c 0
 323 499 415 474 468 403 c 0
 483 383 495 355 495 330 c 0
 495 301 478 279 451 269 c 1
 473 247 500 208 500 175 c 0
 500 127 461 113 421 113 c 0x2bc0
 357 113 293 126 229 126 c 0
 186 126 110 123 89 77 c 1
 126 69 166 71 204 71 c 0x93c0
 259 71 314 73 369 75 c 0
 396 76 423 78 450 78 c 0
 469 78 496 34 496 17 c 0
 496 6 490 7 481 6 c 0x43c0
 405 2 327 -1 251 -1 c 0
 205 -1 110 -1 72 22 c 0
 52 34 25 68 25 92 c 0
 25 190 116 198 192 198 c 0x93c0
 256 198 319 185 383 185 c 0
 409 185 443 194 443 226 c 1
 417 244 393 255 360 255 c 0
 348 255 337 248 325 248 c 0
 306 248 279 292 279 309 c 0
 279 313 280 317 284 320 c 0x27c0
 301 333 410 317 434 362 c 0
 438 369 438 376 439 384 c 1
 392 417 330 427 274 427 c 0
 242 427 202 423 165 412 c 1
 193 380 213 335 213 304 c 0
 213 257 180 228 134 228 c 0x0bc0
68 316 m 2
 68 305 l 1
 77 301 87 300 96 300 c 0
 128 300 156 320 156 354 c 0
 156 373 148 383 129 383 c 0
 107 383 97 370 89 367 c 1
 77 353 68 335 68 316 c 2
EndSplineSet
EndChar

StartChar: M
Encoding: 77 77 16
Width: 406
GlyphClass: 2
Flags: W
HStem: 6 80<141.54 262.323> 296 79<149.579 278.74>
VStem: 17 62<139.211 234.827> 327 62<150.957 263.125>
LayerCount: 2
Fore
SplineSet
222 6 m 0
 111 6 17 124 17 230 c 0
 17 328 107 375 195 375 c 0
 300 375 389 278 389 175 c 0
 389 74 324 6 222 6 c 0
236 296 m 0
 166 296 79 254 79 174 c 0
 79 156 83 135 93 119 c 0
 107 96 157 86 182 86 c 0
 266 86 327 145 327 230 c 0
 327 239 325 259 321 267 c 0
 312 286 256 296 236 296 c 0
EndSplineSet
EndChar

StartChar: Tutg.Nn
Encoding: 70560 70560 17
Width: 1141
GlyphClass: 2
Flags: W
HStem: 2 81<130.355 231.077> 181 81<144.156 218.643> 422 80<183.115 336.021 551.324 669.594 885.198 980.174>
VStem: 248 64<55 160.391> 407 66<58.0856 322.644> 752 63<20.922 304.662> 1060 64<142.26 342.245>
LayerCount: 2
Fore
SplineSet
206 2 m 0
 88 2 17 140 17 244 c 0
 17 365 81 502 219 502 c 0
 313 502 383 475 432 389 c 1
 458 463 502 502 582 502 c 0
 674 502 735 441 772 362 c 1
 786 424 814 500 889 500 c 0
 1044 500 1124 361 1124 220 c 0
 1124 154 1109 77 1078 18 c 0
 1074 11 1070 -2 1059 -2 c 0
 1038 -2 1006 46 1006 66 c 0
 1006 75 1029 115 1034 129 c 0
 1050 174 1060 228 1060 276 c 0
 1060 374 1039 419 933 419 c 0
 840 419 820 251 815 141 c 0
 816 124 816 107 816 91 c 0
 816 78 817 10 813 3 c 0
 811 0 807 0 804 0 c 0
 797 0 786 9 781 13 c 0
 761 32 754 49 751 73 c 0
 751 75 751 77 751 79 c 0
 751 115 751 150 752 186 c 0
 750 259 739 378 697 404 c 0
 675 417 649 422 624 422 c 0
 508 422 479 306 473 206 c 0
 473 193 473 179 473 166 c 0
 473 127 472 89 473 50 c 0
 474 37 475 25 475 12 c 0
 475 4 472 0 464 0 c 0
 457 0 446 9 441 13 c 0
 429 24 418 41 413 57 c 0
 407 79 407 176 407 203 c 0
 407 222 408 244 409 267 c 0
 407 322 400 376 381 393 c 0
 354 416 296 422 261 422 c 0
 157 422 99 326 84 233 c 1
 104 250 127 262 154 262 c 0
 232 262 312 160 312 86 c 0
 312 24 260 2 206 2 c 0
99 105 m 1
 116 88 142 83 164 83 c 0
 201 83 248 99 248 143 c 0
 248 172 222 181 197 181 c 0
 163 181 132 152 114 126 c 0
 109 119 106 111 99 105 c 1
EndSplineSet
EndChar

StartChar: Tutg.Ph
Encoding: 70567 70567 18
Width: 937
GlyphClass: 2
Flags: W
HStem: -4 81<454 772.325> 223 81<685.6 786.341> 326 81<212.876 358.849> 418 81<677.725 760.049>
VStem: 17 64<110.152 208.358> 441 63<185.523 269.41> 598 63<324.001 436.5> 856 64<151.249 257.214>
LayerCount: 2
Fore
SplineSet
17 198 m 0
 17 293 109 370 193 396 c 0
 218 404 244 407 270 407 c 0
 378 407 504 303 504 191 c 0
 504 152 482 112 454 79 c 1
 482 78 510 77 538 77 c 0
 600 77 746 77 797 109 c 0
 836 134 856 189 856 233 c 0
 856 241 856 249 855 258 c 1
 826 232 787 223 748 223 c 0
 666 223 598 332 598 409 c 0
 598 464 633 499 688 499 c 0
 794 499 880 363 906 273 c 0
 915 242 920 209 920 176 c 0
 920 124 897 60 852 31 c 0
 798 -3 658 -4 592 -4 c 0
 520 -4 449 1 377 1 c 2
 361 1 l 2
 359 0 357 0 355 0 c 0
 332 0 301 48 301 69 c 0
 301 77 306 80 312 81 c 1
 311 82 l 1
 361 108 441 189 441 248 c 0
 441 256 441 264 438 272 c 0
 436 276 429 283 425 286 c 0
 395 313 351 326 311 326 c 0
 227 326 139 277 99 203 c 0
 89 184 81 164 81 142 c 0
 81 75 123 86 148 35 c 0
 151 28 155 20 155 12 c 0
 155 4 152 0 144 0 c 0
 136 0 117 15 111 20 c 0
 59 65 17 127 17 198 c 0
661 352 m 0
 661 340 663 327 668 316 c 1
 681 310 691 304 706 304 c 0
 733 304 772 313 793 330 c 0
 806 341 813 357 820 365 c 1
 800 396 770 418 730 418 c 0
 691 418 661 392 661 352 c 0
EndSplineSet
EndChar

StartChar: Tutg.Tth
Encoding: 70557 70557 19
Width: 536
GlyphClass: 2
Flags: W
HStem: 0 81<203.058 356.342> 196 78<244.32 327.866> 418 81<216.15 342.532>
VStem: 16 64<177.424 283.095> 239 94<202.75 267.145> 461 63<180.167 300.767>
LayerCount: 2
Fore
SplineSet
42 169 m 0
 27 198 16 232 16 265 c 0
 16 323 43 369 81 411 c 0
 127 462 183 499 254 499 c 0
 395 499 524 338 524 203 c 0
 524 81 426 0 308 0 c 0
 198 0 91 73 42 169 c 0
80 208 m 0
 80 121 195 81 267 81 c 0
 367 81 461 155 461 260 c 0
 461 354 388 418 296 418 c 0
 199 418 80 307 80 208 c 0
286 196 m 0
 261 196 239 214 239 234 c 0
 239 256 261 274 286 274 c 0
 312 274 333 256 333 234 c 0
 333 214 312 196 286 196 c 0
EndSplineSet
EndChar

StartChar: Tutg.Uml.VocR
Encoding: 70589 70589 20
Width: 185
GlyphClass: 2
Flags: W
HStem: -92 81<-265.907 -173.631>
VStem: 105 63<8.96403 172.34>
LayerCount: 2
Fore
SplineSet
-345 -149 m 0
 -356 -132 -365 -113 -365 -93 c 0
 -365 -44 -281 -11 -240 -11 c 0
 -174 -11 -106 -81 -94 -147 c 1
 -89 -145 -84 -144 -79 -142 c 0
 24 -103 105 -5 105 108 c 0
 105 161 89 216 62 262 c 0
 50 283 20 316 20 339 c 0
 20 347 23 351 31 351 c 0
 46 351 67 323 75 311 c 0
 127 235 168 146 168 52 c 0
 168 -78 78 -188 -44 -227 c 0
 -78 -238 -115 -242 -151 -242 c 0
 -225 -242 -303 -213 -345 -149 c 0
-297 -139 m 1
 -274 -150 -242 -157 -214 -160 c 1
 -204 -153 -186 -152 -177 -146 c 0
 -149 -126 -160 -108 -156 -102 c 1
 -157 -102 l 1
 -174 -96 -178 -92 -197 -92 c 0
 -221 -92 -286 -116 -297 -139 c 1
EndSplineSet
EndChar

StartChar: Tutg.Sh
Encoding: 70575 70575 21
Width: 857
GlyphClass: 2
Flags: W
HStem: -1 81<151.817 262.502 597.887 710.514> 220 81<582.602 710.913> 413 81<151.751 262.79> 420 80<508.918 663.394>
VStem: 17 64<182.856 337.449> 497 64<110.539 237.025> 777 63<240 292.859>
LayerCount: 2
Fore
SplineSet
17 295 m 0xde
 17 412 70 494 195 494 c 0
 234 494 253 490 275 456 c 0
 281 447 288 433 288 422 c 0
 288 414 285 410 277 410 c 0
 263 410 250 413 236 413 c 0xee
 127 413 81 339 81 238 c 0
 81 200 96 123 126 98 c 0
 145 82 158 80 182 80 c 0
 456 80 202 500 571 500 c 0
 730 500 840 327 840 182 c 0
 840 87 789 1 686 1 c 0
 663 1 639 3 618 11 c 0
 544 39 497 129 497 205 c 0
 497 276 548 301 612 301 c 0
 666 301 731 278 777 240 c 1
 777 345 725 420 613 420 c 0
 266 420 525 -1 224 -1 c 0
 96 -1 17 187 17 295 c 0xde
653 220 m 0
 607 220 561 201 561 148 c 0
 561 136 563 124 565 112 c 0
 566 109 567 106 567 103 c 1
 566 103 l 1
 582 84 620 82 643 82 c 0
 712 82 755 129 770 188 c 1
 743 207 684 220 653 220 c 0
EndSplineSet
EndChar

StartChar: Tutg.Th
Encoding: 70562 70562 22
Width: 772
GlyphClass: 2
Flags: W
HStem: 2 81<249.855 479.48> 417 81<488.114 612.032> 481 20G<94 109.5>
VStem: 17 64<210.628 349.014> 341 63<244.853 340.091> 691 64<246.42 351.879>
LayerCount: 2
Fore
SplineSet
17 308 m 0xdc
 17 374 40 425 76 479 c 0
 81 486 89 501 99 501 c 0xbc
 120 501 152 453 152 433 c 0
 152 430 151 426 150 424 c 0
 142 411 131 399 123 386 c 0
 97 346 81 299 81 251 c 0
 81 122 242 83 345 83 c 0
 400 83 458 94 511 116 c 1
 484 127 456 141 434 157 c 0
 383 196 341 265 341 331 c 0
 341 430 433 498 526 498 c 0
 641 498 755 380 755 264 c 0
 755 234 744 200 729 174 c 0
 664 57 514 2 386 2 c 0
 248 2 125 59 54 180 c 0
 32 217 17 264 17 308 c 0xdc
596 164 m 1
 643 200 691 260 691 321 c 0
 691 359 685 370 654 390 c 0
 629 407 597 417 567 417 c 0xdc
 492 417 404 355 404 274 c 0
 404 261 406 245 413 234 c 0
 436 200 555 164 596 164 c 1
EndSplineSet
EndChar

StartChar: Tutg.Uml.Uu
Encoding: 70588 70588 23
Width: 0
GlyphClass: 2
Flags: W
HStem: -295 81<-165.424 -77.1069> -195 81<-192.562 -114>
VStem: -273 80<-114 -67.7703> -134 63<-101.585 -44.6563> -46 64<-184.286 -84.4682>
LayerCount: 2
Fore
SplineSet
-273 -98 m 0
 -273 -52 -258 -20 -227 13 c 0
 -223 18 -216 26 -209 28 c 0
 -198 36 -187 42 -176 45 c 0
 -167 48 -158 49 -149 49 c 0
 -129 49 -109 39 -93 28 c 0
 -29 -15 18 -104 18 -181 c 0
 18 -249 -28 -295 -96 -295 c 0
 -185 -295 -273 -183 -273 -98 c 0
-142 -195 m 0
 -166 -195 -190 -180 -210 -159 c 1
 -209 -168 -205 -179 -202 -187 c 1
 -181 -205 -166 -214 -137 -214 c 0
 -85 -214 -46 -177 -46 -125 c 0
 -46 -97 -53 -63 -74 -44 c 1
 -71 -58 -71 -72 -71 -89 c 0
 -71 -135 -86 -195 -142 -195 c 0
-193 -112 m 2
 -193 -113 l 2
 -190 -114 -187 -114 -184 -114 c 0
 -147 -114 -135 -69 -134 -39 c 1
 -164 -52 -193 -85 -193 -112 c 2
EndSplineSet
EndChar

StartChar: Tutg.Ddh
Encoding: 70559 70559 25
Width: 784
GlyphClass: 2
Flags: W
HStem: 1 81<196.208 305.325 487.655 582.984> 210 81<602.792 673.117> 416 81<123.088 201.829 614.839 671.167>
VStem: 17 64<278.467 365.153> 98 64<101.514 182.637> 376 64<147.395 351.698> 516 64<298.334 375.714> 703 64<301.818 373.87>
LayerCount: 2
Fore
SplineSet
23 304 m 0
 19 314 17 325 17 336 c 0
 17 403 49 497 130 497 c 0
 198 497 279 432 279 362 c 0
 279 275 162 198 162 119 c 0
 162 114 163 108 164 103 c 0
 180 89 210 82 231 82 c 0
 252 82 274 88 293 97 c 0
 361 130 375 173 376 242 c 1
 372 285 372 328 372 367 c 0
 372 375 375 379 383 379 c 0
 390 379 401 370 406 366 c 0
 418 354 429 338 434 322 c 0
 439 306 440 208 440 184 c 0
 443 156 446 127 459 101 c 0
 468 90 500 83 514 83 c 0
 582 83 640 142 674 210 c 1
 596 213 516 282 516 362 c 0
 516 419 552 498 618 498 c 0
 679 498 738 402 755 351 c 0
 764 324 767 296 767 267 c 0
 767 157 678 2 555 2 c 0
 502 2 449 44 422 87 c 1
 396 32 331 1 272 1 c 0
 185 1 98 88 98 175 c 0
 98 267 193 322 214 407 c 1
 200 412 189 416 174 416 c 0
 109 416 81 333 81 279 c 0
 81 274 82 271 82 266 c 0
 82 258 79 254 71 254 c 0
 54 254 29 289 23 304 c 0
580 306 m 2
 580 305 l 1
 597 296 619 291 638 291 c 0
 685 291 693 314 703 324 c 1
 703 353 699 417 660 417 c 0
 611 417 580 348 580 306 c 2
EndSplineSet
EndChar

StartChar: Tutg.Uml.LoopVir
Encoding: 70607 70607 26
Width: 448
GlyphClass: 2
Flags: W
HStem: 5 80<168.292 250.266> 427.896 80.6621<-102.565 33.7483> 438.936 90.0723<-110.734 183.504> 605 81.001<75.2431 224.005>
VStem: 87 63<105.896 220.671> 265 63<516.078 591.334> 331 63<174.148 326.663>
LayerCount: 2
Fore
SplineSet
150 135 m 0x9e
 150 116 156 109 159 92 c 1
 166 87 174 85 182 85 c 0
 194 85 206 89 217 92 c 0
 294 115 331 193 331 269 c 0
 331 326 317 376 280 403 c 1
 227 315 150 220 150 135 c 0x9e
230 491 m 2
 250 525 264 557 265 584 c 1
 225 604 148 605 103 605 c 0
 97 605 80 604 75 606 c 0
 54 616 27 649 27 673 c 0
 27 685 37 686 46 686 c 0
 48.08984375 686 50.1875 686.000976562 52.29296875 686.000976562 c 0
 143.873046875 686.000976562 249.28125 685.044921875 305 600 c 0
 318 580 328 556 328 531 c 0
 328 503 317 473 301 442 c 1
 360 382 394 290 394 213 c 0
 394 133 361 49 283 17 c 0
 265 10 245 5 226 5 c 0
 148 5 87 123 87 191 c 0
 87 268 139 349 187 423 c 2
 190.55859375 428.627929688 l 1
 151.419921875 435.005859375 105.607421875 438.935546875 62.126953125 438.935546875 c 0xbe
 20.60546875 438.935546875 -18.7890625 435.3515625 -48.212890625 426.895507812 c 0
 -53.9794921875 425.237304688 -71.212890625 425.895507812 -76.212890625 427.895507812 c 0
 -97.212890625 437.895507812 -124.212890625 470.895507812 -124.212890625 494.895507812 c 0
 -124.212890625 506.895507812 -113.120117188 505.80859375 -104.55078125 508.557617188 c 0xde
 -63.068359375 521.864257812 -14.2041015625 529.0078125 36.10546875 529.0078125 c 0xbe
 102.443359375 529.0078125 171.293945312 516.586914062 229.047851562 489.494140625 c 1
 230 491 l 2
EndSplineSet
EndChar

StartChar: Tutg.Uml.Length
Encoding: 70601 70601 27
Width: 450
GlyphClass: 2
Flags: W
HStem: 0 21G<60.5 77> 419 81<60 144.88 276.084 338.882>
VStem: 17 64<23.8129 34.5583 354.927 459.5> 369 64<248.252 382.504>
LayerCount: 2
Fore
SplineSet
82 290 m 0
 48 317 17 396 17 439 c 0
 17 480 40 500 80 500 c 0
 125 500 168 471 188 431 c 1
 207 465 235 500 278 500 c 0
 364 500 433 373 433 293 c 0
 433 250 425 198 399 163 c 0
 323 61 103 73 82 13 c 0
 79 5 83 0 71 0 c 0
 50 0 18 48 18 68 c 0
 18 154 257 140 333 228 c 0
 362 261 369 307 369 349 c 0
 369 382 362 419 321 419 c 0
 251 419 226 282 197 282 c 0
 176 282 144 330 144 350 c 0
 144 366 146 383 146 399 c 0
 146 405 145 410 145 416 c 1
 137 418 129 419 121 419 c 0
 98 419 81 408 81 383 c 0
 81 343 112 318 112 293 c 0
 112 285 109 281 101 281 c 0
 95 281 86 287 82 290 c 0
EndSplineSet
EndChar

StartChar: Tutg.Ny
Encoding: 70555 70555 28
Width: 783
GlyphClass: 2
Flags: W
HStem: -2 21G<651.5 659> 113 81<121.073 196.499> 243 81<515.583 592.335> 257 78<113.135 205.515> 416 81<163.449 274.121 496.633 665.507>
VStem: 211 64<208.172 254.92> 599 67<23.9568 106> 702 64<305.994 392.113>
LayerCount: 2
Fore
SplineSet
194 113 m 0xdf
 94 113 19 229 19 321 c 0
 19 416 99 497 194 497 c 0
 258 497 316 456 352 406 c 1
 396 467 492 503 566 503 c 0
 644 503 706 460 744 393 c 0
 756 371 766 345 766 319 c 0
 766 249 718 189 666 148 c 1
 666 117 663 88 663 57 c 0
 663 41 666 26 666 10 c 0
 666 2 663 -2 655 -2 c 0
 648 -2 637 7 632 11 c 0
 603 38 599 69 599 106 c 1
 574 95 549 88 525 88 c 0
 464 88 412 158 412 215 c 0
 412 273 476 324 531 324 c 0xef
 575 324 617 289 641 250 c 1
 677 290 702 337 702 375 c 0
 702 380 701 385 700 390 c 2
 700 391 l 1
 683 415 633 422 606 422 c 0
 545 422 434 381 404 321 c 0
 401 316 401 309 398 304 c 0
 396 301 393 301 389 301 c 0
 375 301 354 326 348 337 c 0
 343 345 341 353 336 361 c 0
 314 399 281 416 237 416 c 0
 182 416 129 381 102 333 c 1
 105 334 108 335 110 335 c 0
 119 337 127 338 136 338 c 0
 207 338 275 263 275 194 c 0
 275 148 240 113 194 113 c 0xdf
477 170 m 1
 481 169 l 2
 517 160 563 180 603 213 c 1
 603 222 603 229 601 237 c 1
 592 242 583 243 573 243 c 0
 534 243 487 208 477 170 c 1
89 225 m 1
 94 200 129 194 150 194 c 0
 180 194 211 218 211 250 c 2
 211 252 l 1
 201 256 191 257 180 257 c 0xdf
 144 257 100 226 89 225 c 1
EndSplineSet
EndChar

StartChar: Tutg.Uml.Aa
Encoding: 70584 70584 29
Width: 227
GlyphClass: 2
Flags: W
HStem: -5 21G<187.5 200> 417 82<99.0679 145.967>
VStem: 17 62<368.496 397.679> 145 62<17.4956 415.196>
LayerCount: 2
Fore
SplineSet
17 414 m 0
 17 464 60 499 108 499 c 0
 154 499 200 448 208 405 c 0
 210 395 210 386 210 376 c 0
 210 276 209 174 209 74 c 0
 209 63 210 3 207 -2 c 0
 205 -5 202 -5 198 -5 c 0
 177 -5 145 43 145 63 c 0
 145 181 147 299 146 417 c 1
 122 417 89 396 83 372 c 0
 81 366 82 354 79 349 c 0
 77 346 74 346 70 346 c 0
 49 346 17 394 17 414 c 0
EndSplineSet
EndChar

StartChar: Tutg.B
Encoding: 70568 70568 30
Width: 861
GlyphClass: 2
Flags: W
HStem: 1 81<578.394 711.678> 8 81<123.099 177.135> 147 81<90.5149 182.883> 415 80<150.719 252.366 394.966 514.224>
VStem: 17 64<228.036 327.913> 564 64<202.907 363.898> 780 64<154.662 405.13>
LayerCount: 2
Fore
SplineSet
112 39 m 0x7e
 44 99 17 189 17 278 c 0
 17 371 59 495 171 495 c 0
 231 495 272 469 306 421 c 1
 325 480 370 498 428 498 c 0
 520 498 588 423 615 341 c 0
 625 312 628 281 628 250 c 0
 628 191 607 132 577 82 c 1
 616 82 674 83 709 101 c 0
 725 109 738 120 748 135 c 0
 780 183 780 280 780 337 c 0
 780 367 779 398 767 426 c 0
 760 443 741 468 741 486 c 0
 741 494 744 498 752 498 c 0
 761 498 775 486 780 480 c 0
 824 432 844 343 844 281 c 0
 844 216 843 105 801 53 c 0
 759 2 681 1 621 1 c 0xbe
 602 1 497 1 490 4 c 0
 469 13 442 48 442 71 c 0
 442 74 442 78 444 80 c 0
 446 83 449 84 452 86 c 0
 520 131 564 228 564 307 c 0
 564 378 553 417 470 417 c 0
 377 417 357 353 357 273 c 0
 357 245 358 217 360 189 c 0
 361 174 363 160 363 145 c 0
 363 137 360 133 352 133 c 0
 333 133 306 173 301 190 c 0
 296 207 296 224 294 241 c 0
 289 294 291 349 274 400 c 1
 275 400 l 1
 255 411 235 415 213 415 c 0
 121 415 82 306 81 228 c 1
 147 228 206 210 242 152 c 0
 252 136 261 116 261 96 c 0
 261 51 220 8 175 8 c 0
 151 8 129 24 112 39 c 0x7e
123 147 m 0
 111 147 101 142 90 139 c 1
 97 112 110 89 132 89 c 0x7e
 157 89 187 114 195 137 c 1
 172 144 147 147 123 147 c 0
EndSplineSet
EndChar

StartChar: Tutg.C
Encoding: 70551 70551 31
Width: 770
GlyphClass: 2
Flags: W
HStem: 0 81<317 657.586> 416 81<207.074 335.992>
VStem: 79 62<303.496 353.15> 395 63<261.849 375.549> 689 64<113.954 305.471>
LayerCount: 2
Fore
SplineSet
65 6 m 0
 44 15 17 50 17 73 c 0
 17 76 18 82 21 84 c 0
 25 86 38 86 43 87 c 0
 173 101 395 191 395 339 c 0
 395 374 392 386 360 402 c 0
 337 413 311 416 286 416 c 0
 218 416 155 373 144 304 c 0
 143 298 144 289 141 284 c 0
 139 281 135 281 132 281 c 0
 111 281 79 329 79 349 c 0
 79 438 159 497 243 497 c 0
 360 497 458 400 458 283 c 0
 458 190 392 125 317 81 c 1
 359 81 l 2
 420 81 482 82 543 83 c 0
 571 84 601 80 629 86 c 0
 682 99 689 169 689 215 c 0
 689 266 678 356 646 396 c 0
 640 404 627 405 619 409 c 0
 601 419 576 453 576 474 c 0
 576 482 579 486 587 486 c 0
 602 486 631 467 642 457 c 0
 721 386 753 261 753 158 c 0
 753 105 741 18 678 5 c 0
 649 -1 618 3 589 2 c 0
 526 1 463 0 400 0 c 0
 359 0 79 0 65 6 c 0
EndSplineSet
EndChar

StartChar: Tutg.D
Encoding: 70563 70563 32
Width: 493
GlyphClass: 2
Flags: W
HStem: -2 81<204.673 349.452> 418 81<247.207 360.776>
VStem: 157 62<351.496 391.012> 410 66<143.342 202.641>
LayerCount: 2
Fore
SplineSet
44 148 m 0
 33 166 17 198 17 219 c 0
 17 227 20 231 28 231 c 0
 43 231 67 201 73 188 c 0
 79 175 79 159 89 149 c 0
 135 103 210 79 274 79 c 0
 350 79 400 129 410 203 c 1
 384 202 362 189 336 189 c 0
 311 189 278 235 278 259 c 0
 278 262 278 266 280 269 c 0
 286 281 297 290 305 300 c 0
 326 325 367 376 373 408 c 1
 355 415 337 418 318 418 c 0
 289 418 250 408 233 382 c 0
 219 361 223 338 219 332 c 0
 217 329 214 329 210 329 c 0
 189 329 157 377 157 397 c 0
 157 469 212 499 277 499 c 0
 336 499 392 469 422 418 c 0
 431 402 439 384 439 365 c 0
 439 336 422 302 405 279 c 1
 444 261 476 213 476 170 c 0
 476 73 418 -2 317 -2 c 0
 210 -2 102 58 44 148 c 0
EndSplineSet
EndChar

StartChar: Tutg.Uml.Ee
Encoding: 70594 70594 33
Width: 349
GlyphClass: 2
Flags: W
HStem: 252 81<92.5158 210.292> 417 81<119.843 219.505>
VStem: 17 64<335.52 382.197> 268 64<207.905 364.08>
LayerCount: 2
Fore
SplineSet
17 389 m 0
 17 458 83 498 146 498 c 0
 231 498 295 418 318 343 c 0
 329 308 332 271 332 234 c 0
 332 152 289 99 241 38 c 0
 234 29 223 9 212 9 c 0
 191 9 159 57 159 77 c 0
 159 99 268 186 268 291 c 0
 268 317 265 363 254 387 c 0
 243 411 212 417 188 417 c 0
 147 417 84 387 81 341 c 1
 95 335 111 333 126 333 c 0
 154 333 182 352 189 352 c 0
 210 352 242 304 242 284 c 0
 242 261 186 252 169 252 c 0
 108 252 56 289 30 343 c 0
 23 358 17 373 17 389 c 0
EndSplineSet
EndChar

StartChar: Tutg.Reph
Encoding: 70609 70609 34
Width: 195
GlyphClass: 2
Flags: W
HStem: 500 189
VStem: 67 66<519.496 665.958>
LayerCount: 2
Fore
SplineSet
67 565 m 0
 67 579 70 683 71 685 c 0
 74 689 76 689 80 689 c 0
 87 689 97 681 102 676 c 0
 127 652 133 630 133 597 c 0
 133 584 134 506 129 500 c 0
 126 496 124 497 120 497 c 0
 99 497 67 545 67 565 c 0
EndSplineSet
EndChar

StartChar: Tutg.G
Encoding: 70548 70548 35
Width: 784
GlyphClass: 2
Flags: W
HStem: -5 80<159.793 272.249> 2 81<525.828 632.318> 411 81<182.264 287.68> 417 80<511.79 628.828>
VStem: 29 64<151.174 311.228> 703 63<155.945 311.376>
LayerCount: 2
Fore
SplineSet
42 176 m 0x9c
 33 206 29 237 29 268 c 0
 29 386 94 492 222 492 c 0
 262 492 282 486 302 450 c 0
 307 441 312 430 312 420 c 0
 312 412 309 408 301 408 c 0
 288 408 276 411 263 411 c 0
 152 411 93 313 93 211 c 0
 93 139 109 75 194 75 c 0xac
 436 75 281 420 488 488 c 0
 512 496 540 497 566 497 c 0
 595 497 623 482 645 464 c 0
 724 400 766 286 766 186 c 0
 766 79 705 2 594 2 c 0
 554 2 538 3 514 39 c 0
 508 48 501 62 501 73 c 0
 501 81 504 85 512 85 c 0
 525 85 539 83 552 83 c 0x5c
 647 83 703 151 703 243 c 0
 703 300 684 417 608 417 c 0
 580 417 547 414 521 401 c 0
 352 317 495 -5 236 -5 c 0
 139 -5 67 91 42 176 c 0x9c
EndSplineSet
EndChar

StartChar: Z_A_k
Encoding: 1114113 -1 36
Width: 1163
GlyphClass: 3
Flags: W
HStem: -2 81<99.0989 196.212 585.527 641.141 853.728 907.172> 198 81<103.067 208.088> 416 81<200.033 310.946 549.287 699.131> 424 81<893.35 1009.68>
VStem: 17 63<109.056 209.164> 245 64<120.648 184.651> 522 63<80.6414 172.974> 958 64<153.76 280.48>
LayerCount: 2
Fore
SplineSet
96 22 m 0xef
 44 60 17 160 17 222 c 0
 17 253 20 284 29 314 c 0
 55 404 131 497 232 497 c 0xef
 311 497 372 436 412 374 c 1
 443 466 534 502 624 502 c 0
 679 502 735 492 786 472 c 1
 830 493 875 505 918 505 c 0
 1018 505 1085 438 1125 352 c 0
 1131 339 1146 304 1146 291 c 0
 1146 283 1143 279 1135 279 c 0
 1130 279 1122 284 1118 287 c 0
 1077 320 1088 353 1062 386 c 0
 1038 416 998 424 961 424 c 0xdf
 939 424 915 420 892 413 c 1
 958 363 1022 276 1022 189 c 0
 1022 173 1021 157 1018 142 c 0
 1010 99 974 23 933 4 c 0
 923 -1 913 -2 902 -2 c 0
 858 -2 802 69 782 104 c 1
 747 64 691 -1 633 -1 c 0
 587 -1 543 64 530 103 c 0
 525 120 522 137 522 155 c 0
 522 256 625 364 700 420 c 1
 688 421 677 421 666 421 c 0
 570 421 480 376 467 274 c 0
 466 265 467 247 464 240 c 0
 462 237 458 237 455 237 c 0
 450 237 440 243 436 246 c 0
 407 270 403 299 390 332 c 0
 369 383 332 416 275 416 c 0
 198 416 131 347 102 279 c 1
 161 279 237 258 276 210 c 0
 295 186 309 144 309 114 c 0
 309 38 234 0 167 0 c 0
 142 0 117 7 96 22 c 0xef
831 388 m 1
 740 343 585 210 585 95 c 0
 585 90 586 85 587 80 c 1
 591 80 l 2
 631 80 686 137 711 165 c 0
 721 176 731 191 742 200 c 0
 744 201 747 201 749 201 c 0
 763 201 783 177 790 167 c 0
 805 146 833 79 861 79 c 0
 905 79 942 158 952 194 c 0
 956 211 958 228 958 245 c 0
 958 319 893 362 831 388 c 1
152 198 m 0
 127 198 105 193 81 186 c 1
 80 179 80 172 80 165 c 0
 80 146 87 102 95 85 c 1
 105 83 115 81 125 81 c 0
 175 81 245 113 245 171 c 2
 245 176 l 1
 220 191 181 198 152 198 c 0
EndSplineSet
LCarets2: 2 0 0
Ligature2: "'liga' +BCEEQgQwBD0ENAQwBEAEQgQ9BEsENQAA +BDsEOAQzBDAEQgRDBEAESwAA in Latin lookup 0 subtable" Tutg.Ny Tutg.Uml.Vir Tutg.K
EndChar

StartChar: Z_A_g
Encoding: 1114114 -1 37
Width: 783
GlyphClass: 3
Flags: W
HStem: -496 80<148.793 261.249> -489 81<514.828 621.318> -80 81<171.264 276.68> -74 80<500.79 617.828> -2 21G<651.5 659> 113 81<121.073 196.499> 243 81<515.583 592.335> 257 78<113.135 205.515> 416 81<163.449 274.121 496.633 665.507>
VStem: 18 64<-339.826 -179.772> 211 64<208.172 254.92> 599 67<23.9568 106> 692 63<-335.055 -179.624> 702 64<305.994 392.113>
LayerCount: 2
Fore
SplineSet
194 113 m 0x05f4
 94 113 19 229 19 321 c 0
 19 416 99 497 194 497 c 0
 258 497 316 456 352 406 c 1
 396 467 492 503 566 503 c 0
 644 503 706 460 744 393 c 0
 756 371 766 345 766 319 c 0
 766 249 718 189 666 148 c 1
 666 117 663 88 663 57 c 0
 663 41 666 26 666 10 c 0
 666 2 663 -2 655 -2 c 0
 648 -2 637 7 632 11 c 0
 603 38 599 69 599 106 c 1
 574 95 549 88 525 88 c 0
 464 88 412 158 412 215 c 0
 412 273 476 324 531 324 c 0x0ef4
 575 324 617 289 641 250 c 1
 677 290 702 337 702 375 c 0
 702 380 701 385 700 390 c 2
 700 391 l 1
 683 415 633 422 606 422 c 0
 545 422 434 381 404 321 c 0
 401 316 401 309 398 304 c 0
 396 301 393 301 389 301 c 0
 375 301 354 326 348 337 c 0
 343 345 341 353 336 361 c 0
 314 399 281 416 237 416 c 0
 182 416 129 381 102 333 c 1
 105 334 108 335 110 335 c 0
 119 337 127 338 136 338 c 0
 207 338 275 263 275 194 c 0
 275 148 240 113 194 113 c 0x05f4
18 -223 m 0
 18 -105 83 1 211 1 c 0
 251 1 271 -5 291 -41 c 0
 296 -50 301 -61 301 -71 c 0
 301 -79 298 -83 290 -83 c 0
 277 -83 265 -80 252 -80 c 0
 141 -80 82 -178 82 -280 c 0
 82 -352 98 -416 183 -416 c 0xa4f8
 425 -416 270 -71 477 -3 c 0
 501 5 529 6 555 6 c 0
 584 6 612 -9 634 -27 c 0
 713 -91 755 -205 755 -305 c 0
 755 -412 694 -489 583 -489 c 0
 543 -489 527 -488 503 -452 c 0
 497 -443 490 -429 490 -418 c 0
 490 -410 493 -406 501 -406 c 0
 514 -406 528 -408 541 -408 c 0x54f8
 636 -408 692 -340 692 -248 c 0
 692 -191 673 -74 597 -74 c 0
 569 -74 536 -77 510 -90 c 0
 341 -174 484 -496 225 -496 c 0x94f8
 128 -496 56 -400 31 -315 c 0
 22 -285 18 -254 18 -223 c 0
477 170 m 1
 481 169 l 2
 517 160 563 180 603 213 c 1
 603 222 603 229 601 237 c 1
 592 242 583 243 573 243 c 0x06f0
 534 243 487 208 477 170 c 1
89 225 m 1
 94 200 129 194 150 194 c 0
 180 194 211 218 211 250 c 2
 211 252 l 1
 201 256 191 257 180 257 c 0x05f0
 144 257 100 226 89 225 c 1
EndSplineSet
LCarets2: 2 0 0
Ligature2: "'liga' +BCEEQgQwBD0ENAQwBEAEQgQ9BEsENQAA +BDsEOAQzBDAEQgRDBEAESwAA in Latin lookup 0 subtable" Tutg.Ny Tutg.Uml.Vir Tutg.G
EndChar

StartChar: z_A_c
Encoding: 1114115 -1 38
Width: 1461
GlyphClass: 3
Flags: W
HStem: 6 80<104.193 183.721 1008 1353.23> 421 81<174.909 273.441 455.482 571.184>
VStem: 198 64<58 165.298> 305 62<183.496 308.892> 472 63<106.417 230.92> 640 63<161.629 340.506> 1086 63<261.849 369.376> 1380 64<113.954 305.471>
LayerCount: 2
Fore
SplineSet
17 221 m 0
 17 320 68 502 192 502 c 0
 259 502 310 465 340 412 c 1
 366 463 411 499 483 499 c 0
 538 499 579 490 620 452 c 1
 687 493 770 506 849 506 c 0
 946 506 1047 477 1109 398 c 0
 1135 364 1149 326 1149 283 c 0
 1149 190 1083 125 1008 81 c 1
 1050 81 l 2
 1111 81 1173 82 1234 83 c 0
 1262 84 1292 81 1320 86 c 0
 1373 99 1380 169 1380 215 c 0
 1380 266 1369 356 1337 396 c 0
 1331 404 1318 404 1310 409 c 0
 1292 419 1267 453 1267 474 c 0
 1267 482 1270 486 1278 486 c 0
 1293 486 1322 467 1333 457 c 0
 1412 386 1444 261 1444 158 c 0
 1444 105 1432 18 1369 5 c 0
 1340 -1 1309 3 1280 2 c 0
 1217 1 1154 0 1091 0 c 0
 1050 0 770 0 756 6 c 0
 735 15 708 50 708 73 c 0
 708 76 709 82 712 84 c 0
 716 86 729 86 734 87 c 0
 864 101 1086 191 1086 339 c 0
 1086 346 1085 363 1082 369 c 0
 1080 372 1070 381 1066 383 c 0
 1019 414 945 425 890 425 c 0
 825 425 753 415 692 383 c 0
 687 379 681 375 675 371 c 1
 694 326 703 276 703 231 c 0
 703 170 688 82 648 34 c 0
 636 20 621 8 602 8 c 0
 552 8 505 78 488 119 c 0
 478 143 472 169 472 195 c 0
 472 259 498 321 537 372 c 0
 546 388 559 403 572 415 c 1
 556 418 540 418 527 418 c 0
 422 418 384 330 373 238 c 0
 372 209 370 168 367 164 c 0
 365 161 362 161 358 161 c 0
 337 161 305 209 305 229 c 0
 305 256 307 285 311 314 c 0
 311 317 311 320 311 323 c 0
 311 343 311 364 306 383 c 0
 304 391 300 398 298 406 c 1
 281 420 256 421 235 421 c 0
 169 421 125 350 104 296 c 1
 182 285 262 158 262 86 c 0
 262 30 221 6 169 6 c 0
 97 6 46 78 28 140 c 0
 20 166 17 194 17 221 c 0
535 139 m 0
 535 127 538 101 546 92 c 0
 548 90 554 89 557 89 c 0
 567 89 575 95 582 101 c 0
 623 137 640 235 640 288 c 0
 640 305 639 323 636 341 c 1
 624 331 613 319 603 306 c 0
 600 302 597 297 593 293 c 0
 558 247 535 193 535 139 c 0
138 215 m 0
 95 215 90 157 82 138 c 1
 84 118 88 95 97 91 c 0
 105 87 116 86 125 86 c 0
 160 86 198 103 198 143 c 0
 198 175 174 215 138 215 c 0
EndSplineSet
LCarets2: 2 0 0
Ligature2: "'liga' +BCEEQgQwBD0ENAQwBEAEQgQ9BEsENQAA +BDsEOAQzBDAEQgRDBEAESwAA in Latin lookup 0 subtable" z Tutg.Uml.Vir Tutg.C
EndChar

StartChar: z_A_C
Encoding: 1114116 -1 39
Width: 1388
GlyphClass: 3
Flags: W
HStem: -4 81<922.788 959.059 1202.47 1251.68> 8 81<101.61 186.401 551.636 611.5> 140 81<1218.29 1280.57> 415 80<446.133 567.023 691.143 813.826 1085.68 1214.26>
VStem: 198 64<58 165.298> 305 62<183.496 308.892> 473 63<103.853 235.45> 640 63<161.629 348.375> 858 63<78.0176 164.109> 860 68<108.891 365.72> 971 63<87.3348 362.184> 1138 64<79.8374 123.345> 1308 63<213 311.497>
LayerCount: 2
Fore
SplineSet
17 221 m 0x7f78
 17 320 68 502 192 502 c 0
 259 502 310 465 340 412 c 1
 366 463 411 499 483 499 c 0
 535 499 574 491 614 457 c 1
 647 481 684 496 724 496 c 0
 741 496 758 494 773 489 c 0
 892 461 928 344 928 237 c 0x7f78
 928 227 926 178 923 165 c 0
 922 146 921 127 921 108 c 0
 921 97 922 88 923 77 c 1
 924 77 l 2
 968 77 971 133 971 165 c 0
 971 209 966 252 966 296 c 0
 966 412 994 495 1126 495 c 0
 1272 495 1371 334 1371 201 c 0
 1371 178 1370 154 1365 132 c 0
 1353 78 1315 -4 1250 -4 c 0
 1196 -4 1138 84 1138 134 c 0
 1138 201 1186 221 1245 221 c 0
 1256 221 1286 218 1305 213 c 1
 1307 227 1308 242 1308 257 c 0
 1308 350 1267 415 1168 415 c 0
 1053 415 1030 340 1030 240 c 0
 1030 196 1034 152 1034 108 c 0
 1034 61 1028 -4 967 -4 c 0
 919 -4 878 53 866 94 c 0
 859 117 858 141 858 165 c 0xbfb8
 858 189 859 213 860 236 c 0
 861 256 862 276 862 296 c 0
 862 326 862 356 852 384 c 0
 843 403 810 411 791 414 c 0
 790 414 788 414 786 414 c 0
 778 414 769 414 761 416 c 0
 730 415 699 401 671 380 c 1
 693 334 703 279 703 231 c 0
 703 170 688 82 648 34 c 0
 636 20 621 8 602 8 c 0
 554 8 507 74 490 114 c 0
 480 138 473 165 473 191 c 0
 473 275 512 354 568 416 c 1
 553 418 539 418 527 418 c 0
 422 418 384 330 373 238 c 0
 372 209 370 168 367 164 c 0
 365 161 362 161 358 161 c 0
 337 161 305 209 305 229 c 0
 305 256 307 285 311 314 c 0
 311 337 311 360 306 383 c 0
 304 391 300 398 298 406 c 1
 281 420 256 421 235 421 c 0
 169 421 125 350 104 296 c 1
 182 285 262 158 262 86 c 0
 262 30 221 6 169 6 c 0
 97 6 46 78 28 140 c 0
 20 166 17 194 17 221 c 0x7f78
536 134 m 0
 536 123 540 101 546 92 c 0
 548 90 555 89 557 89 c 0
 567 89 575 95 582 101 c 0
 623 137 640 235 640 288 c 0
 640 307 638 329 634 349 c 1
 578 292 536 216 536 134 c 0
138 215 m 0
 95 215 90 157 82 138 c 1
 84 118 88 95 97 91 c 0
 105 87 116 86 125 86 c 0
 160 86 198 103 198 143 c 0
 198 175 174 215 138 215 c 0
1202 78 m 1
 1204 78 1206 77 1208 77 c 0xbf38
 1238 77 1264 108 1281 140 c 1
 1244 139 1202 124 1202 80 c 2
 1202 78 l 1
EndSplineSet
Ligature2: "'liga' +BCEEQgQwBD0ENAQwBEAEQgQ9BEsENQAA +BDsEOAQzBDAEQgRDBEAESwAA in Latin lookup 0 subtable" z Tutg.Uml.Vir Tutg.Ch
EndChar

StartChar: z_A_j
Encoding: 1114117 -1 40
Width: 1792
GlyphClass: 3
Flags: W
HStem: 5 81<104.932 183.721 556.538 611.5 1115.32 1242.67 1555.3 1668.97> 190 81<1572.99 1656.06> 418 81<173.728 278.318 450.675 577.317 712.012 806.092 975.537 1058.26 1475.87 1605.6>
VStem: 198 64<58 165.298> 305 62<183.496 308.892> 473 63<104.36 228.32> 640 63<163.614 337.258> 823 66<74.3227 297.407> 1047 64<88.1461 176.14> 1100 64<264.538 378.808> 1465 64<95.2896 146.283> 1711 64<145.372 274.309>
LayerCount: 2
Fore
SplineSet
17 221 m 0xff70
 17 320 68 502 192 502 c 0
 259 502 310 465 340 412 c 1
 366 463 411 499 483 499 c 0
 538 499 579 490 621 451 c 1
 659 480 701 499 743 499 c 0
 797 499 841 454 866 406 c 1
 892 459 933 498 995 498 c 0
 1081 498 1164 377 1164 298 c 0xff70
 1164 226 1116 164 1111 92 c 1
 1130 87 1150 86 1169 86 c 0
 1370 86 1227 355 1415 471 c 0
 1447 491 1488 504 1526 504 c 0
 1557 504 1591 489 1616 471 c 0
 1707 407 1775 271 1775 160 c 0
 1775 81 1742 7 1652 7 c 0
 1582 7 1522 29 1484 91 c 0
 1473 109 1465 131 1465 152 c 0
 1465 218 1531 271 1594 271 c 0
 1641 271 1682 234 1710 193 c 1
 1711 201 1711 209 1711 217 c 0
 1711 298 1664 423 1567 423 c 0
 1536 423 1496 409 1470 393 c 0
 1287 281 1439 5 1210 5 c 0
 1149 5 1104 20 1070 73 c 0
 1055 96 1047 119 1047 147 c 0xffb0
 1047 219 1100 284 1100 355 c 0
 1100 394 1076 417 1037 417 c 0
 942 417 902 294 892 218 c 0
 891 200 889 183 887 175 c 0
 886 160 886 146 886 133 c 0
 886 109 889 85 889 61 c 0
 889 53 886 49 878 49 c 0
 871 49 860 58 855 62 c 0
 817 99 823 141 823 190 c 0
 823 203 823 217 824 232 c 0
 824 240 825 247 826 255 c 0
 827 262 828 269 829 276 c 0
 830 292 831 309 831 325 c 0
 831 339 827 403 818 410 c 0
 811 416 794 418 785 418 c 0
 746 418 705 395 674 372 c 1
 694 327 703 276 703 231 c 0
 703 170 688 82 648 34 c 0
 636 20 621 8 602 8 c 0
 553 8 505 78 488 119 c 0
 478 143 473 168 473 194 c 0
 473 276 522 358 578 414 c 1
 561 418 541 418 527 418 c 0
 422 418 384 330 373 238 c 0
 372 209 370 168 367 164 c 0
 365 161 362 161 358 161 c 0
 337 161 305 209 305 229 c 0
 305 256 307 285 311 314 c 0
 311 317 311 320 311 323 c 0
 311 343 311 364 306 383 c 0
 304 391 300 398 298 406 c 1
 281 420 256 421 235 421 c 0
 169 421 125 350 104 296 c 1
 182 285 262 158 262 86 c 0
 262 30 221 6 169 6 c 0
 97 6 46 78 28 140 c 0
 20 166 17 194 17 221 c 0xff70
636 338 m 1
 581 284 536 209 536 138 c 0
 536 123 537 89 557 89 c 0
 567 89 575 95 582 101 c 0
 623 139 640 234 640 288 c 0
 640 304 639 321 636 338 c 1
1635 190 m 0
 1583 190 1542 151 1529 103 c 1
 1529 102 l 1
 1550 92 1585 88 1609 88 c 0
 1652 88 1679 109 1695 140 c 1
 1680 166 1675 190 1635 190 c 0
138 215 m 0
 95 215 90 157 82 138 c 1
 84 118 88 95 97 91 c 0
 104 87 117 86 125 86 c 0
 160 86 198 103 198 143 c 0
 198 175 174 215 138 215 c 0
EndSplineSet
LCarets2: 2 0 0
Ligature2: "'liga' +BCEEQgQwBD0ENAQwBEAEQgQ9BEsENQAA +BDsEOAQzBDAEQgRDBEAESwAA in Latin lookup 0 subtable" z Tutg.Uml.Vir Tutg.J
EndChar

StartChar: z_A_z
Encoding: 1114118 -1 41
Width: 1773
GlyphClass: 3
Flags: W
HStem: -172 81<875.398 1363.92> -155 81<482.839 859.602> 8 81<101.48 186.401 552.451 611.5> 15 81<1072.14 1131.5> 421 81<174.909 273.441 455.482 578.132 720.691 800.568> 424 81<968.702 1098.02 1233.33 1326.08 1515.62 1614.46>
VStem: 198 64<58 165.298> 305 62<183.496 308.892> 473 63<104.36 227.942> 640 63<163.614 336.359> 825 70<190.386 335.491> 993 63<111.07 233.272> 1160 63<170.728 343.359> 1345 69<196.841 304.188> 1345 62<196.496 241.776> 1693 63<105.885 307.411>
LayerCount: 2
Fore
SplineSet
17 221 m 0x2bfd
 17 320 68 502 192 502 c 0x2bfd
 259 502 310 465 340 412 c 1
 366 463 411 499 483 499 c 0
 539 499 580 490 621 451 c 1
 659 479 701 498 743 498 c 0
 792 498 833 461 859 417 c 1
 885 469 930 506 1003 506 c 0
 1058 506 1100 497 1141 458 c 1
 1179 486 1221 505 1263 505 c 0
 1319 505 1364 457 1389 406 c 1
 1423 461 1477 505 1543 505 c 0
 1577 505 1609 490 1635 469 c 0
 1719 401 1756 272 1756 167 c 0
 1756 113 1746 56 1718 10 c 0
 1611 -164 1323 -172 1141 -172 c 0x87fd
 972 -172 804 -155 635 -155 c 0
 594 -155 520 -158 484 -176 c 0
 477 -180 468 -185 463 -191 c 0
 458 -198 457 -210 446 -210 c 0
 425 -210 393 -162 393 -142 c 0
 393 -135 397 -127 401 -121 c 0
 434 -75 542 -74 594 -74 c 0x43fd
 763 -74 931 -91 1100 -91 c 0
 1273 -91 1577 -82 1667 97 c 0
 1687 135 1693 181 1693 223 c 0
 1693 266 1681 353 1657 388 c 0
 1640 414 1616 424 1585 424 c 0
 1495 424 1429 321 1414 243 c 0x87fd
 1413 217 1410 183 1407 177 c 0x87fb
 1405 174 1401 174 1398 174 c 0
 1377 174 1345 222 1345 242 c 0
 1345 265 1347 288 1351 310 c 0
 1352 317 1352 324 1352 331 c 0
 1352 345 1348 409 1339 416 c 0
 1332 422 1314 424 1305 424 c 0
 1266 424 1226 401 1195 378 c 1
 1214 333 1223 283 1223 238 c 0
 1223 178 1208 88 1168 41 c 0
 1156 27 1141 15 1122 15 c 0x97fd
 1073 15 1024 85 1008 126 c 0
 998 150 993 175 993 201 c 0
 993 285 1042 364 1099 421 c 1
 1081 425 1062 425 1047 425 c 0
 946 425 908 344 895 260 c 0
 894 237 891 176 887 170 c 0
 885 167 882 167 878 167 c 0
 857 167 825 215 825 236 c 0
 825 265 827 297 832 328 c 1
 831 347 827 402 819 409 c 0
 812 415 794 417 785 417 c 0
 746 417 706 394 675 371 c 1
 694 326 703 276 703 231 c 0
 703 170 688 82 648 34 c 0
 636 20 621 8 602 8 c 0
 553 8 505 78 488 119 c 0
 478 143 473 168 473 194 c 0
 473 276 522 359 579 414 c 1
 561 418 541 418 527 418 c 0
 422 418 384 330 373 238 c 0
 372 209 370 168 367 164 c 0
 365 161 362 161 358 161 c 0
 337 161 305 209 305 229 c 0
 305 256 307 285 311 314 c 0
 311 317 311 320 311 323 c 0
 311 343 311 364 306 383 c 0
 304 391 300 398 298 406 c 1
 281 420 256 421 235 421 c 0
 169 421 125 350 104 296 c 1
 182 285 262 158 262 86 c 0
 262 30 221 6 169 6 c 0
 97 6 46 78 28 140 c 0
 20 166 17 194 17 221 c 0x2bfd
636 337 m 1
 581 283 536 208 536 138 c 0
 536 123 537 89 557 89 c 0
 567 89 575 95 582 101 c 0
 623 139 640 234 640 288 c 0
 640 304 639 321 636 337 c 1
1156 344 m 1
 1101 290 1056 215 1056 145 c 0
 1056 131 1058 116 1064 103 c 0
 1068 97 1070 96 1077 96 c 0x13f9
 1087 96 1095 102 1102 108 c 0
 1143 146 1160 241 1160 295 c 0
 1160 310 1159 328 1156 344 c 1
138 215 m 0
 95 215 90 157 82 138 c 1
 84 118 88 95 97 91 c 0
 104 87 117 86 125 86 c 0
 160 86 198 103 198 143 c 0
 198 175 174 215 138 215 c 0
EndSplineSet
LCarets2: 2 0 0
Ligature2: "'liga' +BCEEQgQwBD0ENAQwBEAEQgQ9BEsENQAA +BDsEOAQzBDAEQgRDBEAESwAA in Latin lookup 0 subtable" z Tutg.Uml.Vir z
EndChar

StartChar: Tutg.Ng
Encoding: 70550 70550 42
Width: 1202
GlyphClass: 3
Flags: W
HStem: -10 81<951.741 1092.48> 2 81<130.355 231.077> 125 82<981.768 1119.44> 181 81<144.156 218.643> 422 80<183.115 335.874 551.324 669.594 885.229 1022.72>
VStem: 248 64<55 160.391> 409 64<25.0312 322.185> 752 63<20.922 305.025> 916 65<206.103 232.63> 1086 64<303.5 386.787>
LayerCount: 2
Fore
SplineSet
17 244 m 0x5fc0
 17 365 81 502 219 502 c 0
 313 502 383 475 432 389 c 1
 458 463 502 502 582 502 c 0
 674 502 735 441 772 363 c 1
 784 416 805 461 837 484 c 0
 858 499 884 501 909 501 c 0
 997 501 1072 473 1122 397 c 0
 1138 373 1150 344 1150 315 c 0
 1150 292 1136 271 1114 263 c 0
 1101 258 1086 258 1072 256 c 0
 1039 251 998 240 981 209 c 1
 981 207 l 1
 991 206 1000 206 1010 206 c 0
 1036 206 1071 210 1096 203 c 0
 1137 192 1185 121 1185 79 c 0
 1185 9 1106 -10 1050 -10 c 0xafc0
 1015 -10 944 9 916 30 c 0
 901 41 878 72 878 92 c 0
 878 100 881 104 889 104 c 2
 889 104 935 85 941 83 c 0x4fc0
 962 76 986 71 1008 71 c 0
 1045 71 1109 84 1120 125 c 1
 1112 126 1104 126 1096 126 c 0
 1070 126 1027 122 1004 130 c 0
 966 143 916 215 916 255 c 0
 916 310 979 330 1023 337 c 0
 1036 339 1052 339 1064 344 c 0
 1077 349 1086 361 1086 375 c 0
 1086 410 977 420 951 420 c 0
 926 420 905 417 885 400 c 0
 833 355 819 232 815 137 c 0
 816 121 816 106 816 91 c 0
 816 82 816 44 815 21 c 2
 815 17 l 2
 814 10 814 4 813 3 c 0
 811 0 808 0 804 0 c 0
 797 0 786 9 781 13 c 0
 761 32 754 49 751 73 c 0
 751 75 751 77 751 79 c 0
 751 117 751 154 752 192 c 0
 749 265 738 378 697 404 c 0
 675 417 649 422 624 422 c 0
 508 422 479 306 473 206 c 0
 473 193 473 179 473 166 c 0
 473 127 472 89 473 50 c 0
 474 37 475 25 475 12 c 0
 475 4 472 0 464 0 c 0
 457 0 446 9 441 13 c 0
 407 44 408 84 409 125 c 0xafc0
 408 151 407 177 407 203 c 0
 407 222 408 244 409 268 c 0
 407 322 400 376 381 393 c 0
 354 416 295 422 261 422 c 0
 157 422 99 326 84 233 c 1
 104 250 127 262 154 262 c 0
 232 262 312 160 312 86 c 0
 312 24 260 2 206 2 c 0
 88 2 17 140 17 244 c 0x5fc0
99 105 m 1
 116 88 142 83 164 83 c 0
 201 83 248 99 248 143 c 0
 248 172 222 181 197 181 c 0x5fc0
 163 181 132 152 114 126 c 0
 109 119 106 111 99 105 c 1
EndSplineSet
Ligature2: "'liga' +BCEEQgQwBD0ENAQwBEAEQgQ9BEsENQAA +BDsEOAQzBDAEQgRDBEAESwAA in Latin lookup 0 subtable" Tutg.Nn Tutg.Uml.Vir Tutg.Tt
LCarets2: 2 0 0
EndChar

StartChar: N_A_Q
Encoding: 1114119 -1 43
Width: 1277
GlyphClass: 3
Flags: W
HStem: 2 81<130.085 231.077 999.945 1129.83> 160 57<1053.79 1107.22> 181 81<144.156 218.643> 422 80<183.115 335.846 551.324 669.594 885.198 1002.1>
VStem: 248 64<55 160.391> 409 64<25.0312 322.185> 752 63<20.922 304.812> 895 64<114.836 240.462> 1053 55<160.741 216.257> 1196 64<151.036 262.277>
LayerCount: 2
Fore
SplineSet
206 2 m 0xbfc0
 88 2 17 140 17 244 c 0
 17 365 81 502 219 502 c 0
 313 502 382 475 432 389 c 1
 458 463 502 502 582 502 c 0
 674 502 735 441 772 363 c 1
 786 424 814 500 889 500 c 0
 982 500 1035 487 1070 389 c 1
 1176 375 1260 277 1260 170 c 0
 1260 72 1188 0 1090 0 c 0
 973 0 895 103 895 214 c 0
 895 279 942 391 1018 391 c 1
 1014 411 l 1
 1004 419 948 420 933 420 c 0
 840 420 820 252 815 142 c 0
 816 125 816 108 816 91 c 0
 816 82 816 45 815 21 c 2
 815 17 l 2
 814 10 814 4 813 3 c 0
 811 0 808 0 804 0 c 0
 797 0 786 9 781 13 c 0
 761 32 754 49 751 73 c 0
 751 75 751 77 751 79 c 0
 751 115 751 151 752 187 c 0
 750 259 739 378 697 404 c 0
 675 417 649 422 624 422 c 0
 508 422 479 306 473 206 c 0
 473 193 473 179 473 166 c 0
 473 127 472 89 473 50 c 0
 474 37 475 25 475 12 c 0
 475 4 472 0 464 0 c 0
 457 0 446 9 441 13 c 0
 407 44 408 84 409 125 c 0
 408 151 407 177 407 203 c 0
 407 222 408 244 409 268 c 0
 407 322 400 376 381 393 c 0
 354 416 296 422 261 422 c 0
 157 422 99 326 84 233 c 1
 104 250 127 262 154 262 c 0
 232 262 312 160 312 86 c 0
 312 24 260 2 206 2 c 0xbfc0
1043 305 m 0
 993 289 959 206 959 157 c 0
 959 142 959 111 971 101 c 0
 989 85 1025 80 1048 80 c 0
 1128 80 1196 145 1196 226 c 0
 1196 252 1194 272 1172 288 c 0
 1145 307 1106 310 1074 310 c 0
 1066 308 1054 309 1043 305 c 0
114 126 m 0
 109 119 106 111 100 104 c 1
 117 88 142 83 164 83 c 0
 201 83 248 99 248 143 c 0
 248 172 222 181 197 181 c 0
 163 181 132 152 114 126 c 0
1053 188 m 0
 1053 204 1064 217 1082 217 c 0
 1097 217 1108 204 1108 188 c 0
 1108 173 1097 160 1082 160 c 0xdfc0
 1064 160 1053 173 1053 188 c 0
EndSplineSet
LCarets2: 2 0 0
Ligature2: "'liga' +BCEEQgQwBD0ENAQwBEAEQgQ9BEsENQAA +BDsEOAQzBDAEQgRDBEAESwAA in Latin lookup 0 subtable" Tutg.Nn Tutg.Uml.Vir Tutg.Tth
EndChar

StartChar: N_A_w
Encoding: 1114120 -1 44
Width: 1567
GlyphClass: 3
Flags: W
HStem: 2 81<130.355 231.077 1001.16 1136.79 1317.09 1414.35> 181 81<144.156 218.954> 422 80<183.115 336.021 551.324 669.087 929.655 1007.2>
VStem: 248 64<55 160.524> 407 66<58.0856 322.185> 751 64<23.2677 224.971> 1034 63<322.428 413.533> 1224 64<190.182 409.013> 1486 64<164.858 351.556>
LayerCount: 2
Fore
SplineSet
206 2 m 0
 88 2 17 140 17 244 c 0
 17 365 81 502 219 502 c 0
 313 502 383 475 432 389 c 1
 458 463 502 502 582 502 c 0
 686 502 752 423 784 331 c 1
 802 387 834 458 889 488 c 0
 902 496 925 500 940 500 c 0
 1017 500 1097 420 1097 343 c 0
 1097 255 1018 170 1000 84 c 1
 1016 81 1033 79 1049 79 c 0
 1180 79 1224 202 1224 313 c 0
 1224 348 1217 383 1210 417 c 0
 1207 433 1202 448 1202 464 c 0
 1202 472 1205 476 1213 476 c 0
 1232 476 1259 436 1264 419 c 0
 1268 404 1269 389 1272 374 c 0
 1280 327 1287 283 1287 235 c 0
 1289 227 1288 218 1288 210 c 0
 1288 186 1291 108 1304 92 c 0
 1308 87 1330 83 1337 83 c 0
 1453 83 1486 186 1486 283 c 0
 1486 321 1479 376 1457 408 c 0
 1450 419 1440 426 1431 434 c 0
 1417 446 1399 472 1399 491 c 0
 1399 499 1402 503 1410 503 c 0
 1419 503 1440 485 1447 479 c 0
 1516 413 1550 321 1550 226 c 0
 1550 159 1530 63 1470 24 c 0
 1445 7 1409 2 1379 2 c 0
 1324 2 1278 53 1255 99 c 1
 1226 40 1174 -1 1091 -1 c 0
 1032 -1 989 12 956 63 c 0
 943 84 935 105 935 130 c 0
 935 210 1034 318 1034 400 c 0
 1034 402 1033 404 1033 406 c 0
 1021 415 1003 419 988 419 c 0
 985 419 982 419 979 418 c 0
 977 418 975 417 973 417 c 0
 960 414 948 408 938 406 c 0
 847 355 820 166 816 76 c 0
 816 61 816 39 815 23 c 2
 815 17 l 2
 814 10 814 4 813 3 c 0
 811 0 808 0 804 0 c 0
 785 0 758 40 753 57 c 0
 751 62 751 67 751 73 c 0
 751 96 752 119 753 142 c 0
 753 200 749 371 697 404 c 0
 675 417 649 422 624 422 c 0
 508 422 479 306 473 206 c 0
 473 193 473 179 473 166 c 0
 473 127 472 89 473 50 c 0
 474 37 475 25 475 12 c 0
 475 4 472 0 464 0 c 0
 457 0 446 9 441 13 c 0
 429 24 418 41 413 57 c 0
 407 79 407 176 407 203 c 0
 407 222 408 244 409 268 c 0
 407 322 400 376 381 393 c 0
 354 416 296 422 261 422 c 0
 157 422 99 326 84 233 c 1
 104 250 127 262 154 262 c 0
 232 262 312 160 312 86 c 0
 312 24 260 2 206 2 c 0
99 105 m 1
 116 88 142 83 164 83 c 0
 201 83 248 99 248 143 c 0
 248 150 247 156 244 162 c 1
 245 162 l 1
 232 176 216 181 197 181 c 0
 163 181 132 152 114 126 c 0
 109 119 106 111 99 105 c 1
EndSplineSet
Ligature2: "'liga' +BCEEQgQwBD0ENAQwBEAEQgQ9BEsENQAA +BDsEOAQzBDAEQgRDBEAESwAA in Latin lookup 0 subtable" Tutg.Nn Tutg.Uml.Vir Tutg.Dd
EndChar

StartChar: N_A_W
Encoding: 1114121 -1 45
Width: 1633
GlyphClass: 3
Flags: W
HStem: 2 81<130.355 231.077 1000.4 1137.09 1336.42 1441.35> 181 81<144.156 218.954> 212 81<1450.76 1526.27> 422 80<183.115 336.021 551.324 669.087 929.404 1007.86 1433 1516.22>
VStem: 248 64<55 160.524> 407 66<58.0856 322.185> 751 64<23.2677 224.971> 1034 63<322.428 413.533> 1220 67<180.946 347.466> 1364 64<298.951 377.714> 1553 63<305.351 373.743>
LayerCount: 2
Fore
SplineSet
206 2 m 0xdfe0
 88 2 17 140 17 244 c 0
 17 365 81 502 219 502 c 0
 313 502 383 475 432 389 c 1
 458 463 502 502 582 502 c 0
 686 502 752 423 784 331 c 1
 800 383 836 465 891 488 c 0
 905 496 924 500 940 500 c 0
 1017 500 1097 420 1097 343 c 0
 1097 255 1018 170 1000 84 c 1
 1016 81 1033 79 1049 79 c 0
 1167 79 1215 180 1223 281 c 1
 1221 309 1220 336 1220 361 c 0
 1220 369 1223 373 1231 373 c 0
 1238 373 1249 364 1254 360 c 0
 1285 331 1287 297 1287 257 c 0
 1287 248 1287 240 1286 231 c 0
 1289 191 1295 150 1308 112 c 0
 1318 86 1345 78 1371 78 c 0
 1441 78 1501 155 1527 212 c 1xbfe0
 1448 212 1364 282 1364 364 c 0
 1364 421 1400 500 1466 500 c 0
 1527 500 1586 404 1603 353 c 0
 1612 326 1616 297 1616 268 c 0
 1616 160 1537 -2 1413 -2 c 0
 1345 -2 1289 56 1262 114 c 1
 1234 47 1181 -1 1091 -1 c 0
 1032 -1 990 12 956 63 c 0
 943 83 935 105 935 130 c 0
 935 210 1034 318 1034 400 c 0
 1034 402 1033 404 1033 406 c 0
 1021 415 1004 419 989 419 c 0
 970 419 951 409 938 406 c 0
 847 355 820 166 816 76 c 0
 816 61 816 39 815 23 c 2
 815 17 l 2
 814 10 814 4 813 3 c 0
 811 0 808 0 804 0 c 0
 785 0 758 40 753 57 c 0
 751 62 751 67 751 73 c 0
 751 96 752 119 753 142 c 0
 753 200 749 371 697 404 c 0
 675 417 649 422 624 422 c 0
 508 422 479 306 473 206 c 0
 473 193 473 179 473 166 c 0
 473 127 472 89 473 50 c 0
 474 37 475 25 475 12 c 0
 475 4 472 0 464 0 c 0
 457 0 446 9 441 13 c 0
 429 24 418 41 413 57 c 0
 407 79 407 176 407 203 c 0
 407 222 408 244 409 268 c 0
 407 322 400 376 381 393 c 0
 354 416 296 422 261 422 c 0
 157 422 99 326 84 233 c 1
 104 250 127 262 154 262 c 0
 232 262 312 160 312 86 c 0
 312 24 260 2 206 2 c 0xdfe0
1428 308 m 2
 1428 307 l 1
 1445 298 1467 293 1486 293 c 0
 1536 293 1542 320 1553 328 c 1
 1552 358 1546 419 1508 419 c 0
 1459 419 1428 350 1428 308 c 2
99 105 m 1
 116 88 142 83 164 83 c 0
 201 83 248 99 248 143 c 0
 248 150 247 156 244 162 c 1
 245 162 l 1
 232 176 216 181 197 181 c 0xdfe0
 163 181 132 152 114 126 c 0
 109 119 106 111 99 105 c 1
EndSplineSet
Ligature2: "'liga' +BCEEQgQwBD0ENAQwBEAEQgQ9BEsENQAA +BDsEOAQzBDAEQgRDBEAESwAA in Latin lookup 0 subtable" Tutg.Nn Tutg.Uml.Vir Tutg.Ddh
EndChar

StartChar: n_A_t
Encoding: 1114122 -1 46
Width: 1146
GlyphClass: 3
Flags: W
HStem: -1 81<680.177 763.339> 416 81<134.954 242.357 525.567 678.495 859.459 997.99>
VStem: 17 63<159.682 351.873> 329 65<58.8186 244.25> 606 63<86.015 198.582> 794 63<113.507 259.493> 1065 64<168.637 354.369>
LayerCount: 2
Fore
SplineSet
118 23 m 0
 51 90 17 199 17 293 c 0
 17 352 30 442 84 477 c 0
 105 491 140 497 165 497 c 0
 261 497 329 404 355 321 c 1
 372 385 410 439 466 471 c 0
 502 489 538 502 579 502 c 0
 642 502 696 472 739 428 c 1
 786 470 843 498 905 498 c 0
 1038 498 1129 376 1129 250 c 0
 1129 175 1108 70 1059 11 c 0
 1053 4 1043 -9 1032 -9 c 0
 1011 -9 979 39 979 59 c 0
 979 72 989 73 997 81 c 0
 1005 89 1011 100 1017 110 c 0
 1051 169 1065 239 1065 306 c 0
 1065 335 1060 380 1033 397 c 0
 1009 412 975 418 947 418 c 0
 894 418 842 391 796 350 c 1
 835 281 857 200 857 133 c 0
 857 68 828 -1 753 -1 c 0
 661 -1 606 84 606 169 c 0
 606 246 659 341 708 397 c 1
 683 413 654 421 620 421 c 0
 613 421 606 420 598 419 c 0
 584 416 571 413 557 408 c 0
 549 404 528 394 518 392 c 0
 408 326 394 175 394 59 c 0
 394 49 395 10 392 4 c 0
 390 1 386 1 383 1 c 0
 364 1 337 41 332 58 c 0
 327 75 330 122 329 142 c 0
 327 211 317 321 283 381 c 0
 267 409 238 416 208 416 c 0
 103 416 80 323 80 237 c 0
 80 186 92 123 120 80 c 0
 135 58 161 44 161 13 c 0
 161 5 158 1 150 1 c 0
 140 1 125 16 118 23 c 0
767 321 m 1
 709 256 669 171 669 101 c 0
 669 96 670 92 671 87 c 1
 684 82 698 80 712 80 c 0
 770 80 794 140 794 190 c 0
 794 234 786 280 767 321 c 1
EndSplineSet
LCarets2: 2 0 0
Ligature2: "'liga' +BCEEQgQwBD0ENAQwBEAEQgQ9BEsENQAA +BDsEOAQzBDAEQgRDBEAESwAA in Latin lookup 0 subtable" Tutg.N Tutg.Uml.Vir Tutg.T
EndChar

StartChar: n_A_d
Encoding: 1114123 -1 47
Width: 923
GlyphClass: 3
Flags: W
HStem: 1 81<563.654 743.486> 201 79<642.722 713.196> 416 81<134.954 242.809 541.359 771.93>
VStem: 17 63<161.178 351.873> 332 60<21.9947 215.68> 485 65<86.1995 138.168> 842 64<153.824 214>
LayerCount: 2
Fore
SplineSet
118 23 m 0
 51 90 17 200 17 293 c 0
 17 352 30 442 84 477 c 0
 105 491 140 497 165 497 c 0
 268 497 330 398 359 311 c 1
 374 357 403 416 443 446 c 0
 469 470 532 497 569 497 c 0
 570 497 572 497 574 496 c 0
 593 498 612 499 631 499 c 0
 690 499 779 484 826 447 c 0
 852 427 885 380 885 346 c 0
 885 318 870 293 848 272 c 1
 876 250 906 204 906 168 c 0
 906 141 901 112 886 89 c 0
 844 22 732 1 658 1 c 0
 594 1 535 25 502 83 c 0
 492 100 485 118 485 138 c 0
 485 147 484 161 497 161 c 0
 519 161 550 112 550 93 c 2
 550 92 l 1
 567 84 598 82 617 82 c 0
 682 82 790 102 827 162 c 0
 837 177 840 195 842 213 c 2
 842 214 l 1
 841 214 l 2
 830 216 820 218 809 218 c 0
 785 218 762 216 738 212 c 0
 715 205 692 201 673 201 c 0
 652 201 620 249 620 269 c 0
 620 273 621 277 624 280 c 0
 626 282 658 288 686 292 c 1
 743 309 810 348 820 390 c 1
 780 409 716 418 672 418 c 0
 601 418 543 408 489 358 c 0
 423 292 406 205 397 116 c 0
 396 102 394 8 392 4 c 0
 390 1 387 1 383 1 c 0
 364 1 337 41 332 58 c 0
 327 75 330 122 329 142 c 0
 327 210 317 322 283 381 c 0
 267 409 238 416 208 416 c 0
 103 416 80 323 80 237 c 0
 80 186 92 123 120 80 c 0
 135 58 161 44 161 13 c 0
 161 5 158 1 150 1 c 0
 140 1 125 16 118 23 c 0
EndSplineSet
LCarets2: 2 0 0
Ligature2: "'liga' +BCEEQgQwBD0ENAQwBEAEQgQ9BEsENQAA +BDsEOAQzBDAEQgRDBEAESwAA in Latin lookup 0 subtable" Tutg.N Tutg.Uml.Vir Tutg.D
EndChar

StartChar: n_A_D
Encoding: 1114124 -1 48
Width: 1261
GlyphClass: 3
Flags: W
HStem: -2 80<680.435 737.859 990.167 1093.1> 416 81<134.954 242.494 539.842 650.226>
VStem: 17 63<159.682 351.873> 329 65<58.8186 223.889> 616 63<79.2327 225.793> 651 63<251.101 415.713> 840 74<181.832 254.262> 1181 63<172.944 302.268>
LayerCount: 2
Fore
SplineSet
17 293 m 0xf7
 17 352 30 442 84 477 c 0
 105 491 140 497 165 497 c 0
 267 497 329 398 358 312 c 1
 386 397 432 459 520 487 c 0
 542 494 566 499 589 499 c 0
 669 499 714 412 714 341 c 0xf7
 714 260 688 184 680 104 c 0
 679 98 679 93 679 87 c 2
 679 78 l 1
 681 78 l 2
 690 81 702 80 709 81 c 0
 784 96 825 180 840 247 c 0
 842 257 842 283 856 283 c 0
 861 283 869 278 873 275 c 0
 903 250 906 228 914 193 c 0
 928 133 951 78 1022 78 c 0
 1110 78 1181 170 1181 254 c 0
 1181 398 1050 418 1050 485 c 0
 1050 493 1053 497 1061 497 c 0
 1071 497 1096 474 1104 467 c 0
 1181 397 1244 304 1244 197 c 0
 1244 97 1168 -2 1063 -2 c 0
 983 -2 923 71 888 135 c 1
 888 134 l 1
 860 61 819 4 738 -1 c 0
 735 -3 732 -3 727 -3 c 0
 675 -3 636 41 622 88 c 0
 617 106 616 124 616 143 c 0xfb
 616 229 651 312 651 398 c 0
 651 404 651 410 650 416 c 1
 644 417 638 418 632 418 c 0
 611 418 589 412 569 406 c 0
 458 370 419 272 403 165 c 0
 398 129 394 91 394 55 c 0
 394 44 396 18 393 8 c 0
 391 2 389 1 383 1 c 0
 364 1 337 41 332 58 c 0
 327 75 330 122 329 142 c 0
 327 211 317 321 283 381 c 0
 267 409 238 416 208 416 c 0
 103 416 80 323 80 237 c 0
 80 186 92 123 120 80 c 0
 135 58 161 44 161 13 c 0
 161 5 158 1 150 1 c 0
 140 1 125 16 118 23 c 0
 51 90 17 199 17 293 c 0xf7
EndSplineSet
Ligature2: "'liga' +BCEEQgQwBD0ENAQwBEAEQgQ9BEsENQAA +BDsEOAQzBDAEQgRDBEAESwAA in Latin lookup 0 subtable" Tutg.N Tutg.Uml.Vir Tutg.Dh
EndChar

StartChar: A_y
Encoding: 1114125 -1 49
Width: 328
GlyphClass: 3
Flags: W
HStem: -124 104<33.7219 105.574>
VStem: 98 90<-153.977 -102.425> 238 65<188.63 441.504> 248 63<-109.748 285.767>
LayerCount: 2
Fore
SplineSet
11 -56 m 0xd0
 11 -53 11 -49 13 -47 c 0
 19 -39 51 -22 61 -20 c 0
 68 -18 75 -18 83 -18 c 0
 130 -18 188 -70 188 -118 c 0
 188 -132 183 -144 177 -156 c 1
 256 -148 248 42 248 99 c 0xd0
 248 205 238 312 238 418 c 0
 238 426 238 455 241 461 c 0
 243 464 247 464 250 464 c 0
 271 464 303 416 303 396 c 0xe0
 303 384 302 373 302 361 c 0
 302 247 311 132 311 18 c 0
 311 -44 310 -182 259 -224 c 0
 243 -237 219 -239 199 -239 c 0
 153 -239 98 -180 98 -134 c 0
 98 -124 102 -111 107 -102 c 1
 94 -106 74 -124 64 -124 c 0
 43 -124 11 -76 11 -56 c 0xd0
EndSplineSet
Ligature2: "'liga' +BCEEQgQwBD0ENAQwBEAEQgQ9BEsENQAA +BDsEOAQzBDAEQgRDBEAESwAA in Latin lookup 0 subtable" Tutg.Uml.Vir Tutg.Y
EndChar

StartChar: Tutg.H
Encoding: 70578 70578 50
Width: 766
GlyphClass: 2
Flags: W
HStem: -5 80<338.453 417.436> 414 80<152.969 253.938 526.414 622.009>
VStem: 24 64<86.2501 336.2> 262 63<83.0896 407.334> 443 63<102.241 393.272> 680 64<103.736 348.695>
LayerCount: 2
Fore
SplineSet
24 275 m 0
 24 385 57 494 187 494 c 0
 256 494 305 434 322 372 c 0
 329 346 331 319 331 293 c 0
 331 242 325 190 325 139 c 0
 325 123 326 95 331 81 c 1
 341 77 352 75 363 75 c 0
 434 75 443 140 443 196 c 0
 443 247 437 299 437 350 c 0
 437 422 451 494 539 494 c 0
 637 494 705 415 730 327 c 0
 740 292 744 255 744 218 c 0
 744 152 734 86 718 22 c 0
 716 15 715 5 712 -2 c 0
 710 -5 706 -5 703 -5 c 0
 682 -5 650 43 650 63 c 0
 650 83 660 106 664 126 c 0
 674 175 680 225 680 275 c 0
 680 302 675 374 655 392 c 0
 636 409 605 414 581 414 c 0
 510 414 500 350 500 293 c 0
 500 242 506 190 506 139 c 0
 506 67 493 -5 405 -5 c 0
 336 -5 288 56 271 117 c 0
 264 143 262 170 262 196 c 0
 262 247 268 299 268 350 c 0
 268 366 266 394 261 408 c 1
 251 412 240 414 229 414 c 0
 117 414 88 311 88 218 c 0
 88 169 94 118 104 70 c 0
 108 50 118 28 118 7 c 0
 118 -1 115 -5 107 -5 c 0
 102 -5 92 1 88 4 c 0
 35 44 24 215 24 275 c 0
EndSplineSet
EndChar

StartChar: Tutg.Uml.I
Encoding: 70585 70585 51
Width: 147
GlyphClass: 2
Flags: W
HStem: 622 81<-325.355 -118.554>
VStem: -435 63<548.814 584.769> 65 65<249.574 464.998>
LayerCount: 2
Fore
SplineSet
-435 610 m 0
 -435 688 -305 703 -248 703 c 0
 -95 703 39 617 103 478 c 0
 113 456 130 415 130 391 c 2
 130 252 l 2
 130 242 132 227 118 227 c 0
 97 227 65 275 65 295 c 0
 65 345 67 395 67 445 c 0
 67 452 64 459 62 465 c 0
 28 577 -99 622 -207 622 c 0
 -255 622 -358 610 -372 554 c 1
 -372 553 l 2
 -372 547 -369 542 -369 536 c 0
 -369 528 -372 524 -380 524 c 0
 -385 524 -393 529 -397 532 c 0
 -420 550 -435 581 -435 610 c 0
EndSplineSet
EndChar

StartChar: Tutg.J
Encoding: 70553 70553 52
Width: 1364
GlyphClass: 2
Flags: W
HStem: 0 81<123.092 194.648 687.463 814.289 1127.3 1240.57> 185 81<1145.19 1228.11> 209 81<108.612 189.698> 409 81<218.734 326.684 544.416 636.38> 418 81<1057.11 1169.73>
VStem: 244 64<79.5 175.712> 409 69<78.7129 322.419> 619 64<83.1461 171.14> 672 64<259.538 374.091> 1037 64<90.2896 141.283> 1283 64<140.372 271.585>
LayerCount: 2
Fore
SplineSet
17 235 m 0xb6e0
 17 275 24 315 41 351 c 0
 74 419 172 490 249 490 c 0
 332 490 393 422 426 353 c 1
 446 427 487 495 563 495 c 0
 652 495 736 376 736 293 c 0xb6e0
 736 221 688 159 683 87 c 1
 702 82 722 81 741 81 c 0
 868 81 861 197 879 290 c 0xb760
 888 335 900 380 929 417 c 0
 965 465 1039 499 1098 499 c 0
 1129 499 1163 484 1188 466 c 0
 1280 401 1347 267 1347 155 c 0
 1347 76 1314 2 1224 2 c 0
 1154 2 1094 24 1056 86 c 0
 1045 104 1037 126 1037 147 c 0
 1037 213 1103 266 1166 266 c 0
 1213 266 1254 229 1282 188 c 1
 1283 196 1283 204 1283 212 c 0
 1283 293 1236 418 1139 418 c 0
 1108 418 1068 404 1042 388 c 0
 858 274 1011 0 782 0 c 0
 722 0 676 15 642 68 c 0
 627 91 619 114 619 142 c 0xcf60
 619 214 672 279 672 350 c 0
 672 391 646 414 606 414 c 0
 588 414 572 408 557 398 c 0
 494 357 474 251 472 178 c 1
 477 138 478 99 478 63 c 0
 478 55 475 51 467 51 c 0
 460 51 449 60 444 64 c 0
 431 76 421 91 416 108 c 0
 408 131 409 193 409 221 c 0
 404 277 392 335 369 372 c 0
 352 400 323 409 292 409 c 0
 228 409 143 348 108 290 c 1
 110 290 113 290 115 290 c 0
 201 290 308 196 308 108 c 0
 308 51 236 3 184 3 c 0
 101 3 42 100 23 183 c 0
 20 190 18 197 18 202 c 0
 18 205 18 207 19 210 c 0
 18 219 17 227 17 235 c 0xb6e0
83 148 m 0
 90 112 97 84 141 84 c 0
 176 84 244 125 244 164 c 0
 244 166 244 172 243 174 c 0
 229 194 180 209 156 209 c 0
 125 209 96 195 86 164 c 0
 84 159 84 153 83 148 c 0
1101 97 m 1
 1122 87 1157 83 1181 83 c 0
 1224 83 1252 105 1267 136 c 1
 1253 161 1247 185 1207 185 c 0xc660
 1156 185 1114 146 1101 98 c 1
 1101 97 l 1
EndSplineSet
EndChar

StartChar: Tutg.K
Encoding: 70546 70546 53
Width: 768
GlyphClass: 2
Flags: W
HStem: 1 81<190.085 246.141 458.935 536.672> 425 81<176.581 304.75 499.085 618.178>
VStem: 17 62<263.496 332.801> 127 63<83.6414 176.129> 564 63<158.708 282.977>
LayerCount: 2
Fore
SplineSet
17 309 m 0
 17 440 113 506 236 506 c 0
 290 506 344 496 393 476 c 1
 436 496 481 508 523 508 c 0
 623 508 690 441 730 355 c 0
 736 342 751 307 751 294 c 0
 751 286 748 282 740 282 c 0
 735 282 727 287 723 290 c 0
 682 323 694 356 667 389 c 0
 643 419 603 427 566 427 c 0
 544 427 521 423 498 417 c 1
 564 365 627 279 627 192 c 0
 627 171 625 151 620 131 c 0
 607 84 567 1 510 1 c 0
 463 1 409 69 387 107 c 1
 352 67 296 2 238 2 c 0
 191 2 148 67 135 106 c 0
 130 123 127 140 127 158 c 0
 127 260 231 368 306 424 c 1
 296 425 287 425 278 425 c 0
 184 425 94 377 82 278 c 0
 81 270 82 251 79 244 c 0
 77 241 73 241 70 241 c 0
 49 241 17 289 17 309 c 0
438 393 m 1
 348 347 190 213 190 98 c 0
 190 93 191 88 192 83 c 1
 196 83 l 2
 235 83 291 140 316 168 c 0
 326 179 336 194 347 203 c 0
 349 205 352 204 354 204 c 0
 368 204 388 180 395 170 c 0
 410 149 438 82 466 82 c 0
 510 82 547 161 557 197 c 0
 562 214 564 231 564 248 c 0
 564 318 506 365 438 393 c 1
EndSplineSet
EndChar

StartChar: Tutg.L
Encoding: 70573 70573 54
Width: 588
GlyphClass: 2
Flags: W
HStem: -1 81<226.377 386.472> 219 81<119.678 215> 419 81<135.296 208.965>
VStem: 17 64<210.88 271> 210 64<329.517 418.327> 508 63<196.957 329.427>
LayerCount: 2
Fore
SplineSet
111 94 m 0
 52 154 17 246 17 330 c 0
 17 397 33 456 98 486 c 0
 119 496 136 500 159 500 c 0
 223 500 274 407 274 348 c 0
 274 294 247 219 183 219 c 0
 146 219 107 247 81 271 c 1
 81 231 92 170 122 141 c 0
 161 102 244 80 297 80 c 0
 410 80 508 171 508 285 c 0
 508 398 410 438 410 487 c 0
 410 495 413 499 421 499 c 0
 433 499 453 477 461 468 c 0
 519 403 571 318 571 228 c 0
 571 98 468 -1 339 -1 c 0
 257 -1 169 36 111 94 c 0
86 324 m 1
 100 312 118 300 140 300 c 0
 188 300 210 364 210 404 c 0
 210 409 210 413 209 418 c 0
 206 419 204 419 201 419 c 0
 182 419 163 412 147 404 c 0
 109 383 98 368 86 324 c 1
EndSplineSet
EndChar

StartChar: Tutg.M
Encoding: 70570 70570 55
Width: 585
GlyphClass: 2
Flags: W
HStem: -7 81<237.804 479.826> 3 73<236 340.314> 6 95<38.0332 108.564> 417 81<190.479 294.401>
VStem: 90 64<313.421 380.757> 338 64<287.138 391.6> 504 64<78.5 174.613>
LayerCount: 2
Fore
SplineSet
65 6 m 0x3e
 44 13 17 51 17 73 c 0
 17 77 19 82 22 85 c 0
 26 88 58 98 65 101 c 0x3e
 163 136 271 193 319 290 c 0
 330 312 338 341 338 365 c 0
 338 378 339 390 327 398 c 0
 309 411 279 417 257 417 c 0
 198 417 154 377 154 317 c 0
 154 311 155 307 155 301 c 0
 155 293 152 289 144 289 c 0
 125 289 98 329 93 346 c 0
 90 355 90 365 90 374 c 0
 90 449 139 498 214 498 c 0
 312 498 402 406 402 308 c 0
 402 204 320 125 236 76 c 1x5e
 272 75 306 74 342 74 c 0
 370 74 454 76 475 91 c 0
 491 102 504 128 504 148 c 0
 504 194 476 211 446 238 c 0
 432 250 414 276 414 295 c 0
 414 303 417 307 425 307 c 0
 433 307 452 292 459 286 c 0
 512 241 568 164 568 92 c 0
 568 65 554 28 531 13 c 0
 503 -5 419 -7 384 -7 c 0x9e
 292 -7 201 -1 109 3 c 0x5e
 100 3 72 4 65 6 c 0x3e
EndSplineSet
EndChar

StartChar: Tutg.N
Encoding: 70565 70565 56
Width: 806
GlyphClass: 2
Flags: W
HStem: 1 21G<145 154 373.5 385 690.5 702> 416 81<134.954 242.809 546.175 699.081>
VStem: 17 63<161.178 351.873> 332 60<21.9947 215.68> 726 63<212.683 392.544>
LayerCount: 2
Fore
SplineSet
118 23 m 0
 51 90 17 200 17 293 c 0
 17 352 30 442 84 477 c 0
 105 491 140 497 165 497 c 0
 268 497 330 398 359 311 c 1
 400 434 484 501 615 501 c 0
 722 501 789 394 789 296 c 0
 789 206 763 118 726 37 c 0
 723 30 713 7 708 2 c 0
 707 1 703 1 701 1 c 0
 680 1 648 49 648 69 c 0
 648 77 663 103 667 112 c 0
 700 182 726 273 726 350 c 0
 726 359 723 398 717 405 c 0
 707 416 670 420 656 420 c 0
 627 420 597 414 569 405 c 0
 441 361 409 237 397 116 c 0
 396 101 394 8 392 4 c 0
 390 1 387 1 383 1 c 0
 364 1 337 41 332 58 c 0
 327 75 330 122 329 142 c 0
 327 210 317 322 283 381 c 0
 267 409 238 416 208 416 c 0
 103 416 80 323 80 237 c 0
 80 186 91 123 120 80 c 0
 135 58 161 45 161 13 c 0
 161 5 158 1 150 1 c 0
 140 1 125 16 118 23 c 0
EndSplineSet
EndChar

StartChar: Tutg.P
Encoding: 70566 70566 57
Width: 937
GlyphClass: 2
Flags: W
HStem: -4 81<454 772.325> 326 81<212.876 358.917> 418 81<667.629 756.673>
VStem: 17 64<110.152 208.359> 441 63<185.523 269.41> 856 64<151.249 294.596>
LayerCount: 2
Fore
SplineSet
17 198 m 0
 17 293 109 371 193 396 c 0
 218 404 244 407 270 407 c 0
 378 407 504 303 504 191 c 0
 504 152 482 112 454 79 c 1
 482 78 510 77 538 77 c 0
 600 77 747 77 797 109 c 0
 836 134 856 189 856 233 c 0
 856 308 821 418 730 418 c 0
 720 418 711 414 701 414 c 0
 680 414 648 462 648 482 c 0
 648 498 673 499 684 499 c 0
 794 499 878 367 906 273 c 0
 915 242 920 209 920 176 c 0
 920 124 898 60 852 31 c 0
 798 -3 658 -4 592 -4 c 0
 520 -4 449 1 377 1 c 2
 361 1 l 2
 359 0 357 0 355 0 c 0
 332 0 301 48 301 69 c 0
 301 77 306 80 312 81 c 1
 311 82 l 1
 361 108 441 189 441 248 c 0
 441 256 441 264 438 272 c 0
 436 276 429 283 425 286 c 0
 394 313 352 326 311 326 c 0
 227 326 139 277 99 203 c 0
 89 184 81 164 81 142 c 0
 81 75 123 86 148 35 c 0
 151 28 155 20 155 12 c 0
 155 4 152 0 144 0 c 0
 136 0 117 15 111 20 c 0
 59 65 17 127 17 198 c 0
EndSplineSet
EndChar

StartChar: Tutg.Tt
Encoding: 70556 70556 58
Width: 511
GlyphClass: 2
Flags: W
HStem: 1 81<140.038 281.134> 231 82<194.11 281.434> 263 81<288.349 424.682> 419 81<257.847 378.954>
VStem: 18 65<147.967 281.504> 431 63<197.089 257>
LayerCount: 2
Fore
SplineSet
18 261 m 0xbc
 18 273 13 304 30 304 c 0
 51 304 83 256 83 236 c 0
 83 224 82 212 82 200 c 0
 82 176 87 127 102 108 c 0
 116 90 161 82 183 82 c 0
 274 82 431 161 431 257 c 1
 430 258 l 1
 419 263 405 263 393 263 c 0xbc
 335 263 282 231 225 231 c 0
 172 231 128 314 128 361 c 0
 128 470 242 500 330 500 c 0
 338 500 346 500 354 498 c 0
 374 492 402 452 402 431 c 0
 402 423 399 419 391 419 c 0
 326 419 248 415 208 356 c 0
 199 343 193 329 192 313 c 1xdc
 206 314 219 319 232 322 c 0
 271 332 310 344 350 344 c 0
 368 344 386 342 402 335 c 0
 452 314 494 249 494 195 c 0
 494 108 385 39 312 15 c 0
 284 6 255 1 225 1 c 0
 90 1 18 142 18 261 c 0xbc
EndSplineSet
EndChar

StartChar: Tutg.R
Encoding: 70572 70572 59
Width: 594
GlyphClass: 2
Flags: W
HStem: -6 81<326.42 437.188> 219 81<339.147 430.26> 419 81<232.786 395.876>
VStem: 17 64<135.091 266.54> 232 64<96.3269 220> 514 63<147.629 299.378>
LayerCount: 2
Fore
SplineSet
130 24 m 0
 64 71 17 150 17 232 c 0
 17 377 140 500 285 500 c 0
 336 500 402 483 444 454 c 0
 524 399 577 282 577 186 c 0
 577 109 554 47 481 12 c 0
 456 0 429 -6 402 -6 c 0
 305 -6 232 94 232 185 c 0
 232 255 299 300 364 300 c 0
 408 300 458 266 479 228 c 0
 483 220 488 210 488 201 c 0
 488 193 485 189 477 189 c 0
 465 189 446 219 405 219 c 0
 357 219 296 182 296 129 c 0
 296 121 298 96 303 90 c 0
 313 78 346 75 361 75 c 0
 383 75 407 82 427 91 c 0
 492 122 514 173 514 242 c 0
 514 287 499 351 463 381 c 0
 433 406 365 419 326 419 c 0
 198 419 81 304 81 175 c 0
 81 77 133 107 168 44 c 0
 172 36 177 26 177 17 c 0
 177 9 174 5 166 5 c 0
 159 5 136 20 130 24 c 0
EndSplineSet
EndChar

StartChar: Tutg.S
Encoding: 70577 70577 60
Width: 753
GlyphClass: 2
Flags: W
HStem: -1 81<430.741 566.193> 417 81<122.755 197.521 375.732 453.779>
VStem: 17 63<305.147 409> 494 64<294.66 385.035> 673 63<196.556 371.206>
LayerCount: 2
Fore
SplineSet
83 248 m 0
 46 280 17 328 17 378 c 0
 17 440 72 498 135 498 c 0
 190 498 238 446 263 402 c 1
 286 451 333 498 390 498 c 0
 469 498 558 387 558 311 c 0
 558 223 477 152 430 84 c 1
 444 81 459 80 473 80 c 0
 572 80 640 139 664 233 c 0
 669 254 673 274 673 296 c 0
 673 328 669 388 649 414 c 0
 644 420 639 421 633 425 c 0
 617 436 595 467 595 487 c 0
 595 495 598 499 606 499 c 0
 614 499 634 485 641 479 c 0
 711 422 736 327 736 240 c 0
 736 108 657 -1 515 -1 c 0
 456 -1 404 10 370 63 c 0
 362 76 354 93 354 109 c 0
 354 178 494 268 494 367 c 0
 494 399 461 417 433 417 c 0
 382 417 335 365 319 320 c 0
 313 302 311 285 309 266 c 0
 308 258 307 254 298 254 c 0
 292 254 283 260 279 263 c 0
 250 287 249 310 240 344 c 0
 231 381 223 417 177 417 c 0
 131 417 80 367 80 321 c 0
 80 317 80 312 81 308 c 0
 97 294 119 269 119 246 c 0
 119 238 116 234 108 234 c 0
 100 234 88 243 83 248 c 0
EndSplineSet
EndChar

StartChar: Tutg.T
Encoding: 70561 70561 61
Width: 811
GlyphClass: 2
Flags: W
HStem: 1 81<345.382 428.887> 423 81<201.144 338.839 533.194 652.211>
VStem: 17 64<149.863 308.01> 271 63<87.2126 200.744> 459 63<114.967 263.796> 730 64<170.529 355.763>
LayerCount: 2
Fore
SplineSet
124 23 m 0
 53 86 17 177 17 271 c 0
 17 407 121 504 258 504 c 0
 313 504 363 474 405 430 c 1
 451 472 508 500 570 500 c 0
 703 500 794 378 794 252 c 0
 794 178 773 71 724 13 c 0
 718 6 708 -7 697 -7 c 0
 676 -7 644 41 644 61 c 0
 644 74 654 75 662 83 c 0
 670 91 676 102 682 112 c 0
 716 170 730 241 730 308 c 0
 730 338 725 382 698 399 c 0
 674 414 640 420 612 420 c 0
 559 420 506 393 461 352 c 1
 499 285 522 208 522 149 c 0
 522 75 501 1 413 1 c 0
 348 1 296 56 278 115 c 0
 273 133 271 152 271 171 c 0
 271 248 324 343 373 399 c 1
 352 414 328 423 299 423 c 0
 179 423 81 336 81 215 c 0
 81 179 86 124 110 95 c 0
 119 84 131 76 141 67 c 0
 155 55 173 29 173 10 c 0
 173 2 170 -2 162 -2 c 0
 153 -2 131 17 124 23 c 0
459 205 m 0
 459 242 450 285 432 323 c 1
 374 259 334 173 334 103 c 0
 334 98 335 94 336 89 c 1
 346 85 361 82 372 82 c 0
 443 82 459 147 459 205 c 0
EndSplineSet
EndChar

StartChar: Tutg.Uml.U
Encoding: 70587 70587 62
Width: 8
GlyphClass: 2
Flags: W
HStem: -198 81<-196.175 -121.88> -36 81<-156.296 -100.039>
VStem: -261 64<-114.778 -72.8783> -99 64<-95.2075 -38.754>
LayerCount: 2
Fore
SplineSet
-261 -66 m 0
 -261 0 -198 45 -136 45 c 0
 -71 45 -35 -33 -35 -89 c 0
 -35 -156 -69 -198 -135 -198 c 0
 -200 -198 -261 -126 -261 -66 c 0
-197 -114 m 1
 -190 -116 -183 -117 -176 -117 c 0
 -128 -117 -99 -83 -99 -36 c 1
 -137 -36 -194 -73 -197 -114 c 1
EndSplineSet
EndChar

StartChar: Tutg.V
Encoding: 70574 70574 63
Width: 711
GlyphClass: 2
Flags: W
HStem: 0 21G<114.5 138> 2 81<381.069 496.271> 418 81<201.587 317.321>
VStem: 17 64<145.158 295.047> 360 63<208.619 379.744> 631 63<207.152 347.632>
LayerCount: 2
Fore
SplineSet
17 256 m 0xbc
 17 351 68 438 155 479 c 0
 181 491 209 499 238 499 c 0
 349 499 423 385 423 283 c 0
 423 213 406 148 381 83 c 1
 448 87 537 105 582 159 c 0
 613 197 631 263 631 311 c 0
 631 336 625 363 608 382 c 0
 575 420 532 407 503 458 c 0
 498 467 493 478 493 488 c 0
 493 496 496 500 504 500 c 0
 511 500 540 487 547 483 c 0
 627 441 694 346 694 254 c 0
 694 200 677 128 642 86 c 0
 593 28 496 2 423 2 c 0x7c
 402 2 349 3 332 13 c 0
 314 24 289 56 289 78 c 0
 289 84 321 155 326 169 c 0
 345 224 360 281 360 340 c 0
 360 400 341 418 281 418 c 0
 253 418 223 408 199 395 c 0
 126 356 81 283 81 200 c 0
 81 164 90 125 106 93 c 0
 115 74 145 30 145 12 c 0
 145 4 142 0 134 0 c 0
 95 0 38 140 29 174 c 0
 22 201 17 228 17 256 c 0xbc
EndSplineSet
EndChar

StartChar: Tutg.Dd
Encoding: 70558 70558 64
Width: 709
GlyphClass: 2
Flags: W
HStem: 0 80<144.161 274.097 458.418 555.595> 420 81<93.2512 157.708>
VStem: 17 80<319 430> 17 63<357.1 407.125> 177 63<323.428 408> 367 63<190.375 415.295> 628 64<162.858 349.556>
LayerCount: 2
Fore
SplineSet
17 430 m 0xee
 17 473 57 501 97 501 c 0xee
 166 501 240 410 240 344 c 0
 240 256 161 171 143 85 c 1
 159 82 176 80 192 80 c 0
 323 80 367 203 367 314 c 0
 367 349 360 384 353 418 c 0
 350 434 345 449 345 465 c 0
 345 473 348 477 356 477 c 0
 375 477 402 437 407 420 c 0
 411 405 412 390 415 375 c 0
 422 336 430 298 430 258 c 0
 430 249 430 240 429 230 c 0
 431 223 430 215 430 208 c 0
 430 184 433 106 446 90 c 0
 450 85 472 81 479 81 c 0
 595 81 628 184 628 281 c 0
 628 319 621 374 599 406 c 0
 592 417 582 424 573 432 c 0
 559 444 541 470 541 489 c 0
 541 497 544 501 552 501 c 0
 561 501 582 483 589 477 c 0
 658 411 692 319 692 224 c 0
 692 157 672 61 612 22 c 0
 587 5 551 0 521 0 c 0
 465 0 419 51 397 98 c 1
 367 40 316 0 234 0 c 0
 175 0 132 13 99 64 c 0
 86 85 78 106 78 131 c 0
 78 211 177 319 177 401 c 0
 177 403 176 406 176 408 c 2
 168 415 l 2
 164 415 152 420 139 420 c 0
 110 420 87 401 80 374 c 1
 80 373 l 2xde
 80 370 80 359 81 357 c 0
 86 343 97 335 97 319 c 0
 97 311 94 307 86 307 c 0
 78 307 68 313 62 318 c 0
 29 345 17 389 17 430 c 0xee
EndSplineSet
EndChar

StartChar: Tutg.Ss
Encoding: 70576 70576 65
Width: 912
GlyphClass: 2
Flags: W
HStem: 0 21G<140 148 343.5 356> 326 81<212.876 358.849> 408 81<665.506 761.722>
VStem: 17 64<110.152 208.358> 441 63<185.523 269.41> 590 64<333.34 443.5>
LayerCount: 2
Fore
SplineSet
17 198 m 0
 17 293 109 370 193 396 c 0
 218 404 244 407 270 407 c 0
 378 407 504 303 504 191 c 0
 504 152 482 112 454 79 c 1
 473 78 492 77 511 77 c 1
 564 137 615 198 664 260 c 1
 624 301 590 358 590 416 c 0
 590 471 644 489 690 489 c 0
 742 489 784 469 812 425 c 0
 821 411 829 393 829 376 c 0
 829 321 806 280 771 240 c 1
 821 211 895 161 895 94 c 0
 895 66 867 38 844 26 c 0
 787 -4 654 -4 588 -4 c 0
 580 -4 572 -4 563 -4 c 1
 541 -29 372 -212 344 -212 c 0
 323 -212 291 -164 291 -144 c 0
 291 -142 292 -137 293 -135 c 0
 299 -127 311 -121 319 -114 c 0
 362 -80 401 -40 439 0 c 1
 419 1 398 1 377 1 c 2
 361 1 l 2
 359 0 357 0 355 0 c 0
 332 0 301 48 301 69 c 0
 301 77 306 80 312 81 c 1
 311 82 l 1
 361 108 441 189 441 248 c 0
 441 256 441 264 438 272 c 0
 436 276 429 283 425 286 c 0
 395 313 351 326 311 326 c 0
 227 326 139 277 99 203 c 0
 89 184 81 164 81 142 c 0
 81 75 123 86 148 35 c 0
 151 28 155 20 155 12 c 0
 155 4 152 0 144 0 c 0
 136 0 117 15 111 20 c 0
 59 65 17 127 17 198 c 0
730 194 m 0
 698 155 666 117 634 78 c 1
 688 81 745 87 781 101 c 0
 798 108 822 125 829 143 c 1
 797 164 766 182 737 202 c 1
 734 199 732 197 730 194 c 0
731 408 m 0
 703 408 654 396 654 360 c 0
 654 327 668 312 691 293 c 1
 709 313 728 331 742 354 c 0
 752 370 758 386 762 405 c 1
 752 407 741 408 731 408 c 0
EndSplineSet
EndChar

StartChar: Tutg.Y
Encoding: 70571 70571 66
Width: 843
GlyphClass: 2
Flags: W
HStem: -4 81<135.745 328.78 524.302 662.633> 211 81<86.8194 192.298> 421 81<258.745 401.924>
VStem: 17 63<108 173.437> 156 63<319.154 385.141> 501 64<225.905 343.77> 763 63<172.537 322.062>
LayerCount: 2
Fore
SplineSet
38 102 m 0
 26 123 17 146 17 171 c 0
 17 224 59 292 117 292 c 0
 198 292 292 199 403 136 c 1
 455 174 501 242 501 309 c 0
 501 333 499 351 484 370 c 0
 459 401 386 421 347 421 c 0
 295 421 219 399 219 335 c 0
 219 325 222 317 222 307 c 0
 222 299 219 295 211 295 c 0
 206 295 196 301 192 304 c 0
 164 328 156 356 156 392 c 0
 156 475 235 502 305 502 c 0
 435 502 565 385 565 252 c 0
 565 197 536 135 499 94 c 1
 526 87 553 82 582 82 c 0
 693 82 763 159 763 268 c 0
 763 298 756 351 733 372 c 0
 726 378 717 381 710 387 c 0
 694 399 672 428 672 449 c 0
 672 457 675 461 683 461 c 0
 690 461 710 447 716 443 c 0
 786 393 826 296 826 212 c 0
 826 87 752 1 624 1 c 0
 561 1 502 22 447 51 c 1
 388 13 316 -4 244 -4 c 0
 163 -4 80 29 38 102 c 0
160 211 m 0
 118 211 80 153 80 114 c 1
 81 108 l 1
 112 85 164 77 202 77 c 0
 253 77 306 87 352 108 c 1
 275 160 209 211 160 211 c 0
EndSplineSet
EndChar

StartChar: z
Encoding: 122 122 67
Width: 1251
GlyphClass: 2
Flags: W
HStem: -179 81<353.398 841.996> -162 81<-39.1845 337.602> 8 81<99.4801 184.401 550.451 609.5> 417 81<167.842 278.467 447.19 576.133 711.332 803.859 993.624 1092.24>
VStem: 196 64<58 165.298> 303 62<183.496 308.892> 471 63<104.36 226.272> 638 63<163.526 336.359> 823 69<189.841 297.188> 823 62<189.496 234.776> 1171 63<99.1046 300.411>
LayerCount: 2
Fore
SplineSet
-76 -217 m 0x7fa0
 -97 -217 -129 -169 -129 -149 c 0
 -129 -142 -125 -134 -121 -128 c 0
 -89 -82 21 -81 72 -81 c 0x7fa0
 241 -81 409 -98 578 -98 c 0
 751 -98 1055 -89 1145 90 c 0
 1165 128 1171 174 1171 216 c 0
 1171 259 1159 346 1135 381 c 0
 1118 407 1093 417 1063 417 c 0
 973 417 907 314 892 236 c 0xbfa0
 891 210 888 176 885 170 c 0xbf60
 883 167 880 167 876 167 c 0
 855 167 823 215 823 235 c 0
 823 258 825 281 829 303 c 0
 830 310 830 317 830 324 c 0
 830 338 826 402 817 409 c 0
 809 415 792 417 783 417 c 0
 744 417 704 394 673 371 c 1
 692 326 701 276 701 231 c 0
 701 170 686 82 646 34 c 0
 634 20 619 8 600 8 c 0
 551 8 503 78 486 119 c 0
 476 143 471 168 471 194 c 0
 471 278 520 357 577 414 c 1
 559 418 540 418 525 418 c 0
 420 418 382 330 371 238 c 0
 370 209 368 168 365 164 c 0
 363 161 360 161 356 161 c 0
 335 161 303 209 303 229 c 0
 303 256 305 285 309 314 c 0
 309 337 309 360 304 383 c 0
 302 391 298 398 296 406 c 1
 279 420 254 421 233 421 c 0
 167 421 123 350 102 296 c 1
 180 285 260 158 260 86 c 0
 260 30 219 6 167 6 c 0
 95 6 44 78 26 140 c 0
 18 166 15 194 15 221 c 0
 15 320 66 502 190 502 c 0
 257 502 308 465 338 412 c 1
 364 463 409 499 481 499 c 0
 537 499 578 490 619 451 c 1
 657 479 699 498 741 498 c 0
 797 498 842 450 867 399 c 1
 901 454 955 498 1021 498 c 0
 1055 498 1087 483 1113 462 c 0
 1197 394 1234 265 1234 160 c 0
 1234 107 1225 49 1196 3 c 0
 1088 -171 802 -179 619 -179 c 0xbfa0
 450 -179 282 -162 113 -162 c 0
 72 -162 -2 -165 -38 -183 c 0
 -45 -187 -54 -192 -59 -198 c 0
 -64 -205 -65 -217 -76 -217 c 0x7fa0
534 138 m 0
 534 123 535 89 555 89 c 0
 565 89 573 95 580 101 c 0
 621 138 638 235 638 288 c 0
 638 303 637 321 634 337 c 1
 579 283 534 208 534 138 c 0
88 170 m 0
 86 163 83 148 79 139 c 1
 82 119 86 96 95 91 c 0
 102 88 115 86 123 86 c 0
 158 86 196 103 196 143 c 0
 196 175 172 215 136 215 c 0
 112 215 95 190 88 170 c 0
EndSplineSet
EndChar

StartChar: Tutg.A
Encoding: 70528 70528 68
Width: 1115
GlyphClass: 3
Flags: W
HStem: 0 81<418.386 484.467 825.577 947.435> 110 93<86.7219 151.512> 185 81<842.95 920.363> 318 81<91.7541 190.254> 421 81<488.573 593.906 787.424 926.363>
VStem: 202 64<245.949 309.718> 497 63<51 145.805> 628 68<220.856 277.988> 749 64<82.4594 154.193> 1035 63<175.978 318.758>
LayerCount: 2
Fore
SplineSet
70 266 m 0xbfc0
 46 266 17 317 17 339 c 0
 17 383 84 399 118 399 c 0
 205 399 263 315 266 234 c 1
 288 239 311 243 333 245 c 1
 337 361 384 502 519 502 c 0
 588 502 646 450 669 387 c 1
 699 467 736 500 824 500 c 0
 866 500 909 491 946 471 c 0
 1036 423 1098 315 1098 213 c 0
 1098 101 1029 -1 909 -1 c 0
 889 -1 870 1 852 8 c 0
 796 28 749 96 749 155 c 0
 749 215 793 266 855 266 c 0xbfc0
 913 266 973 207 1007 163 c 1
 1025 195 1035 232 1035 270 c 0
 1035 378 966 419 865 419 c 0
 733 419 736 310 696 216 c 0
 693 208 692 199 681 199 c 0
 658 199 628 248 628 271 c 0
 628 306 629 379 614 409 c 1
 595 418 582 421 561 421 c 0
 465 421 419 331 403 244 c 1
 421 242 440 239 451 234 c 0
 502 213 560 132 560 76 c 0
 560 26 521 0 474 0 c 0
 402 0 354 100 341 158 c 1
 322 155 304 151 286 146 c 0
 231 131 175 110 117 110 c 0
 96 110 64 158 64 178 c 0
 64 182 65 187 68 189 c 0
 71 191 99 201 105 203 c 0xdfc0
 141 217 202 244 202 290 c 0
 202 297 201 304 200 310 c 1
 187 316 174 318 160 318 c 0
 136 318 106 310 88 293 c 0
 74 280 87 266 70 266 c 0xbfc0
896 185 m 0
 848 185 813 141 813 96 c 0
 813 94 814 91 814 89 c 0
 829 81 850 80 867 80 c 0
 915 80 955 100 983 131 c 1
 962 156 934 185 896 185 c 0
455 162 m 0
 436 165 417 165 397 165 c 1
 398 138 400 109 412 85 c 1
 418 82 425 81 432 81 c 0
 461 81 497 100 497 133 c 0
 497 157 473 159 455 162 c 0
EndSplineSet
Ligature2: "'liga' +BCEEQgQwBD0ENAQwBEAEQgQ9BEsENQAA +BDsEOAQzBDAEQgRDBEAESwAA in Latin lookup 0 subtable" Tutg.Uml.Vir Tutg.Uml.Vir
LCarets2: 1 0
EndChar

StartChar: Tutg.Aa
Encoding: 70529 70529 69
Width: 1115
GlyphClass: 3
Flags: W
HStem: -160 81<167.935 913.93> 0 81<418.137 484.467 830.069 948.241> 110 93<86.7219 151.512> 195 81<856.612 925.882> 318 81<91.7541 188.379> 421 81<488.473 593.738 787.424 926.363>
VStem: 202 64<245.949 309.718> 497 63<51 145.805> 628 68<220.856 277.977> 758 63<83.0634 156.141> 1035 63<174.689 318.758>
LayerCount: 2
Fore
SplineSet
70 266 m 0xefe0
 45 266 17 317 17 339 c 0
 17 383 84 399 118 399 c 0
 205 399 263 314 266 234 c 1
 288 239 311 243 333 245 c 1
 337 361 383 502 519 502 c 0
 588 502 646 450 669 387 c 1
 699 467 736 500 824 500 c 0
 866 500 909 491 946 471 c 0
 1036 423 1098 315 1098 213 c 0
 1098 161 1083 111 1056 73 c 1
 1067 41 1074 12 1074 -12 c 0
 1074 -174 797 -166 687 -166 c 0
 585 -166 484 -160 382 -160 c 0
 315 -160 221 -162 158 -184 c 0
 139 -191 115 -203 104 -220 c 0
 99 -228 98 -243 86 -243 c 0
 65 -243 33 -195 33 -175 c 0
 33 -165 41 -151 47 -143 c 0
 95 -80 255 -79 329 -79 c 0
 442 -79 556 -85 669 -85 c 0
 753 -85 989 -85 1010 28 c 1
 982 10 949 -1 910 -1 c 0
 891 -1 871 2 853 9 c 0
 798 32 758 95 758 154 c 0
 758 210 801 276 862 276 c 0xdfe0
 915 276 969 227 1009 166 c 1
 1026 197 1035 233 1035 270 c 0
 1035 378 966 419 865 419 c 0
 733 419 736 310 696 216 c 0
 693 208 692 199 681 199 c 0
 658 199 628 248 628 271 c 0
 628 306 629 378 614 409 c 1
 596 418 582 421 561 421 c 0
 465 421 419 331 403 244 c 1
 421 242 440 239 451 234 c 0
 502 213 560 132 560 76 c 0
 560 26 521 0 474 0 c 0
 402 0 353 100 340 158 c 1
 322 155 304 151 286 146 c 0
 231 131 175 110 117 110 c 0
 96 110 64 158 64 178 c 0
 64 182 65 187 68 189 c 0
 71 191 99 201 105 203 c 0
 141 217 202 244 202 290 c 0
 202 297 201 304 200 310 c 1
 187 316 174 318 160 318 c 0
 136 318 106 310 88 293 c 0
 74 280 87 266 70 266 c 0xefe0
821 92 m 0
 821 90 822 89 822 87 c 0
 836 82 852 80 867 80 c 0
 915 80 955 100 983 131 c 1
 967 163 945 195 905 195 c 0
 856 195 821 136 821 92 c 0
455 162 m 0
 436 165 417 165 397 165 c 1
 398 138 400 109 412 85 c 1
 418 82 425 81 432 81 c 0
 461 81 497 100 497 133 c 0
 497 157 473 159 455 162 c 0
EndSplineSet
LCarets2: 1 0
Ligature2: "'liga' +BCEEQgQwBD0ENAQwBEAEQgQ9BEsENQAA +BDsEOAQzBDAEQgRDBEAESwAA in Latin lookup 0 subtable" Tutg.Uml.Vir Tutg.Uml.Aa
EndChar

StartChar: Tutg.I
Encoding: 70530 70530 70
Width: 818
GlyphClass: 3
Flags: W
HStem: -14 82<541.437 777.237> -1 80<412.564 764.812> 157 81<114.021 229.418> 415 81<194.366 302.144 439.669 557.595>
VStem: 17 64<251.006 294.438> 237 63<248.916 284.565> 593 63<278.047 386.093>
LayerCount: 2
Fore
SplineSet
38 251 m 0x7e
 27 270 17 292 17 315 c 0
 17 406 143 496 228 496 c 0
 281 496 321 468 352 426 c 1
 375 478 416 500 471 500 c 0
 578 500 656 394 656 293 c 0
 656 261 647 229 630 202 c 0
 562 91 466 142 399 83 c 1
 440 80 481 79 522 79 c 0x7e
 570 79 708 84 747 68 c 0
 772 58 801 26 801 -2 c 0
 801 -10 798 -14 790 -14 c 0xbe
 788 -14 764 -7 756 -6 c 0
 724 -2 691 -1 659 -1 c 0
 595 -1 419 -9 368 19 c 0
 340 34 310 73 310 106 c 0
 310 118 318 128 324 137 c 0
 387 231 501 164 570 276 c 0
 584 298 593 324 593 350 c 0
 593 363 590 385 584 397 c 0
 578 409 525 419 512 419 c 0
 429 419 400 352 400 281 c 0
 400 271 400 266 389 266 c 0
 382 266 370 275 365 280 c 0
 328 316 341 344 328 387 c 0
 327 390 325 399 323 401 c 0
 314 412 284 415 270 415 c 0
 241 415 202 400 168 378 c 1
 227 356 300 287 300 219 c 0
 300 171 249 157 210 157 c 0
 138 157 75 188 38 251 c 0x7e
90 295 m 1
 84 283 81 271 81 259 c 1
 107 244 137 238 167 238 c 0
 188 238 237 248 237 276 c 2
 237 278 l 1
 214 298 174 309 144 309 c 0
 133 309 120 308 110 304 c 0
 103 301 96 297 90 295 c 1
EndSplineSet
LCarets2: 1 0
Ligature2: "'liga' +BCEEQgQwBD0ENAQwBEAEQgQ9BEsENQAA +BDsEOAQzBDAEQgRDBEAESwAA in Latin lookup 0 subtable" Tutg.Uml.Vir Tutg.Uml.I
EndChar

StartChar: Tutg.Ii
Encoding: 70531 70531 71
Width: 1068
GlyphClass: 3
Flags: W
HStem: -1 80<449.39 754.263> 157 81<114.021 229.418> 415 81<194.366 302.144 440.94 557.595> 448 81<726.5 797.281 893.5 968.084>
VStem: 17 64<251.006 294.438> 237 63<248.916 284.565> 593 63<278.047 386.093> 689 64<396.195 494> 987 64<312.076 426.657>
LayerCount: 2
Fore
SplineSet
17 315 m 0xef80
 17 406 143 496 228 496 c 0
 281 496 321 468 352 426 c 1
 375 478 416 500 471 500 c 0
 578 500 656 394 656 293 c 0
 656 261 647 229 630 202 c 0
 562 91 458 139 401 84 c 1
 437 79 473 79 509 79 c 0
 572 79 786 86 830 68 c 0
 855 58 885 26 885 -2 c 0
 885 -10 882 -14 874 -14 c 0
 873 -14 868 -12 867 -12 c 0
 856 -8 845 -6 833 -5 c 0
 786 -1 740 -1 693 -1 c 0
 624 -1 432 -7 375 17 c 0
 343 30 310 70 310 106 c 0
 310 118 318 128 324 137 c 0
 387 230 501 164 570 276 c 0
 584 298 593 324 593 350 c 0
 593 363 590 385 584 397 c 0
 578 409 525 419 512 419 c 0
 460 419 421 389 407 339 c 0
 403 325 399 270 398 269 c 0
 396 266 393 266 389 266 c 0
 382 266 370 275 365 280 c 0
 328 316 341 344 328 387 c 0
 327 390 325 399 323 401 c 0
 314 412 284 415 270 415 c 0
 241 415 202 400 168 378 c 1
 227 356 300 287 300 219 c 0
 300 171 249 157 210 157 c 0
 138 157 75 188 38 251 c 0
 27 270 17 292 17 315 c 0xef80
689 476 m 0
 689 512 709 529 744 529 c 0
 781 529 817 506 836 474 c 1
 852 503 876 529 911 529 c 0
 987 529 1051 414 1051 343 c 0
 1051 198 967 179 847 148 c 0
 830 144 812 140 795 134 c 0
 785 130 764 122 758 113 c 0
 753 105 756 93 743 93 c 0
 722 93 690 141 690 161 c 0
 690 249 926 207 976 329 c 0
 985 350 987 376 987 399 c 0
 987 423 985 448 955 448 c 0
 895 448 876 332 849 332 c 0
 828 332 796 380 796 400 c 0
 796 414 798 428 798 442 c 2
 798 447 l 1
 794 448 789 448 785 448 c 0xdf80
 767 448 753 438 753 419 c 0
 753 387 779 367 779 343 c 0
 779 335 776 331 768 331 c 0
 763 331 755 336 751 339 c 0
 719 364 689 435 689 476 c 0
90 295 m 1
 84 283 81 271 81 259 c 1
 107 244 137 238 167 238 c 0
 188 238 237 248 237 276 c 2
 237 278 l 1
 214 298 174 309 144 309 c 0
 133 309 121 307 110 304 c 0
 103 301 96 297 90 295 c 1
EndSplineSet
Ligature2: "'liga' +BCEEQgQwBD0ENAQwBEAEQgQ9BEsENQAA +BDsEOAQzBDAEQgRDBEAESwAA in Latin lookup 0 subtable" Tutg.Uml.Vir Tutg.Uml.Ii
EndChar

StartChar: Tutg.U
Encoding: 70532 70532 72
Width: 534
GlyphClass: 3
Flags: W
HStem: -2 81<236.029 496.353> 237 81<80.743 147.555> 421 81<142.253 246.582>
VStem: 17 63<318.967 382.11> 154 63<276.5 381.573> 294 63<270.009 374.49>
LayerCount: 2
Fore
SplineSet
17 374 m 0
 17 462 76 502 159 502 c 0
 252 502 312 441 342 358 c 0
 350 335 357 310 357 286 c 0
 357 213 325 179 275 132 c 0
 260 118 245 105 234 88 c 1
 274 81 314 79 355 79 c 0
 392 79 427 81 464 81 c 0
 485 81 517 33 517 13 c 0
 517 9 516 5 513 2 c 0
 510 -1 409 -2 396 -2 c 0
 348 -2 274 -2 232 21 c 0
 199 39 165 88 165 127 c 0
 165 202 294 227 294 342 c 0
 294 362 287 381 279 399 c 1
 258 414 226 421 200 421 c 0
 191 421 182 420 174 419 c 1
 199 381 217 335 217 301 c 0
 217 252 180 237 137 237 c 0
 74 237 17 315 17 374 c 0
115 395 m 0
 94 379 80 354 80 320 c 1
 85 319 90 318 95 318 c 0
 119 318 154 328 154 358 c 0
 154 373 146 394 137 406 c 1
 135 406 l 2
 133 406 132 406 129 404 c 0
 124 401 122 396 115 395 c 0
EndSplineSet
Ligature2: "'liga' +BCEEQgQwBD0ENAQwBEAEQgQ9BEsENQAA +BDsEOAQzBDAEQgRDBEAESwAA in Latin lookup 0 subtable" Tutg.Uml.Vir Tutg.Uml.U
EndChar

StartChar: Tutg.Uu
Encoding: 70533 70533 73
Width: 542
GlyphClass: 3
Flags: W
HStem: -273 81<345.576 433.893> -173 81<318.438 397> 2 79<471 494.278> 237 81<80.743 147.555> 421 81<142.253 246.582>
VStem: 17 63<318.967 382.11> 154 63<276.5 381.573> 238 80<-92 -44.8679> 294 63<270.009 374.49> 377 63<-79.5848 -22.6563> 465 64<-162.286 -63.7529>
LayerCount: 2
Fore
SplineSet
137 237 m 0xfee0
 74 237 17 315 17 374 c 0
 17 462 76 502 159 502 c 0
 252 502 312 441 342 358 c 0
 350 335 357 310 357 286 c 0xfee0
 357 213 325 179 275 132 c 0
 260 118 245 105 234 88 c 1
 274 81 314 79 355 79 c 0
 392 79 427 81 464 81 c 0
 485 81 517 33 517 13 c 0
 517 9 516 5 513 2 c 0
 512 1 493 0 471 -1 c 1
 506 -46 529 -106 529 -159 c 0
 529 -227 483 -273 415 -273 c 0
 326 -273 238 -161 238 -76 c 0xff60
 238 -42 246 -16 263 9 c 1
 227 19 205 36 185 68 c 0
 175 84 165 108 165 127 c 0
 165 202 294 227 294 342 c 0
 294 362 287 381 279 399 c 1
 258 414 226 421 200 421 c 0
 191 421 182 420 174 419 c 1
 199 381 217 335 217 301 c 0
 217 252 180 237 137 237 c 0xfee0
369 -173 m 0
 345 -173 321 -158 301 -137 c 1
 302 -146 306 -157 309 -165 c 1
 330 -183 345 -192 374 -192 c 0
 426 -192 465 -155 465 -103 c 0
 465 -75 458 -41 437 -22 c 1
 440 -36 440 -50 440 -67 c 0
 440 -113 425 -173 369 -173 c 0
115 395 m 0
 94 379 80 354 80 320 c 1
 85 319 90 318 95 318 c 0
 119 318 154 328 154 358 c 0
 154 373 146 394 137 406 c 1
 135 406 l 2
 133 406 132 406 129 404 c 0
 124 401 122 396 115 395 c 0
318 -91 m 2xff60
 321 -92 324 -92 327 -92 c 0
 364 -92 376 -47 377 -17 c 1
 347 -30 318 -63 318 -90 c 2
 318 -91 l 2xff60
EndSplineSet
Ligature2: "'liga' +BCEEQgQwBD0ENAQwBEAEQgQ9BEsENQAA +BDsEOAQzBDAEQgRDBEAESwAA in Latin lookup 0 subtable" Tutg.Uml.Vir Tutg.Uml.Uu
EndChar

StartChar: Tutg.VocR
Encoding: 70534 70534 74
Width: 575
GlyphClass: 3
Flags: W
HStem: -3 81<192.427 322.328> 422 80<98.6061 193.996 432.071 489.076>
VStem: 17 64<338.535 404.268> 205 64<368.622 419.108> 316 63<303.239 372.534> 360 63<110.022 157.217> 495 63<313.789 416.429>
LayerCount: 2
Fore
SplineSet
17 405 m 0xf6
 17 468 50 502 113 502 c 0
 173 502 222 472 251 420 c 0
 262 401 269 380 269 358 c 0
 269 334 259 313 244 296 c 1
 280 286 313 273 343 249 c 1
 353 252 362 255 372 258 c 1
 340 290 316 332 316 376 c 0xfa
 316 439 376 499 439 499 c 0
 493 499 539 433 551 386 c 0
 556 365 558 343 558 322 c 0
 558 300 556 273 544 254 c 0
 519 215 463 191 403 171 c 1
 414 147 423 120 423 95 c 0
 423 18 330 -3 269 -3 c 0
 247 -3 222 0 202 10 c 0
 168 27 127 94 127 132 c 0
 127 180 185 203 255 224 c 1
 220 233 184 240 150 252 c 1
 150 252 149 252 148 253 c 0
 84 275 17 331 17 405 c 0xf6
426 280 m 1
 480 308 495 330 495 389 c 0
 495 398 494 408 492 417 c 0
 488 418 485 418 481 418 c 0
 436 418 379 365 379 319 c 0
 379 315 380 311 380 307 c 0
 393 291 409 288 426 280 c 1
155 422 m 0
 109 422 81 396 81 349 c 2
 81 347 l 1
 91 341 102 336 112 332 c 1
 120 334 131 337 135 338 c 0
 165 348 204 378 205 413 c 1
 189 419 172 422 155 422 c 0
192 81 m 1
 204 79 216 78 228 78 c 0
 271 78 360 96 360 152 c 0
 360 154 360 156 360 158 c 1xf6
 278 134 201 115 192 81 c 1
EndSplineSet
Ligature2: "'liga' +BCEEQgQwBD0ENAQwBEAEQgQ9BEsENQAA +BDsEOAQzBDAEQgRDBEAESwAA in Latin lookup 0 subtable" Tutg.Uml.Vir Tutg.Uml.VocR
EndChar

StartChar: Tutg.E
Encoding: 1114126 -1 75
Width: 788
GlyphClass: 3
Flags: W
HStem: 0 81<421.075 484.625> 110 93<86.7219 151.512> 318 81<91.6717 190.254> 417 81<509.726 638.746>
VStem: 202 64<245.949 309.718> 350 59<86.1386 160> 497 63<51 145.805> 716 64<133.934 335.794>
LayerCount: 2
Fore
SplineSet
70 266 m 0
 46 266 17 317 17 339 c 0
 17 383 84 399 118 399 c 0
 205 399 263 315 266 234 c 1
 293 240 320 244 347 245 c 1
 355 338 398 457 486 490 c 0
 505 497 525 498 545 498 c 0
 693 498 780 357 780 221 c 0
 780 156 767 95 746 34 c 0
 743 25 739 5 727 5 c 0
 706 5 674 53 674 73 c 0
 674 79 694 131 697 142 c 0
 710 186 716 232 716 278 c 0
 716 306 711 351 696 375 c 0
 676 407 621 417 586 417 c 0
 567 417 547 415 529 407 c 0
 471 380 436 310 419 242 c 1
 432 240 443 237 451 234 c 0
 502 213 560 132 560 76 c 0
 560 26 521 0 474 0 c 0
 455 0 436 10 421 22 c 0
 379 56 358 107 350 160 c 1
 328 157 307 152 286 146 c 0
 231 131 175 110 117 110 c 0
 96 110 64 158 64 178 c 0
 64 182 65 187 68 189 c 0
 71 191 99 201 105 203 c 0
 141 217 202 244 202 290 c 0
 202 297 201 304 200 310 c 1
 187 316 174 318 160 318 c 0
 136 318 105 310 88 293 c 0
 74 280 87 266 70 266 c 0
409 165 m 1
 409 162 409 160 409 157 c 0
 409 134 410 105 419 83 c 0
 423 81 428 81 433 81 c 0
 462 81 497 100 497 133 c 0
 497 157 473 159 455 162 c 0
 440 164 426 165 409 165 c 1
EndSplineSet
Ligature2: "'liga' +BCEEQgQwBD0ENAQwBEAEQgQ9BEsENQAA +BDsEOAQzBDAEQgRDBEAESwAA in Latin lookup 0 subtable" Tutg.Uml.Ee Tutg.Uml.Vir
EndChar

StartChar: Tutg.Ee
Encoding: 70539 70539 76
Width: 799
GlyphClass: 3
Flags: W
HStem: -131 81<-171.167 550.644> 0 81<421.075 484.625> 110 93<86.7219 151.512> 318 81<91.7541 190.254> 417 81<508.189 636.535>
VStem: 202 64<245.949 309.718> 350 59<86.1386 160> 497 63<51 145.805> 716 63<117.314 335.642>
LayerCount: 2
Fore
SplineSet
-301 -146 m 0
 -301 -138 -294 -124 -289 -117 c 0
 -243 -50 -76 -50 -2 -50 c 0
 101 -50 204 -55 306 -55 c 0
 397 -55 589 -55 652 17 c 0
 694 63 716 212 716 272 c 0
 716 302 709 360 689 383 c 0
 666 408 620 417 588 417 c 0
 568 417 547 415 529 407 c 0
 471 381 436 310 419 242 c 1
 432 240 443 237 451 234 c 0
 502 213 560 132 560 76 c 0
 560 26 521 0 474 0 c 0
 455 0 436 10 421 22 c 0
 379 56 358 107 350 160 c 1
 328 157 307 152 286 146 c 0
 231 131 175 110 117 110 c 0
 96 110 64 158 64 178 c 0
 64 182 65 187 68 189 c 0
 71 191 99 201 105 203 c 0
 141 217 202 244 202 290 c 0
 202 297 201 304 200 310 c 1
 187 316 174 318 160 318 c 0
 136 318 106 310 88 293 c 0
 74 280 87 266 70 266 c 0
 45 266 17 317 17 339 c 0
 17 383 84 399 118 399 c 0
 205 399 263 315 266 234 c 1
 293 240 320 244 347 245 c 1
 355 338 398 458 486 490 c 0
 505 497 526 498 546 498 c 0
 696 498 779 351 779 216 c 0
 779 149 758 -5 712 -57 c 0
 644 -136 449 -136 351 -136 c 0
 253 -136 155 -131 57 -131 c 0
 -12 -131 -103 -131 -169 -152 c 0
 -192 -159 -219 -172 -232 -194 c 0
 -237 -203 -235 -214 -248 -214 c 0
 -269 -214 -301 -166 -301 -146 c 0
409 165 m 1
 409 162 409 160 409 157 c 0
 409 134 410 105 419 83 c 0
 423 81 428 81 433 81 c 0
 462 81 497 100 497 133 c 0
 497 157 473 159 455 162 c 0
 440 164 426 165 409 165 c 1
EndSplineSet
Ligature2: "'liga' +BCEEQgQwBD0ENAQwBEAEQgQ9BEsENQAA +BDsEOAQzBDAEQgRDBEAESwAA in Latin lookup 0 subtable" F Tutg.Uml.Vir
Ligature2: "'liga' +BCEEQgQwBD0ENAQwBEAEQgQ9BEsENQAA +BDsEOAQzBDAEQgRDBEAESwAA in Latin lookup 0 subtable" E Tutg.Uml.Vir
EndChar

StartChar: Tutg.Ai
Encoding: 70542 70542 77
Width: 1170
GlyphClass: 3
Flags: W
HStem: -131 81<206.833 927.927> 0 81<799.075 862.625> 110 93<464.722 529.512> 252 81<92.5158 210.292> 318 81<469.754 566.379> 417 81<119.843 219.505 886.189 1014.92>
VStem: 17 64<335.52 382.197> 268 64<207.905 364.08> 580 64<245.949 309.718> 728 59<86.1386 160> 875 63<51 145.805> 1093 64<117.341 335.613>
LayerCount: 2
Fore
SplineSet
130 -214 m 0xeff0
 109 -214 77 -166 77 -146 c 0
 77 -138 84 -124 89 -117 c 0
 135 -50 302 -50 376 -50 c 0
 478 -50 581 -55 683 -55 c 0
 774 -55 966 -55 1030 17 c 0
 1071 62 1093 214 1093 272 c 0
 1093 300 1087 358 1070 380 c 0
 1047 408 1001 417 966 417 c 0
 946 417 925 415 907 407 c 0
 849 381 814 310 797 242 c 1
 810 240 821 237 829 234 c 0
 880 213 938 132 938 76 c 0
 938 26 899 0 852 0 c 0
 833 0 814 10 799 22 c 0
 757 56 736 107 728 160 c 1
 706 157 685 152 664 146 c 0
 609 131 553 110 495 110 c 0
 474 110 442 158 442 178 c 0
 442 182 443 187 446 189 c 0
 449 191 477 201 483 203 c 0
 519 217 580 244 580 290 c 0
 580 297 579 304 578 310 c 1
 565 316 552 318 538 318 c 0
 514 318 484 310 466 293 c 0
 452 280 465 266 448 266 c 0
 423 266 395 317 395 339 c 0
 395 383 462 399 496 399 c 0
 583 399 641 314 644 234 c 1
 671 240 698 244 725 245 c 1
 733 338 776 458 864 490 c 0
 883 497 904 498 924 498 c 0
 1074 498 1157 351 1157 216 c 0
 1157 147 1135 -2 1089 -57 c 0
 1021 -136 826 -136 728 -136 c 0
 630 -136 533 -131 435 -131 c 0
 366 -131 275 -131 209 -152 c 0
 186 -159 159 -172 146 -194 c 0
 141 -203 143 -214 130 -214 c 0xeff0
17 389 m 0
 17 458 83 498 146 498 c 0
 231 498 295 418 318 343 c 0
 329 308 332 271 332 234 c 0
 332 152 289 99 241 38 c 0
 234 29 223 9 212 9 c 0
 191 9 159 57 159 77 c 0
 159 99 268 186 268 291 c 0
 268 317 265 363 254 387 c 0
 243 411 212 417 188 417 c 0
 147 417 84 387 81 341 c 1
 95 335 111 333 126 333 c 0
 154 333 182 352 189 352 c 0
 210 352 242 304 242 284 c 0
 242 261 186 252 169 252 c 0xf7f0
 108 252 56 289 30 343 c 0
 23 358 17 373 17 389 c 0
787 165 m 1
 787 162 787 160 787 157 c 0
 787 134 788 105 797 83 c 0
 801 81 806 81 811 81 c 0
 840 81 875 100 875 133 c 0
 875 157 851 159 833 162 c 0
 818 164 804 165 787 165 c 1
EndSplineSet
Ligature2: "'liga' +BCEEQgQwBD0ENAQwBEAEQgQ9BEsENQAA +BDsEOAQzBDAEQgRDBEAESwAA in Latin lookup 0 subtable" Tutg.Uml.Ee Tutg.Uml.Ee Tutg.Uml.Vir
LCarets2: 2 0 0
EndChar

StartChar: e_A_a
Encoding: 1114127 -1 78
Width: 407
GlyphClass: 3
Flags: W
HStem: 0 81<129.166 262.519> 256 81<82.3232 142.777> 433 81<165.605 282.867>
VStem: 14 64<340.56 445> 323 63<132.46 173> 330 63<329.626 405.513>
LayerCount: 2
Fore
SplineSet
36 100 m 0xf8
 25 114 10 135 10 153 c 0
 10 161 13 165 21 165 c 0
 52 165 63 81 180 81 c 0
 227 81 286 105 312 145 c 0
 317 153 323 163 323 173 c 2xf8
 322 176 l 1
 310 183 296 189 285 197 c 0
 269 209 247 238 247 259 c 0
 247 261 248 266 249 268 c 0
 254 275 265 282 272 288 c 0
 300 314 330 351 330 390 c 0
 330 395 329 400 328 405 c 0
 305 426 263 433 233 433 c 0
 228 433 223 433 216 432 c 1
 225 415 230 396 230 379 c 0
 230 348 213 283 184 266 c 0
 170 258 153 256 137 256 c 0
 73 256 14 349 14 407 c 0
 14 483 131 514 190 514 c 0
 269 514 337 473 374 403 c 0
 385 382 393 358 393 334 c 0xf4
 393 291 369 248 338 220 c 1
 363 198 386 149 386 116 c 0
 386 42 287 0 224 0 c 0
 145 0 83 39 36 100 c 0xf8
78 350 m 0
 78 347 78 344 79 341 c 0
 84 339 90 337 96 337 c 0
 105 337 122 339 129 344 c 0
 149 357 161 397 166 419 c 1
 164 419 163 419 161 419 c 0
 119 406 78 382 78 350 c 0
EndSplineSet
Ligature2: "'liga' +BCEEQgQwBD0ENAQwBEAEQgQ9BEsENQAA +BDsEOAQzBDAEQgRDBEAESwAA in Latin lookup 0 subtable" Tutg.Uml.Ee Tutg.Uml.Vir Tutg.Uml.Aa
EndChar

StartChar: E_A_a
Encoding: 1114128 -1 79
Width: 412
GlyphClass: 3
Flags: W
HStem: 157 81<76 163.97> 256 81<87.3232 147.398> 430 81<222 275.97>
VStem: 19 64<85.0868 137.978 340.56 404.945> 172 62<79.8447 145.186> 329 64<73 190.228 303.812 396.878>
LayerCount: 2
Fore
SplineSet
142 256 m 0
 78 256 19 349 19 407 c 0
 19 422 24 437 32 449 c 0
 49 475 108 500 138 506 c 0
 156 510 174 511 192 511 c 0
 268 511 336 461 372 396 c 0
 384 374 393 349 393 323 c 0
 393 285 374 252 347 227 c 1
 372 195 393 155 393 114 c 0
 393 32 307 -17 233 -17 c 0
 156 -17 66 23 32 95 c 0
 25 110 19 127 19 144 c 0
 19 190 51 238 101 238 c 0
 118 238 135 234 150 226 c 0
 194 201 229 124 234 71 c 1
 282 85 329 121 329 171 c 0
 329 187 326 193 314 204 c 0
 309 209 302 213 296 218 c 0
 282 230 264 256 264 275 c 0
 264 277 265 282 266 284 c 0
 269 288 279 294 283 298 c 0
 307 317 329 348 329 380 c 0
 329 385 328 393 326 398 c 0
 314 422 247 430 222 430 c 1
 230 413 235 396 235 379 c 0
 235 348 218 283 189 266 c 0
 175 258 158 256 142 256 c 0
83 93 m 1
 97 85 111 79 125 74 c 1
 141 79 172 74 172 119 c 0
 172 125 168 150 164 154 c 0
 161 157 149 157 145 157 c 0
 116 157 83 124 83 95 c 2
 83 93 l 1
83 350 m 0
 83 347 83 344 84 341 c 0
 89 339 95 337 101 337 c 0
 109 337 127 339 134 344 c 0
 154 358 166 396 171 419 c 1
 169 419 168 419 166 419 c 0
 130 408 83 385 83 350 c 0
EndSplineSet
Ligature2: "'liga' +BCEEQgQwBD0ENAQwBEAEQgQ9BEsENQAA +BDsEOAQzBDAEQgRDBEAESwAA in Latin lookup 0 subtable" F Tutg.Uml.Vir Tutg.Uml.Aa
Ligature2: "'liga' +BCEEQgQwBD0ENAQwBEAEQgQ9BEsENQAA +BDsEOAQzBDAEQgRDBEAESwAA in Latin lookup 0 subtable" E Tutg.Uml.Vir Tutg.Uml.Aa
EndChar

StartChar: A_Y
Encoding: 1114129 -1 80
Width: 861
GlyphClass: 3
Flags: W
HStem: 157 81<71 158.97> 256 81<82.3232 142.398> 421 81<472.663 555.88 687.084 749.882> 430 81<217 270.97>
VStem: 14 64<85.0868 137.978 340.56 404.945> 167 62<79.8447 145.186> 324 64<73 190.228 303.812 396.878> 428 64<25.8129 36.5583 356.927 461.5> 780 64<250.252 384.504>
LayerCount: 2
Fore
SplineSet
27 95 m 0xdf80
 20 110 14 127 14 144 c 0
 14 190 46 238 96 238 c 0
 113 238 130 234 145 226 c 0
 189 201 224 124 229 71 c 1
 277 85 324 121 324 171 c 0
 324 187 321 193 309 204 c 0
 304 209 297 213 291 218 c 0
 277 230 259 256 259 275 c 0
 259 277 260 282 261 284 c 0
 264 288 274 294 278 298 c 0
 302 317 324 348 324 380 c 0
 324 385 323 393 321 398 c 0
 309 422 242 430 217 430 c 1
 225 413 230 396 230 379 c 0
 230 348 213 283 184 266 c 0
 170 258 153 256 137 256 c 0
 73 256 14 349 14 407 c 0
 14 422 19 437 27 449 c 0
 44 475 103 500 133 506 c 0
 151 510 169 511 187 511 c 0
 263 511 331 461 367 396 c 0
 379 374 388 349 388 323 c 0
 388 285 369 252 342 227 c 1
 367 195 388 155 388 114 c 0
 388 32 302 -17 228 -17 c 0
 151 -17 61 23 27 95 c 0xdf80
428 441 m 0
 428 482 451 502 491 502 c 0
 536 502 579 473 599 433 c 1
 618 467 646 502 689 502 c 0
 775 502 844 375 844 295 c 0
 844 252 836 200 810 165 c 0
 734 63 514 75 493 15 c 0
 490 7 494 2 482 2 c 0
 461 2 429 50 429 70 c 0
 429 156 668 142 744 230 c 0
 773 263 780 309 780 351 c 0
 780 384 773 421 732 421 c 0
 662 421 637 284 608 284 c 0
 587 284 555 332 555 352 c 0
 555 368 557 385 557 401 c 0
 557 407 556 412 556 418 c 1
 548 420 540 421 532 421 c 0xef80
 509 421 492 410 492 385 c 0
 492 345 523 320 523 295 c 0
 523 287 520 283 512 283 c 0
 506 283 497 289 493 292 c 0
 459 319 428 398 428 441 c 0
140 157 m 0
 111 157 78 124 78 95 c 2
 78 93 l 1
 92 85 106 79 120 74 c 1
 136 79 167 74 167 119 c 0
 167 125 163 150 159 154 c 0
 156 157 144 157 140 157 c 0
78 350 m 0
 78 347 78 344 79 341 c 0
 84 339 90 337 96 337 c 0
 104 337 122 339 129 344 c 0
 149 358 161 396 166 419 c 1
 164 419 163 419 161 419 c 0
 125 408 78 385 78 350 c 0
EndSplineSet
Ligature2: "'liga' +BCEEQgQwBD0ENAQwBEAEQgQ9BEsENQAA +BDsEOAQzBDAEQgRDBEAESwAA in Latin lookup 0 subtable" Tutg.Uml.Ee Tutg.Uml.Vir Tutg.Uml.Length
Ligature2: "'liga' +BCEEQgQwBD0ENAQwBEAEQgQ9BEsENQAA +BDsEOAQzBDAEQgRDBEAESwAA in Latin lookup 0 subtable" Tutg.Uml.Vir Tutg.Uml.Length
EndChar

StartChar: k_A_x
Encoding: 1114130 -1 81
Width: 1346
GlyphClass: 3
Flags: W
HStem: -6 81<1012 1217.39> 0 81<191 246.141 458.728 512.672 759 820 1012 1231.24> 407 81<1046.19 1141.53> 423 81<174.703 306.536 499.067 620.496>
VStem: 17 62<262.496 331.789> 127 64<82.4698 175.082> 564 63<157.503 283.172> 703 64<82.4019 317.181> 970 64<336.564 442.5>
LayerCount: 2
Fore
SplineSet
17 308 m 0x5f80
 17 439 113 504 236 504 c 0x5f80
 290 504 344 494 394 474 c 1
 435 494 481 507 527 507 c 0
 627 507 700 430 736 343 c 0
 756 295 767 229 767 177 c 0
 767 144 764 112 759 80 c 1
 803 79 847 78 891 77 c 1
 945 137 997 200 1047 263 c 1
 1008 299 970 360 970 415 c 0
 970 470 1024 488 1070 488 c 0
 1122 488 1163 468 1192 424 c 0
 1201 410 1209 392 1209 375 c 0
 1209 325 1190 286 1159 249 c 1
 1219 219 1286 190 1317 129 c 0
 1324 116 1329 100 1329 85 c 0
 1329 57 1304 33 1281 22 c 0
 1227 -5 1090 -6 1027 -6 c 0xaf80
 999 -6 971 -5 944 -5 c 1
 922 -30 751 -213 724 -213 c 0
 703 -213 671 -165 671 -145 c 0
 671 -143 672 -138 673 -136 c 0
 679 -128 691 -122 699 -115 c 0
 719 -99 737 -82 756 -64 c 0
 778 -43 799 -22 820 -1 c 1
 799 0 778 0 757 0 c 0
 750 0 735 -1 729 1 c 0
 711 8 689 36 683 58 c 0
 681 62 680 67 680 70 c 0
 680 90 691 116 695 136 c 0
 701 168 703 200 703 233 c 0
 703 272 695 340 676 374 c 0
 654 414 611 426 568 426 c 0
 545 426 522 422 498 415 c 1
 564 364 627 278 627 191 c 0
 627 175 626 159 623 144 c 0
 615 102 579 24 538 6 c 0
 527 1 519 0 507 0 c 0
 463 0 407 71 387 106 c 1
 352 66 296 1 238 1 c 0
 190 1 145 69 133 110 c 0
 129 125 127 141 127 157 c 0
 127 253 219 357 307 422 c 1
 297 423 287 423 278 423 c 0
 184 423 94 376 82 277 c 0
 81 269 82 250 79 243 c 0
 77 240 73 240 70 240 c 0
 49 240 17 288 17 308 c 0x5f80
215 182 m 0
 202 158 190 128 190 101 c 0
 190 95 191 90 191 84 c 2
 191 82 l 1
 196 82 l 2
 235 82 291 139 316 167 c 0
 326 178 336 193 347 202 c 0
 349 204 352 203 354 203 c 0
 368 203 388 179 395 169 c 0
 410 148 438 81 466 81 c 0
 510 81 547 160 557 196 c 0
 562 213 564 230 564 247 c 0
 564 316 506 363 437 391 c 1
 343 344 256 259 215 182 c 0
1110 193 m 0
 1077 154 1045 114 1012 75 c 1x8f80
 1077 76 1184 79 1226 100 c 0
 1240 107 1254 118 1262 132 c 1
 1216 161 1167 182 1123 208 c 1
 1118 203 1114 198 1110 193 c 0
1111 407 m 0x2f80
 1079 407 1034 395 1034 355 c 0
 1034 327 1056 312 1076 297 c 1
 1092 315 1109 332 1122 353 c 0
 1132 369 1138 386 1142 404 c 1
 1132 406 1121 407 1111 407 c 0x2f80
EndSplineSet
Ligature2: "'liga' +BCEEQgQwBD0ENAQwBEAEQgQ9BEsENQAA +BDsEOAQzBDAEQgRDBEAESwAA in Latin lookup 0 subtable" Tutg.K Tutg.Uml.Vir Tutg.Ss
EndChar

StartChar: B_u
Encoding: 1114131 -1 82
Width: 1185
GlyphClass: 3
Flags: W
HStem: -1 82<425 670 1016 1145.28> 420 80<204.218 376.631 697.071 861.392>
VStem: 17 64<150.395 309.263> 424 63<224.637 375.564> 574 63<213.717 361.34> 980 64<158.275 320.777>
LayerCount: 2
Fore
SplineSet
17 264 m 0
 17 434 130 500 287 500 c 0
 318 500 350 494 377 478 c 0
 442 441 487 357 487 283 c 0
 487 218 466 133 425 81 c 1
 670 81 l 1
 610 152 574 246 574 339 c 0
 574 437 633 499 732 499 c 0
 775 499 819 495 860 480 c 0
 978 438 1044 327 1044 206 c 0
 1044 163 1032 120 1016 80 c 1
 1049 80 1082 81 1115 81 c 0
 1136 81 1168 33 1168 13 c 0
 1168 -4 1148 -1 1136 -1 c 2
 964 -1 l 2
 943 -1 911 47 911 67 c 0
 911 70 912 74 913 76 c 0
 917 83 922 88 926 94 c 0
 956 139 980 210 980 263 c 0
 980 294 978 327 961 355 c 0
 931 406 828 419 774 419 c 0
 692 419 637 364 637 282 c 0
 637 221 656 147 702 104 c 0
 718 89 739 83 755 69 c 0
 769 57 787 31 787 12 c 0
 787 4 784 0 776 0 c 2
 657 -1 l 2
 628 -1 328 -1 322 2 c 0
 301 11 274 46 274 69 c 0
 274 73 275 78 278 80 c 0
 287 86 298 90 307 96 c 0
 382 145 424 253 424 340 c 0
 424 353 420 381 413 392 c 0
 399 414 353 420 329 420 c 0
 190 420 81 359 81 207 c 0
 81 166 95 121 113 84 c 0
 124 63 150 36 150 12 c 0
 150 4 147 0 139 0 c 0
 125 0 106 24 99 34 c 0
 54 97 17 186 17 264 c 0
EndSplineSet
Ligature2: "'liga' +BCEEQgQwBD0ENAQwBEAEQgQ9BEsENQAA +BDsEOAQzBDAEQgRDBEAESwAA in Latin lookup 0 subtable" Tutg.Bh Tutg.Uml.U
EndChar

StartChar: B_U
Encoding: 1114132 -1 83
Width: 1071
GlyphClass: 3
Flags: W
HStem: -242 81<454.62 1036.28> -129 81<464.753 874.963> 2 79<425 669> 420 80<204.218 376.642 705.387 892.664>
VStem: 17 64<150.395 309.263> 424 63<224.637 375.564> 574 64<208.549 352.241> 981 63<276 367.797> 989 63<52.2635 143.718>
LayerCount: 2
Fore
SplineSet
99 34 m 0xff
 54 97 17 186 17 264 c 0
 17 434 130 500 287 500 c 0
 318 500 350 494 377 478 c 0
 442 441 487 357 487 283 c 0
 487 218 466 133 425 81 c 1
 669 81 l 1
 610 149 574 241 574 331 c 0
 574 410 619 477 698 495 c 0
 724 501 750 501 777 501 c 0
 872 501 964 458 1016 378 c 0
 1031 355 1044 324 1044 297 c 0xff
 1044 255 1020 223 985 202 c 1
 1025 167 1052 111 1052 58 c 0
 1052 -36 959 -105 875 -123 c 0
 847 -129 819 -130 791 -130 c 2
 595 -129 l 2
 554 -129 481 -123 453 -161 c 1
 636 -159 818 -155 1001 -155 c 0
 1022 -155 1054 -203 1054 -223 c 0
 1054 -239 1039 -236 1027 -236 c 0
 841 -236 655 -242 469 -242 c 0
 425 -242 381 -167 381 -128 c 0
 381 -59 457 -48 510 -48 c 0
 575 -48 642 -49 707 -49 c 0
 799 -49 883 -48 949 27 c 0
 969 49 989 84 989 115 c 0xfe80
 989 142 987 148 961 160 c 0
 921 178 901 168 876 213 c 0
 871 222 866 233 866 243 c 0
 866 247 867 252 870 254 c 0
 874 257 899 264 907 268 c 0
 942 284 981 312 981 354 c 0
 981 369 969 377 957 384 c 0
 917 408 865 420 819 420 c 0
 749 420 684 410 652 339 c 0
 643 320 638 295 638 274 c 0
 638 210 657 140 708 98 c 0
 719 89 732 84 744 77 c 0
 763 66 787 34 787 12 c 0
 787 4 784 0 776 0 c 2
 657 -1 l 2
 628 -1 328 -1 322 2 c 0
 301 11 274 46 274 69 c 0
 274 73 275 78 278 80 c 0
 287 86 298 90 307 96 c 0
 382 145 424 253 424 340 c 0
 424 353 420 381 413 392 c 0
 400 414 352 420 329 420 c 0
 190 420 81 359 81 207 c 0
 81 166 95 121 113 84 c 0
 124 63 150 36 150 12 c 0
 150 4 147 0 139 0 c 0
 126 0 106 24 99 34 c 0xff
EndSplineSet
Ligature2: "'liga' +BCEEQgQwBD0ENAQwBEAEQgQ9BEsENQAA +BDsEOAQzBDAEQgRDBEAESwAA in Latin lookup 0 subtable" Tutg.Bh Tutg.Uml.Uu
EndChar

StartChar: C_u
Encoding: 1114133 -1 84
Width: 985
GlyphClass: 3
Flags: W
HStem: -241 80<371.708 896.389> -124 81<389.508 870.984> -4 81<137.658 204.892 439.788 476.059 713.217 777.279> 169 81<141.343 241.903 693.208 795.08> 414 81<198.699 331.585 600.503 738.211>
VStem: 242 64<116.892 166.778> 375 63<78.0176 383.341> 488 64<86.25 362.124> 622 63<99.1561 199> 841 64<187.5 303.13> 906 64<-5.18764 96.5443>
LayerCount: 2
Fore
SplineSet
23 248 m 0
 23 374 106 495 241 495 c 0
 338 495 407 434 432 343 c 0
 441 310 443 275 443 240 c 0
 443 196 438 152 438 108 c 0
 438 97 439 88 440 77 c 1
 441 77 l 2
 485 77 488 133 488 165 c 0
 488 209 484 253 484 297 c 0
 484 413 513 496 645 496 c 0
 795 496 905 331 905 193 c 0
 905 182 904 171 903 160 c 1
 943 119 970 63 970 8 c 0
 970 -49 942 -105 884 -122 c 0
 872 -126 853 -125 840 -125 c 0
 730 -125 619 -124 509 -124 c 0
 463 -124 406 -126 371 -159 c 1
 370 -161 l 1
 419 -161 863 -159 871 -162 c 0
 892 -171 919 -206 919 -229 c 0
 919 -237 916 -241 908 -241 c 2
 382 -241 l 2
 338 -241 294 -169 294 -130 c 0
 294 -47 413 -43 471 -43 c 0
 580 -43 689 -44 798 -44 c 0
 814 -44 829 -44 844 -38 c 0
 885 -22 906 22 906 64 c 0
 906 82 904 99 893 112 c 1
 876 60 832 -3 771 -3 c 0
 697 -3 622 106 622 175 c 0
 622 223 650 251 698 251 c 0
 742 251 799 230 838 208 c 1
 840 222 841 236 841 249 c 0
 841 348 790 416 687 416 c 0
 572 416 548 339 548 240 c 0
 548 196 552 153 552 109 c 0
 552 62 545 -4 484 -4 c 0
 436 -4 395 53 383 94 c 0
 376 117 375 141 375 165 c 0
 375 209 379 252 379 296 c 0
 379 330 379 361 366 393 c 1
 365 394 l 1
 341 411 313 414 284 414 c 0
 178 414 104 325 90 227 c 1
 124 241 152 250 189 250 c 0
 253 250 306 178 306 118 c 0
 306 61 259 -4 198 -4 c 0
 124 -4 57 97 37 160 c 0
 28 188 23 218 23 248 c 0
741 170 m 0
 709 170 685 152 685 119 c 0
 685 91 703 78 729 78 c 0
 769 78 801 118 819 152 c 1
 794 163 768 170 741 170 c 0
101 131 m 0
 99 131 97 131 95 132 c 1
 104 102 122 77 156 77 c 0
 203 77 233 126 242 167 c 1
 242 168 l 1
 238 169 234 169 230 169 c 0
 199 169 164 158 136 145 c 0
 128 141 109 131 101 131 c 0
EndSplineSet
Ligature2: "'liga' +BCEEQgQwBD0ENAQwBEAEQgQ9BEsENQAA +BDsEOAQzBDAEQgRDBEAESwAA in Latin lookup 0 subtable" Tutg.Ch Tutg.Uml.U
EndChar

StartChar: C_U
Encoding: 1114134 -1 85
Width: 1050
GlyphClass: 3
Flags: W
HStem: -244 80<419.76 1008.35> -127 81<436.107 962.12> -4 81<128.658 195.892 430.788 467.059 722.104 797.558> 169 81<132.343 232.903> 212 81<738.602 828.656> 414 81<189.699 322.585 591.503 728.673>
VStem: 233 64<116.892 166.778> 366 63<78.0176 383.341> 479 64<86.25 362.124> 643 64<89.7792 178.981> 985 65<-23.7969 12.8934>
LayerCount: 2
Fore
SplineSet
28 160 m 0xf7e0
 19 188 14 218 14 248 c 0
 14 374 97 495 232 495 c 0
 329 495 398 434 423 343 c 0
 432 310 434 275 434 240 c 0
 434 196 429 152 429 108 c 0
 429 97 430 88 431 77 c 1
 432 77 l 2
 476 77 479 133 479 165 c 0
 479 209 475 253 475 297 c 0
 475 413 504 496 636 496 c 0
 761 496 858 381 888 263 c 1
 946 247 992 221 1022 167 c 0
 1030 153 1037 134 1037 118 c 0
 1037 90 1024 65 1005 45 c 1
 1027 21 1050 -13 1050 -47 c 0
 1050 -117 955 -128 903 -128 c 0
 790 -128 676 -127 563 -127 c 0
 521 -127 449 -130 418 -161 c 1
 434 -163 451 -164 467 -164 c 2
 902 -164 l 2
 915 -164 974 -162 982 -165 c 0
 1003 -172 1030 -210 1030 -232 c 0
 1030 -240 1027 -244 1019 -244 c 2
 493 -244 l 2
 435 -244 389 -224 359 -173 c 0
 350 -158 343 -141 343 -123 c 0
 343 -53 467 -46 516 -46 c 0
 630 -46 745 -47 859 -47 c 0
 900 -47 968 -42 985 3 c 1
 985 4 l 1
 974 9 962 13 952 20 c 0
 936 32 914 62 914 82 c 0
 914 85 915 89 916 91 c 0
 918 94 929 102 932 105 c 0
 949 121 967 141 973 164 c 1
 954 177 919 185 896 190 c 1
 896 164 892 137 884 112 c 0
 869 66 826 0 772 0 c 0
 702 0 643 106 643 168 c 0
 643 242 682 293 759 293 c 0xefe0
 776 293 803 289 830 283 c 1
 819 363 769 416 678 416 c 0
 563 416 539 339 539 240 c 0
 539 196 543 153 543 109 c 0
 543 62 536 -4 475 -4 c 0
 427 -4 386 53 374 94 c 0
 367 117 366 141 366 165 c 0
 366 209 370 252 370 296 c 0
 370 330 370 361 357 393 c 1
 356 394 l 1
 332 411 304 414 275 414 c 0
 169 414 95 325 81 227 c 1
 115 241 143 250 180 250 c 0
 244 250 297 178 297 118 c 0
 297 61 250 -4 189 -4 c 0
 115 -4 48 97 28 160 c 0xf7e0
707 114 m 0
 707 107 709 88 713 83 c 0
 714 81 725 81 728 81 c 0
 780 81 823 162 829 210 c 1
 820 211 811 212 802 212 c 0
 743 212 707 172 707 114 c 0
92 131 m 0
 90 131 88 131 86 132 c 1
 95 102 113 77 147 77 c 0
 194 77 224 126 233 167 c 1
 233 168 l 1
 229 169 225 169 221 169 c 0xf7e0
 190 169 155 158 127 145 c 0
 119 141 100 131 92 131 c 0
EndSplineSet
Ligature2: "'liga' +BCEEQgQwBD0ENAQwBEAEQgQ9BEsENQAA +BDsEOAQzBDAEQgRDBEAESwAA in Latin lookup 0 subtable" Tutg.Ch Tutg.Uml.Uu
EndChar

StartChar: N_u
Encoding: 1114135 -1 86
Width: 1254
GlyphClass: 3
Flags: W
HStem: 2 81<130.355 231.077 1102 1211.01> 181 81<144.156 218.643> 422 80<183.115 336.021 551.324 669.594 885.198 980.174>
VStem: 248 64<55 160.391> 407 66<58.0856 322.185> 752 63<20.922 304.812> 1060 64<141.729 342.245>
LayerCount: 2
Fore
SplineSet
17 244 m 0
 17 365 81 502 219 502 c 0
 313 502 383 475 432 389 c 1
 458 463 502 502 582 502 c 0
 674 502 735 441 772 362 c 1
 786 424 814 500 889 500 c 0
 1044 500 1124 361 1124 220 c 0
 1124 172 1115 124 1102 78 c 1
 1118 78 1134 79 1150 79 c 0
 1188 79 1199 82 1222 47 c 0
 1229 37 1237 22 1237 10 c 0
 1237 2 1234 -2 1226 -2 c 2
 1059 -2 l 2
 1038 -2 1006 46 1006 66 c 0
 1006 75 1029 115 1034 129 c 0
 1050 174 1060 228 1060 276 c 0
 1060 374 1039 419 933 419 c 0
 840 419 820 251 815 141 c 0
 816 124 816 107 816 91 c 0
 816 82 816 45 815 21 c 2
 815 17 l 2
 814 10 814 4 813 3 c 0
 811 0 808 0 804 0 c 0
 797 0 786 9 781 13 c 0
 761 32 754 49 751 73 c 0
 751 75 751 77 751 79 c 0
 751 115 751 151 752 187 c 0
 750 259 739 378 697 404 c 0
 675 417 649 422 624 422 c 0
 508 422 479 306 473 206 c 0
 473 193 473 179 473 166 c 0
 473 127 472 89 473 50 c 0
 474 37 475 25 475 12 c 0
 475 4 472 0 464 0 c 0
 457 0 446 9 441 13 c 0
 429 24 418 41 413 57 c 0
 407 79 407 176 407 203 c 0
 407 222 408 244 409 268 c 0
 407 322 400 376 381 393 c 0
 354 416 296 422 261 422 c 0
 157 422 99 326 84 233 c 1
 104 250 127 262 154 262 c 0
 232 262 312 160 312 86 c 0
 312 24 260 2 206 2 c 0
 88 2 17 140 17 244 c 0
99 105 m 1
 116 88 142 83 164 83 c 0
 201 83 248 99 248 143 c 0
 248 172 222 181 197 181 c 0
 163 181 132 152 114 126 c 0
 109 119 106 111 99 105 c 1
EndSplineSet
Ligature2: "'liga' +BCEEQgQwBD0ENAQwBEAEQgQ9BEsENQAA +BDsEOAQzBDAEQgRDBEAESwAA in Latin lookup 0 subtable" Tutg.Nn Tutg.Uml.U
EndChar

StartChar: N_U
Encoding: 1114136 -1 87
Width: 1185
GlyphClass: 3
Flags: W
HStem: -234 81<561.62 1143.28> -121 81<571.753 981.963> 2 81<130.085 231.077> 181 81<144.156 218.643> 422 80<183.115 335.846 551.324 669.594 884.702 1015.46>
VStem: 248 64<55 160.391> 407 66<58.0856 322.185> 752 63<20.922 306.371> 1096 63<60.3642 151.313> 1105 63<279 375.422>
LayerCount: 2
Fore
SplineSet
206 2 m 0xff40
 88 2 17 140 17 244 c 0
 17 365 81 502 219 502 c 0
 313 502 382 475 432 389 c 1
 458 463 502 502 582 502 c 0
 674 502 735 441 772 363 c 1
 786 424 814 500 889 500 c 0
 986 500 1076 474 1135 393 c 0
 1155 366 1168 333 1168 299 c 0xff40
 1168 259 1133 220 1097 205 c 1
 1134 172 1159 116 1159 66 c 0
 1159 -28 1066 -97 982 -115 c 0
 954 -121 926 -122 898 -122 c 2
 702 -121 l 2
 661 -121 588 -115 560 -153 c 1
 743 -151 925 -147 1108 -147 c 0
 1129 -147 1161 -195 1161 -215 c 0
 1161 -231 1146 -228 1134 -228 c 0
 948 -228 762 -234 576 -234 c 0
 532 -234 488 -159 488 -120 c 0
 488 -51 564 -40 617 -40 c 0
 682 -40 749 -41 814 -41 c 0
 906 -41 990 -40 1056 35 c 0
 1076 57 1096 93 1096 123 c 0xff80
 1096 150 1094 156 1068 168 c 0
 1028 186 1008 176 983 221 c 0
 978 230 973 241 973 251 c 0
 973 255 974 260 977 262 c 0
 980 264 1011 271 1018 273 c 0
 1056 285 1105 316 1105 360 c 0
 1105 366 1104 371 1099 375 c 0
 1050 411 991 419 932 419 c 0
 839 419 819 253 815 143 c 0
 816 125 816 108 816 91 c 0
 816 82 816 45 815 21 c 2
 815 17 l 2
 814 10 814 4 813 3 c 0
 811 0 808 0 804 0 c 0
 797 0 786 9 781 13 c 0
 761 32 754 49 751 73 c 0
 751 75 751 77 751 79 c 0
 751 115 751 151 752 187 c 0
 750 259 739 378 697 404 c 0
 675 417 649 422 624 422 c 0
 508 422 479 306 473 206 c 0
 473 193 473 179 473 166 c 0
 473 127 472 89 473 50 c 0
 474 37 475 25 475 12 c 0
 475 4 472 0 464 0 c 0
 457 0 446 9 441 13 c 0
 429 24 418 41 413 57 c 0
 407 79 407 176 407 203 c 0
 407 222 408 244 409 268 c 0
 407 322 400 376 381 393 c 0
 354 416 296 422 261 422 c 0
 157 422 99 326 84 233 c 1
 104 250 127 262 154 262 c 0
 232 262 312 160 312 86 c 0
 312 24 260 2 206 2 c 0xff40
114 126 m 0
 109 119 106 111 100 104 c 1
 117 88 142 83 164 83 c 0
 201 83 248 99 248 143 c 0
 248 172 222 181 197 181 c 0
 163 181 132 152 114 126 c 0
EndSplineSet
Ligature2: "'liga' +BCEEQgQwBD0ENAQwBEAEQgQ9BEsENQAA +BDsEOAQzBDAEQgRDBEAESwAA in Latin lookup 0 subtable" Tutg.Nn Tutg.Uml.Uu
EndChar

StartChar: S_u
Encoding: 1114137 -1 88
Width: 1114
GlyphClass: 3
Flags: W
HStem: -1 81<151.806 262.502 598.53 711.009 949.899 1074.28> 252 81<655.052 758.578> 413 81<151.751 262.79> 420 80<508.918 664.707>
VStem: 17 64<182.996 337.449> 500 63<104.516 227.5> 777 63<151.219 244.969> 777 56<182.984 246> 897 63<119.353 219.931>
LayerCount: 2
Fore
SplineSet
17 295 m 0xde80
 17 412 70 494 195 494 c 0
 234 494 253 490 275 456 c 0
 281 447 288 433 288 422 c 0
 288 414 285 410 277 410 c 0
 263 410 250 413 236 413 c 0xee80
 127 413 81 339 81 238 c 0
 81 200 96 124 126 98 c 0
 144 82 159 80 182 80 c 0
 456 80 202 500 571 500 c 0
 679 500 765 420 809 322 c 1
 894 297 960 224 960 134 c 0
 960 114 956 95 949 77 c 1
 951 77 l 2
 971 77 991 77 1011 78 c 0
 1022 79 1033 80 1044 80 c 0
 1065 80 1097 32 1097 12 c 0
 1097 9 1096 3 1093 1 c 0
 1085 -3 1006 -4 992 -4 c 0
 944 -4 906 -1 877 43 c 0
 870 54 862 70 862 83 c 0
 862 102 897 149 897 191 c 0
 897 220 897 220 871 233 c 0
 860 239 847 243 833 246 c 1xdd80
 838 224 840 203 840 182 c 0
 840 87 790 0 686 0 c 0
 664 0 638 3 618 11 c 0
 551 37 500 118 500 189 c 0
 500 266 585 310 650 325 c 0
 677 331 703 333 731 333 c 0
 741 333 750 333 759 332 c 1
 736 386 688 420 613 420 c 0
 266 420 525 -1 224 -1 c 0
 96 -1 17 187 17 295 c 0xde80
563 133 m 0
 563 123 566 113 567 103 c 1
 566 103 l 1
 581 84 620 81 643 81 c 0
 730 81 777 158 777 238 c 0xce80
 777 243 777 247 777 252 c 1xcd80
 712 252 611 231 575 170 c 0
 568 159 563 146 563 133 c 0
EndSplineSet
Ligature2: "'liga' +BCEEQgQwBD0ENAQwBEAEQgQ9BEsENQAA +BDsEOAQzBDAEQgRDBEAESwAA in Latin lookup 0 subtable" Tutg.Sh Tutg.Uml.U
EndChar

StartChar: S_U
Encoding: 1114138 -1 89
Width: 1006
GlyphClass: 3
Flags: W
HStem: -229 80<394.76 982.922> -112 81<410.446 924.691> -1 81<151.624 262.502 599.979 711.009> 255 81<657.469 757.577> 413 81<151.751 262.79> 420 80<508.918 664.64>
VStem: 17 64<182.856 337.449> 498 63<111.323 245.5> 777 63<151.219 249.922> 777 55<183.078 251> 907 64<158.388 231.994>
LayerCount: 2
Fore
SplineSet
224 -1 m 0xf7a0
 96 -1 17 187 17 295 c 0
 17 412 70 494 195 494 c 0
 234 494 253 490 275 456 c 0
 281 447 288 433 288 422 c 0
 288 414 285 410 277 410 c 0
 263 410 250 413 236 413 c 0xfba0
 127 413 81 339 81 238 c 0
 81 200 96 123 126 98 c 0
 144 82 158 80 182 80 c 0
 456 80 202 500 571 500 c 0
 677 500 761 423 805 329 c 1
 865 318 917 289 950 232 c 0
 962 212 971 188 971 164 c 0
 971 134 960 105 943 81 c 1
 973 59 1006 3 1006 -35 c 0
 1006 -101 932 -113 881 -113 c 0
 766 -113 652 -112 537 -112 c 0
 495 -112 424 -115 393 -146 c 1
 409 -148 426 -149 442 -149 c 2
 877 -149 l 2
 892 -149 947 -147 957 -150 c 0
 977 -156 1005 -196 1005 -217 c 0
 1005 -225 1002 -229 994 -229 c 2
 468 -229 l 2
 410 -229 364 -209 334 -158 c 0
 325 -143 318 -126 318 -108 c 0
 318 -38 441 -31 490 -31 c 0
 604 -31 718 -32 832 -32 c 0
 872 -32 937 -28 943 24 c 1
 911 50 891 40 867 82 c 0
 862 91 857 102 857 112 c 0
 857 127 907 169 907 221 c 2
 907 226 l 1
 883 240 858 247 832 251 c 1xf760
 837 228 840 205 840 182 c 0
 840 87 790 0 686 0 c 0
 664 0 638 3 618 11 c 0
 555 36 498 124 498 191 c 0
 498 300 644 336 730 336 c 0
 739 336 749 336 758 335 c 1
 734 387 686 420 613 420 c 0
 266 420 525 -1 224 -1 c 0xf7a0
561 135 m 0
 561 85 603 81 643 81 c 0
 730 81 777 158 777 238 c 0xf3a0
 777 244 777 249 777 255 c 1xf360
 708 255 561 224 561 135 c 0
EndSplineSet
Ligature2: "'liga' +BCEEQgQwBD0ENAQwBEAEQgQ9BEsENQAA +BDsEOAQzBDAEQgRDBEAESwAA in Latin lookup 0 subtable" Tutg.Sh Tutg.Uml.Uu
EndChar

StartChar: g_u
Encoding: 1114139 -1 90
Width: 941
GlyphClass: 3
Flags: W
HStem: -5 80<153.793 266.249 735 911.172> 1 82<519.595 626.318> 411 81<176.264 281.68> 417 80<505.79 622.828>
VStem: 23 64<151.174 311.228> 697 63<154.21 311.376>
LayerCount: 2
Fore
SplineSet
36 176 m 0x9c
 27 206 23 237 23 268 c 0
 23 386 88 492 216 492 c 0
 256 492 276 486 296 450 c 0
 301 441 306 430 306 420 c 0
 306 412 303 408 295 408 c 0
 282 408 270 411 257 411 c 0
 146 411 87 313 87 211 c 0
 87 139 103 75 188 75 c 0xac
 430 75 275 420 482 488 c 0
 506 496 534 497 560 497 c 0
 589 497 617 482 639 464 c 0
 718 400 760 286 760 186 c 0
 760 146 751 110 735 81 c 1
 804 80 879 80 882 78 c 0
 903 69 930 34 930 11 c 0
 930 3 927 -1 919 -1 c 2
 808 -2 l 2
 785 -2 552 -2 546 1 c 0
 525 10 495 49 495 73 c 0
 495 81 498 85 506 85 c 0
 519 85 533 83 546 83 c 0x5c
 641 83 697 151 697 243 c 0
 697 300 678 417 602 417 c 0
 574 417 541 414 515 401 c 0
 346 317 489 -5 230 -5 c 0
 133 -5 61 91 36 176 c 0x9c
EndSplineSet
Ligature2: "'liga' +BCEEQgQwBD0ENAQwBEAEQgQ9BEsENQAA +BDsEOAQzBDAEQgRDBEAESwAA in Latin lookup 0 subtable" Tutg.G Tutg.Uml.U
EndChar

StartChar: g_U
Encoding: 1114140 -1 91
Width: 807
GlyphClass: 3
Flags: W
HStem: -226 81<177.248 763.339> -106 81<193.219 605.666> -5 80<159.793 273.69> 411 81<182.264 287.554> 416 82<513.454 667.032>
VStem: 29 64<151.174 311.228> 709 63<14.7821 136.064> 722 63<281 384.608>
LayerCount: 2
Fore
SplineSet
29 268 m 0xed
 29 386 94 492 222 492 c 0
 261 492 282 486 302 450 c 0
 307 441 312 430 312 420 c 0
 312 412 309 408 301 408 c 0
 288 408 276 411 263 411 c 0xf5
 152 411 93 313 93 211 c 0
 93 139 109 75 194 75 c 0
 436 75 281 419 488 488 c 0
 510 495 545 498 569 498 c 0
 651 498 719 459 761 389 c 0
 775 365 785 337 785 308 c 0xed
 785 254 745 219 700 197 c 1
 739 164 772 112 772 60 c 0
 772 -29 680 -86 602 -101 c 0
 574 -106 546 -107 518 -107 c 2
 329 -106 l 2
 285 -106 202 -98 177 -145 c 1
 361 -143 544 -139 728 -139 c 0
 749 -139 781 -187 781 -207 c 0
 781 -220 771 -220 761 -220 c 0
 573 -220 385 -226 196 -226 c 0
 151 -226 108 -149 108 -109 c 0
 108 -38 181 -25 237 -25 c 0
 302 -25 369 -26 434 -26 c 0
 521 -26 600 -27 668 36 c 0
 689 56 709 86 709 116 c 0xee
 709 121 708 129 706 134 c 0
 700 147 645 166 630 169 c 0
 620 171 608 172 599 177 c 0
 581 186 556 221 556 242 c 0
 556 246 557 251 560 253 c 0
 562 254 602 261 609 263 c 0
 655 275 722 310 722 365 c 0
 722 371 721 380 717 385 c 0
 716 386 709 391 708 392 c 0
 682 410 644 417 613 417 c 0
 611 416 609 416 607 416 c 0
 602 416 597 416 592 416 c 0
 586 415 580 414 573 414 c 0
 322 383 519 -5 236 -5 c 0
 139 -5 67 91 42 176 c 0
 33 206 29 237 29 268 c 0xed
EndSplineSet
Ligature2: "'liga' +BCEEQgQwBD0ENAQwBEAEQgQ9BEsENQAA +BDsEOAQzBDAEQgRDBEAESwAA in Latin lookup 0 subtable" Tutg.G Tutg.Uml.Uu
EndChar

StartChar: h_u
Encoding: 1114141 -1 92
Width: 930
GlyphClass: 3
Flags: W
HStem: -5 80<331.453 410.436 722 898.416> 414 80<145.969 246.938 519.414 615.282>
VStem: 17 64<86.2501 336.2> 255 63<83.0896 407.334> 436 63<102.241 393.272> 673 64<103.655 348.552>
LayerCount: 2
Fore
SplineSet
17 275 m 0
 17 385 50 494 180 494 c 0
 249 494 298 434 315 372 c 0
 322 346 324 319 324 293 c 0
 324 242 318 190 318 139 c 0
 318 123 319 95 324 81 c 1
 334 77 345 75 356 75 c 0
 427 75 436 140 436 196 c 0
 436 247 430 299 430 350 c 0
 430 422 444 494 532 494 c 0
 630 494 698 415 723 327 c 0
 733 292 737 255 737 218 c 0
 737 170 731 122 722 75 c 1
 741 75 867 75 874 72 c 0
 895 64 922 28 922 5 c 0
 922 -3 919 -7 911 -7 c 0
 886 -7 698 -7 691 -4 c 0
 670 5 643 40 643 63 c 0
 643 83 653 106 657 126 c 0
 667 175 673 225 673 275 c 0
 673 306 669 363 651 389 c 0
 639 407 595 414 574 414 c 0
 503 414 493 350 493 293 c 0
 493 242 499 190 499 139 c 0
 499 67 486 -5 398 -5 c 0
 329 -5 281 56 264 117 c 0
 257 143 255 170 255 196 c 0
 255 247 261 299 261 350 c 0
 261 366 259 394 254 408 c 1
 244 412 233 414 222 414 c 0
 110 414 81 311 81 218 c 0
 81 169 87 118 97 70 c 0
 101 50 111 28 111 7 c 0
 111 -1 108 -5 100 -5 c 0
 95 -5 85 1 81 4 c 0
 28 44 17 215 17 275 c 0
EndSplineSet
Ligature2: "'liga' +BCEEQgQwBD0ENAQwBEAEQgQ9BEsENQAA +BDsEOAQzBDAEQgRDBEAESwAA in Latin lookup 0 subtable" Tutg.H Tutg.Uml.U
EndChar

StartChar: h_U
Encoding: 1114142 -1 93
Width: 796
GlyphClass: 3
Flags: W
HStem: -230 81<179.62 761.339> -117 81<189.753 597.913> -5 80<331.453 410.436> 414 80<145.969 246.938 518.638 658.964>
VStem: 17 64<89.5708 336.2> 255 63<83.0896 407.334> 436 63<102.241 394.343> 704 63<53.7102 138.848 292.388 388.924>
LayerCount: 2
Fore
SplineSet
17 275 m 0
 17 385 50 494 180 494 c 0
 249 494 298 434 315 372 c 0
 322 346 324 319 324 293 c 0
 324 242 318 190 318 139 c 0
 318 123 319 95 324 81 c 1
 334 77 345 75 356 75 c 0
 427 75 436 140 436 196 c 0
 436 247 430 299 430 350 c 0
 430 414 441 478 505 491 c 1
 513 497 529 495 538 495 c 0
 627 495 695 472 745 394 c 0
 760 371 772 339 772 311 c 0
 772 260 750 218 710 187 c 1
 711 186 l 2
 745 148 767 109 767 56 c 0
 767 21 748 -16 725 -41 c 0
 667 -104 593 -118 511 -118 c 0
 447 -118 382 -117 318 -117 c 0
 277 -117 205 -111 178 -149 c 1
 361 -147 543 -143 726 -143 c 0
 747 -143 779 -191 779 -211 c 0
 779 -224 769 -224 759 -224 c 0
 571 -224 383 -230 194 -230 c 0
 150 -230 106 -155 106 -116 c 0
 106 -47 182 -36 235 -36 c 0
 300 -36 367 -37 432 -37 c 0
 520 -37 602 -37 667 34 c 0
 689 58 704 88 704 120 c 0
 704 124 703 135 701 138 c 0
 691 153 650 157 634 166 c 0
 616 176 591 209 591 231 c 0
 591 234 592 240 595 242 c 0
 598 244 618 246 623 248 c 0
 673 263 708 317 708 368 c 0
 708 372 707 381 705 384 c 0
 703 386 693 393 690 394 c 0
 654 412 613 414 574 414 c 0
 561 411 540 413 519 393 c 0
 497 372 493 322 493 293 c 0
 493 242 499 190 499 139 c 0
 499 67 486 -5 398 -5 c 0
 329 -5 281 56 264 117 c 0
 257 143 255 170 255 196 c 0
 255 247 261 299 261 350 c 0
 261 366 259 394 254 408 c 1
 244 412 233 414 222 414 c 0
 110 414 81 311 81 218 c 0
 81 169 87 118 97 70 c 0
 101 50 111 28 111 7 c 0
 111 -1 108 -5 100 -5 c 0
 81 -5 58 30 52 45 c 0
 30 100 17 217 17 275 c 0
EndSplineSet
Ligature2: "'liga' +BCEEQgQwBD0ENAQwBEAEQgQ9BEsENQAA +BDsEOAQzBDAEQgRDBEAESwAA in Latin lookup 0 subtable" Tutg.H Tutg.Uml.Uu
EndChar

StartChar: j_u
Encoding: 1114143 -1 94
Width: 1364
GlyphClass: 3
Flags: W
HStem: -243 80<737.708 1262.39> -133 81<859.782 1209.59> -126 80<755.004 971.218 1088.56 1238.88> 0 81<123.092 194.648 687.324 814.289 1126.02 1241.26> 184 81<1142.4 1226.39> 209 81<108.612 189.698> 409 81<218.734 326.684 544.416 636.38> 418 81<1057.11 1169.73>
VStem: 244 64<79.5 175.712> 409 69<78.7129 322.419> 619 64<83.1461 171.14> 672 64<259.538 374.091> 1283 64<139.769 271.585>
LayerCount: 2
Fore
SplineSet
17 235 m 0x96d8
 17 275 24 315 41 351 c 0
 74 419 172 490 249 490 c 0
 332 490 393 422 426 353 c 1
 446 427 487 495 563 495 c 0
 652 495 736 376 736 293 c 0x96d8
 736 221 688 159 683 87 c 1
 702 82 722 81 741 81 c 0
 868 81 861 197 879 290 c 0
 888 335 900 380 929 417 c 0
 965 465 1039 499 1098 499 c 0
 1129 499 1163 484 1188 466 c 0
 1280 401 1347 267 1347 155 c 0
 1347 125 1342 96 1331 71 c 1
 1336 52 1338 34 1338 18 c 0
 1338 -38 1319 -103 1260 -122 c 0
 1232 -131 1119 -133 1087 -133 c 0xd5e8
 1049 -133 1011 -129 973 -128 c 0
 935 -127 896 -126 858 -126 c 0
 825 -126 757 -134 736 -163 c 1
 794 -163 1230 -161 1237 -164 c 0
 1258 -174 1285 -207 1285 -231 c 0
 1285 -239 1282 -243 1274 -243 c 2
 748 -243 l 2
 704 -243 660 -171 660 -132 c 0
 660 -57 760 -46 816 -46 c 0xb0d8
 854 -46 893 -46 931 -47 c 0
 969 -48 1008 -52 1046 -52 c 0
 1078 -52 1182 -50 1211 -41 c 0
 1235 -33 1251 -15 1261 7 c 1
 1250 4 1237 2 1224 2 c 0
 1155 2 1095 23 1057 84 c 0
 1046 102 1035 125 1035 147 c 0
 1035 213 1099 265 1163 265 c 0
 1210 265 1251 231 1281 186 c 1
 1283 195 1283 203 1283 212 c 0
 1283 293 1236 418 1139 418 c 0
 1108 418 1068 404 1042 388 c 0
 858 274 1011 0 782 0 c 0
 721 0 676 15 642 68 c 0
 627 91 619 114 619 142 c 0xd9e8
 619 214 672 279 672 350 c 0
 672 391 646 414 606 414 c 0
 588 414 572 408 557 398 c 0
 494 357 474 251 472 178 c 1
 477 138 478 99 478 63 c 0
 478 55 475 51 467 51 c 0
 460 51 449 60 444 64 c 0
 431 76 421 91 416 108 c 0
 408 131 409 193 409 221 c 0
 404 277 392 335 369 372 c 0
 352 400 323 409 292 409 c 0
 228 409 143 348 108 290 c 1
 110 290 113 290 115 290 c 0
 201 290 308 196 308 108 c 0
 308 51 236 3 184 3 c 0
 101 3 42 100 23 183 c 0
 20 190 18 197 18 202 c 0
 18 205 18 207 19 210 c 0
 18 219 17 227 17 235 c 0x96d8
83 148 m 0
 90 112 97 84 141 84 c 0
 176 84 244 125 244 164 c 0
 244 166 244 172 243 174 c 0
 230 193 179 209 156 209 c 0
 125 209 96 195 86 164 c 0
 84 159 84 153 83 148 c 0
1099 98 m 1
 1122 87 1156 83 1181 83 c 0
 1222 83 1249 103 1265 131 c 1
 1254 164 1244 184 1204 184 c 0x98c8
 1156 184 1109 145 1099 98 c 1
EndSplineSet
Ligature2: "'liga' +BCEEQgQwBD0ENAQwBEAEQgQ9BEsENQAA +BDsEOAQzBDAEQgRDBEAESwAA in Latin lookup 0 subtable" Tutg.J Tutg.Uml.U
EndChar

StartChar: j_U
Encoding: 1114144 -1 95
Width: 1530
GlyphClass: 3
Flags: W
HStem: -244 80<874.751 1464.35> -128 80<889.313 1417.36> 0 81<122.959 194.648 687.463 816.662 1142.03 1239.7> 209 81<108.612 189.698 1179.7 1272.25> 409 81<218.734 326.889 544.416 636.38> 418 81<1058.95 1168.12>
VStem: 244 64<79.5 175.712> 409 69<79.6551 319.799> 619 64<83.1461 171.14> 672 64<259.33 374.091> 1057 64<88.0063 154.125> 1283 63<124.708 196.251> 1358 106<52.6628 102.756>
LayerCount: 2
Fore
SplineSet
17 235 m 0xfb78
 17 275 24 315 41 351 c 0
 74 419 172 490 249 490 c 0
 332 490 393 422 426 353 c 1
 446 427 487 495 563 495 c 0
 652 495 736 376 736 293 c 0xfb78
 736 221 688 159 683 87 c 1
 702 82 722 81 741 81 c 0
 869 81 861 196 879 290 c 0
 888 335 901 380 930 417 c 0
 967 463 1034 499 1093 499 c 0
 1205 499 1293 367 1326 271 c 1
 1397 247 1464 184 1464 105 c 0
 1464 89 1459 66 1451 52 c 1
 1480 33 1513 -8 1513 -45 c 0
 1513 -93 1452 -119 1412 -125 c 0
 1394 -128 1376 -128 1358 -128 c 0
 1245 -128 1132 -127 1019 -127 c 0
 977 -127 905 -130 874 -161 c 1
 890 -163 907 -164 923 -164 c 2
 1358 -164 l 2
 1372 -164 1430 -162 1438 -165 c 0
 1459 -172 1486 -210 1486 -232 c 0
 1486 -240 1483 -244 1475 -244 c 2
 949 -244 l 2
 892 -244 845 -223 815 -173 c 0
 806 -158 799 -141 799 -123 c 0
 799 -54 918 -46 966 -46 c 0
 1080 -46 1193 -48 1307 -48 c 0
 1347 -48 1413 -42 1440 -8 c 1
 1429 -4 1417 -5 1406 -1 c 0
 1385 7 1358 44 1358 66 c 0
 1358 75 1366 83 1371 90 c 0
 1385 109 1396 130 1400 153 c 0
 1401 160 1400 167 1401 174 c 1
 1400 173 l 1
 1383 184 1363 192 1343 197 c 1
 1345 181 1346 166 1346 150 c 0
 1346 71 1310 2 1223 2 c 0
 1159 2 1108 32 1077 88 c 0
 1065 109 1057 132 1057 156 c 0
 1057 209 1099 260 1148 276 c 0
 1173 284 1201 286 1227 286 c 0
 1242 286 1257 285 1273 283 c 1
 1254 352 1211 418 1136 418 c 0
 1086 418 1016 380 986 339 c 0
 894 217 981 0 782 0 c 0
 722 0 676 15 642 68 c 0
 627 91 619 114 619 142 c 0xf7b8
 619 214 672 278 672 350 c 0
 672 391 646 414 606 414 c 0
 588 414 572 408 557 398 c 0
 494 357 474 251 472 178 c 1
 477 138 478 99 478 63 c 0
 478 55 475 51 467 51 c 0
 460 51 449 60 444 64 c 0
 432 76 421 92 416 108 c 0
 409 130 409 186 409 216 c 0
 402 287 387 371 351 393 c 0
 333 404 313 409 292 409 c 0
 228 409 143 348 108 290 c 1
 110 290 113 290 115 290 c 0
 201 290 308 196 308 108 c 0
 308 51 236 3 184 3 c 0
 101 3 42 100 23 183 c 0
 20 190 18 197 18 202 c 0
 18 205 18 207 19 210 c 0
 18 219 17 227 17 235 c 0xfb78
86 164 m 0
 85 159 85 152 83 146 c 0
 87 127 93 108 103 96 c 0
 114 88 127 84 141 84 c 0
 176 84 244 125 244 164 c 0
 244 166 244 172 243 174 c 0
 231 193 178 209 156 209 c 0
 125 209 96 195 86 164 c 0
1121 95 m 1
 1138 86 1163 83 1182 83 c 0
 1252 83 1283 142 1283 205 c 1
 1252 205 1218 205 1189 192 c 0
 1156 178 1121 136 1121 99 c 2
 1121 95 l 1
EndSplineSet
Ligature2: "'liga' +BCEEQgQwBD0ENAQwBEAEQgQ9BEsENQAA +BDsEOAQzBDAEQgRDBEAESwAA in Latin lookup 0 subtable" Tutg.J Tutg.Uml.Uu
EndChar

StartChar: k_u
Encoding: 1114145 -1 96
Width: 924
GlyphClass: 3
Flags: W
HStem: 2 81<190.009 246.141 458.281 536.672 753 885.352> 425 81<176.581 306.536 500.23 618.845>
VStem: 17 62<263.496 332.801> 127 63<84.2748 179.105> 564 63<158.708 284.048> 701 63<118.392 312.087>
LayerCount: 2
Fore
SplineSet
70 241 m 0
 49 241 17 289 17 309 c 0
 17 440 113 506 236 506 c 0
 290 506 344 496 394 476 c 1
 436 495 480 508 526 508 c 0
 696 508 764 312 764 170 c 0
 764 141 760 111 753 83 c 1
 769 83 852 85 859 82 c 0
 880 75 907 37 907 15 c 0
 907 7 904 3 896 3 c 2
 705 3 l 2
 684 3 652 51 652 71 c 0
 652 80 668 98 673 106 c 0
 692 138 701 190 701 227 c 0
 701 272 690 370 656 401 c 0
 634 421 597 427 568 427 c 0
 547 427 523 423 499 416 c 1
 565 364 627 279 627 192 c 0
 627 171 625 151 620 131 c 0
 607 84 567 1 510 1 c 0
 463 1 409 69 387 107 c 1
 352 67 296 2 238 2 c 0
 177 2 127 99 127 156 c 0
 127 255 217 358 307 424 c 1
 297 425 287 425 278 425 c 0
 184 425 94 377 82 278 c 0
 81 270 82 251 79 244 c 0
 77 241 73 241 70 241 c 0
440 392 m 1
 316 332 190 205 190 94 c 0
 190 91 191 86 192 83 c 2
 196 83 l 2
 235 83 291 140 316 168 c 0
 326 179 336 194 347 203 c 0
 349 205 352 204 354 204 c 0
 368 204 388 180 395 170 c 0
 410 149 438 82 466 82 c 0
 510 82 547 161 557 197 c 0
 562 214 564 231 564 248 c 0
 564 317 507 364 440 392 c 1
EndSplineSet
Ligature2: "'liga' +BCEEQgQwBD0ENAQwBEAEQgQ9BEsENQAA +BDsEOAQzBDAEQgRDBEAESwAA in Latin lookup 0 subtable" Tutg.K Tutg.Uml.U
EndChar

StartChar: k_U
Encoding: 1114146 -1 97
Width: 892
GlyphClass: 3
Flags: W
HStem: -229 81<275.62 857.18> -116 81<285.753 688.504> 1 81<190.445 246.141 458.935 537.283> 417 81<514.465 737.445> 425 81<176.581 305.187>
VStem: 17 62<263.496 332.801> 127 63<83.6152 177.22> 564 63<157.903 283.869> 787 64<52.3022 146.775 303.517 391.492>
LayerCount: 2
Fore
SplineSet
70 241 m 0xef80
 49 241 17 289 17 309 c 0
 17 440 113 506 236 506 c 0xef80
 295 506 354 494 408 470 c 1
 470 489 541 498 597 498 c 0
 657 498 740 490 787 448 c 0
 824 416 850 357 850 309 c 0
 850 260 832 225 791 199 c 1
 828 163 851 112 851 60 c 0
 851 27 837 -7 817 -34 c 0
 768 -100 691 -117 613 -117 c 2
 414 -116 l 2
 373 -116 301 -110 274 -148 c 1
 457 -146 639 -142 822 -142 c 0
 843 -142 875 -190 875 -210 c 0
 875 -224 863 -224 852 -224 c 0
 664 -224 478 -229 290 -229 c 0
 246 -229 202 -154 202 -115 c 0
 202 -46 278 -35 331 -35 c 0
 397 -35 462 -36 528 -36 c 0
 567 -36 607 -38 646 -29 c 0
 720 -12 787 46 787 127 c 0
 787 176 732 161 706 176 c 0
 688 186 663 219 663 241 c 0
 663 244 664 250 667 252 c 0
 671 254 695 259 701 261 c 0
 750 277 787 312 787 366 c 0
 787 375 785 383 782 392 c 1
 751 412 676 417 638 417 c 0xf780
 601 417 557 413 513 404 c 1
 573 353 627 273 627 192 c 0
 627 171 625 151 620 131 c 0
 607 83 567 1 510 1 c 0
 463 1 409 69 387 107 c 1
 352 67 296 2 238 2 c 0
 178 2 127 97 127 154 c 0
 127 254 224 368 306 424 c 1
 296 425 287 425 278 425 c 0
 184 425 94 377 82 278 c 0
 81 270 82 251 79 244 c 0
 77 241 73 241 70 241 c 0xef80
381 359 m 0
 305 316 190 192 190 97 c 0
 190 92 191 88 192 83 c 1
 196 83 l 2
 235 83 291 140 316 168 c 0
 326 179 336 194 347 203 c 0
 349 204 352 204 354 204 c 0
 368 204 388 180 395 170 c 0
 410 149 438 82 466 82 c 0
 523 82 564 195 564 248 c 0
 564 314 512 359 449 388 c 1
 424 380 401 370 381 359 c 0
EndSplineSet
Ligature2: "'liga' +BCEEQgQwBD0ENAQwBEAEQgQ9BEsENQAA +BDsEOAQzBDAEQgRDBEAESwAA in Latin lookup 0 subtable" Tutg.K Tutg.Uml.Uu
EndChar

StartChar: n_u
Encoding: 1114147 -1 98
Width: 937
GlyphClass: 3
Flags: W
HStem: 1 80<745 897.922> 416 81<134.954 242.809 546.092 699.303>
VStem: 17 63<159.682 351.873> 332 60<21.9947 217.395> 726 63<213.459 392.622>
LayerCount: 2
Fore
SplineSet
118 23 m 0
 51 90 17 199 17 293 c 0
 17 352 30 442 84 477 c 0
 105 491 140 497 165 497 c 0
 268 497 330 398 359 311 c 1
 400 434 484 501 615 501 c 0
 722 501 789 394 789 296 c 0
 789 223 772 149 745 81 c 1
 763 81 865 83 872 80 c 0
 892 73 920 35 920 13 c 0
 920 5 917 1 909 1 c 2
 701 1 l 2
 680 1 648 49 648 69 c 0
 648 77 663 103 667 112 c 0
 700 183 726 272 726 350 c 0
 726 360 723 398 717 405 c 0
 708 416 670 420 656 420 c 0
 627 420 597 414 569 405 c 0
 440 361 409 238 397 116 c 0
 396 101 394 8 392 4 c 0
 390 1 387 1 383 1 c 0
 364 1 337 41 332 58 c 0
 327 75 330 122 329 142 c 0
 327 210 317 322 283 381 c 0
 267 409 238 416 208 416 c 0
 103 416 80 323 80 237 c 0
 80 186 92 123 120 80 c 0
 135 58 161 44 161 13 c 0
 161 5 158 1 150 1 c 0
 140 1 125 16 118 23 c 0
EndSplineSet
Ligature2: "'liga' +BCEEQgQwBD0ENAQwBEAEQgQ9BEsENQAA +BDsEOAQzBDAEQgRDBEAESwAA in Latin lookup 0 subtable" Tutg.N Tutg.Uml.U
EndChar

StartChar: n_U
Encoding: 1114148 -1 99
Width: 823
GlyphClass: 3
Flags: W
HStem: -231 81<206.62 788.18> -118 81<216.753 625.992> 1 21G<145 154 373.5 386> 416 81<134.954 241.408 525.923 670.596>
VStem: 17 63<159.682 351.873> 329 65<58.8186 228.721> 724 64<44.6078 129.907 276.5 377.573>
LayerCount: 2
Fore
SplineSet
17 293 m 0
 17 352 30 442 84 477 c 0
 105 491 140 497 165 497 c 0
 265 497 329 400 357 315 c 1
 394 431 459 498 586 498 c 0
 688 498 785 401 785 299 c 0
 785 254 756 215 718 192 c 1
 753 159 788 107 788 58 c 0
 788 -36 712 -95 626 -112 c 0
 599 -117 571 -119 544 -119 c 2
 349 -118 l 2
 307 -118 233 -112 205 -150 c 1
 388 -148 570 -144 753 -144 c 0
 774 -144 806 -192 806 -212 c 0
 806 -226 794 -226 783 -226 c 0
 595 -226 409 -231 221 -231 c 0
 177 -231 133 -156 133 -117 c 0
 133 -48 209 -37 262 -37 c 0
 328 -37 394 -38 460 -38 c 0
 499 -38 539 -40 577 -32 c 0
 649 -18 724 33 724 114 c 0
 724 119 723 127 721 131 c 0
 714 145 674 160 659 164 c 0
 651 166 643 167 635 171 c 0
 617 181 592 215 592 236 c 0
 592 243 594 247 601 249 c 0
 612 253 625 254 636 258 c 0
 680 273 721 310 721 360 c 0
 721 368 720 379 716 386 c 0
 705 406 649 417 628 417 c 0
 475 417 422 301 403 168 c 0
 398 131 394 93 394 56 c 0
 394 45 396 17 393 8 c 0
 391 2 389 1 383 1 c 0
 364 1 337 41 332 58 c 0
 327 75 330 122 329 142 c 0
 327 211 317 321 283 381 c 0
 267 409 238 416 208 416 c 0
 103 416 80 323 80 237 c 0
 80 186 92 123 120 80 c 0
 135 58 161 44 161 13 c 0
 161 5 158 1 150 1 c 0
 140 1 125 16 118 23 c 0
 51 90 17 199 17 293 c 0
EndSplineSet
Ligature2: "'liga' +BCEEQgQwBD0ENAQwBEAEQgQ9BEsENQAA +BDsEOAQzBDAEQgRDBEAESwAA in Latin lookup 0 subtable" Tutg.N Tutg.Uml.Uu
EndChar

StartChar: r_u
Encoding: 1114149 -1 100
Width: 613
GlyphClass: 3
Flags: W
HStem: -241 80<207.708 548.389> -124 81<224.956 527.28> -6 81<328.313 437.555> 205 80<335.05 462.877> 419 81<232.786 395.864>
VStem: 17 64<135.091 266.54> 233 63<93.8613 214> 514 63<226 298.482> 549 64<-21.5608 69.8871>
LayerCount: 2
Fore
SplineSet
130 24 m 0xff
 64 71 17 150 17 232 c 0
 17 377 140 500 285 500 c 0
 336 500 402 483 444 454 c 0
 524 399 577 282 577 186 c 0xff
 577 171 576 157 574 143 c 1
 598 97 613 47 613 2 c 0
 613 -47 601 -107 547 -122 c 0
 535 -125 522 -125 510 -125 c 0
 465 -125 421 -124 376 -124 c 0
 320 -124 252 -118 207 -159 c 1
 206 -161 l 1
 244 -161 516 -159 523 -162 c 0
 544 -171 571 -206 571 -229 c 0
 571 -237 568 -241 560 -241 c 2
 218 -241 l 2
 174 -241 130 -169 130 -130 c 0
 130 -49 243 -43 301 -43 c 2
 441 -44 l 2
 464 -44 491 -47 512 -35 c 0
 547 -15 549 34 549 70 c 1xfe80
 518 22 458 -6 402 -6 c 0
 311 -6 233 88 233 176 c 0
 233 252 300 285 367 285 c 0
 427 285 471 267 514 226 c 1
 514 278 505 345 463 381 c 0
 434 406 364 419 326 419 c 0
 198 419 81 304 81 175 c 0
 81 77 134 107 168 44 c 0
 172 36 177 26 177 17 c 0
 177 9 174 5 166 5 c 0
 159 5 136 20 130 24 c 0xff
410 205 m 0
 360 205 296 177 296 119 c 0
 296 114 300 94 303 90 c 0
 312 79 347 75 361 75 c 0
 422 75 486 117 505 175 c 1
 480 197 447 205 410 205 c 0
EndSplineSet
Ligature2: "'liga' +BCEEQgQwBD0ENAQwBEAEQgQ9BEsENQAA +BDsEOAQzBDAEQgRDBEAESwAA in Latin lookup 0 subtable" Tutg.R Tutg.Uml.U
EndChar

StartChar: r_U
Encoding: 1114150 -1 101
Width: 756
GlyphClass: 3
Flags: W
HStem: -228 80<268.76 714.352> -111 81<286.434 658.727> -6 81<328.735 437.375> 222 81<373.814 507.365> 419 81<232.786 395.775>
VStem: 17 64<135.091 266.54> 233 64<94.4423 224.5> 513 64<147.687 205.718>
LayerCount: 2
Fore
SplineSet
17 232 m 0
 17 377 140 500 285 500 c 0
 427 500 523 411 563 278 c 1
 625 256 679 227 709 165 c 0
 715 153 719 139 719 126 c 0
 719 105 713 90 701 73 c 1
 728 53 756 15 756 -20 c 0
 756 -68 703 -99 662 -108 c 0
 647 -111 632 -112 617 -112 c 2
 469 -111 l 2
 415 -111 308 -104 267 -145 c 1
 287 -148 307 -148 327 -148 c 0
 437 -148 548 -147 658 -147 c 0
 664 -147 683 -147 688 -149 c 0
 709 -156 736 -194 736 -216 c 0
 736 -224 733 -228 725 -228 c 2
 342 -228 l 2
 284 -228 238 -208 208 -157 c 0
 199 -142 192 -125 192 -107 c 0
 192 -38 313 -30 361 -30 c 2
 528 -31 l 2
 585 -31 643 -36 683 14 c 1
 672 16 662 16 651 16 c 0
 645 16 636 15 630 17 c 0
 609 25 582 61 582 84 c 0
 582 86 583 91 584 93 c 0
 589 99 596 102 602 107 c 0
 623 124 647 146 655 172 c 1
 633 185 605 197 576 206 c 1
 577 200 577 193 577 186 c 0
 577 109 554 47 481 12 c 0
 456 0 429 -6 402 -6 c 0
 312 -6 233 89 233 176 c 0
 233 273 372 303 448 303 c 0
 465 303 486 300 508 295 c 1
 501 328 486 362 463 381 c 0
 434 406 364 419 326 419 c 0
 198 419 81 304 81 175 c 0
 81 77 133 107 168 44 c 0
 172 36 177 26 177 17 c 0
 177 9 174 5 166 5 c 0
 159 5 136 20 130 24 c 0
 64 71 17 150 17 232 c 0
297 119 m 0
 297 113 299 94 303 90 c 0
 313 78 347 75 361 75 c 0
 383 75 407 82 427 91 c 0
 485 119 509 162 513 221 c 1
 505 222 497 222 490 222 c 0
 433 222 341 204 308 152 c 0
 302 142 297 131 297 119 c 0
EndSplineSet
Ligature2: "'liga' +BCEEQgQwBD0ENAQwBEAEQgQ9BEsENQAA +BDsEOAQzBDAEQgRDBEAESwAA in Latin lookup 0 subtable" Tutg.R Tutg.Uml.Uu
EndChar

StartChar: t_u
Encoding: 1114151 -1 102
Width: 976
GlyphClass: 3
Flags: W
HStem: 1 81<345.382 428.887 759 934.434> 423 81<201.144 338.839 533.194 652.222>
VStem: 17 64<149.688 308.01> 271 63<87.2126 200.744> 459 63<114.967 263.796> 730 64<178.428 357.624>
LayerCount: 2
Fore
SplineSet
124 23 m 0
 53 86 17 177 17 271 c 0
 17 407 121 504 258 504 c 0
 313 504 363 474 405 430 c 1
 451 472 508 500 570 500 c 0
 702 500 794 380 794 254 c 0
 794 194 782 134 759 79 c 1
 780 79 904 81 911 78 c 0
 932 70 959 34 959 11 c 0
 959 3 956 -1 948 -1 c 2
 697 -1 l 2
 676 -1 644 47 644 67 c 0
 644 69 645 74 646 76 c 0
 650 82 657 84 662 89 c 0
 705 132 730 244 730 301 c 0
 730 323 727 369 713 386 c 0
 693 412 643 420 612 420 c 0
 559 420 506 393 461 352 c 1
 499 285 522 208 522 149 c 0
 522 75 501 1 413 1 c 0
 348 1 296 56 278 115 c 0
 273 133 271 152 271 171 c 0
 271 248 324 343 373 399 c 1
 352 414 328 423 299 423 c 0
 179 423 81 336 81 215 c 0
 81 178 86 124 110 95 c 0
 119 84 131 76 141 67 c 0
 155 55 173 29 173 10 c 0
 173 2 170 -2 162 -2 c 0
 153 -2 131 17 124 23 c 0
459 205 m 0
 459 242 450 285 432 323 c 1
 374 259 334 173 334 103 c 0
 334 98 335 94 336 89 c 1
 346 85 361 82 372 82 c 0
 443 82 459 147 459 205 c 0
EndSplineSet
Ligature2: "'liga' +BCEEQgQwBD0ENAQwBEAEQgQ9BEsENQAA +BDsEOAQzBDAEQgRDBEAESwAA in Latin lookup 0 subtable" Tutg.T Tutg.Uml.U
EndChar

StartChar: t_U
Encoding: 1114152 -1 103
Width: 842
GlyphClass: 3
Flags: W
HStem: -232 81<225.62 807.281> -119 81<235.753 651.732> 1 81<345.382 428.887> 423 81<201.144 338.839 533.194 679.106>
VStem: 17 64<149.863 308.01> 271 63<87.2126 200.743> 459 63<114.967 263.796> 755 63<5.81601 131.223 281 382.248>
LayerCount: 2
Fore
SplineSet
124 23 m 0
 53 86 17 177 17 271 c 0
 17 407 121 504 258 504 c 0
 313 504 363 474 405 430 c 1
 451 472 508 500 570 500 c 0
 657 500 737 473 787 398 c 0
 806 369 818 337 818 302 c 0
 818 260 787 210 751 189 c 1
 752 189 l 1
 789 153 818 106 818 53 c 0
 818 -38 725 -97 645 -113 c 0
 618 -118 590 -120 562 -120 c 2
 369 -119 l 2
 327 -119 252 -112 224 -151 c 1
 407 -149 589 -145 772 -145 c 0
 793 -145 825 -193 825 -213 c 0
 825 -229 810 -226 798 -226 c 0
 612 -226 426 -232 240 -232 c 0
 196 -232 152 -157 152 -118 c 0
 152 -49 228 -38 281 -38 c 0
 347 -38 413 -39 479 -39 c 0
 566 -39 654 -39 718 30 c 0
 737 51 755 81 755 110 c 0
 755 115 754 127 752 131 c 0
 747 141 708 155 696 158 c 0
 688 160 679 161 672 165 c 0
 654 174 629 209 629 230 c 0
 629 234 630 239 633 241 c 0
 637 244 656 248 662 250 c 0
 705 264 754 311 754 359 c 0
 754 366 754 376 751 382 c 0
 750 384 742 390 740 391 c 0
 704 413 653 420 612 420 c 0
 559 420 506 393 461 352 c 1
 499 285 522 208 522 149 c 0
 522 75 501 1 413 1 c 0
 348 1 296 56 278 115 c 0
 273 133 271 152 271 171 c 0
 271 248 324 343 373 398 c 1
 352 414 328 423 299 423 c 0
 179 423 81 336 81 215 c 0
 81 179 86 124 110 95 c 0
 119 84 131 76 141 67 c 0
 155 55 173 29 173 10 c 0
 173 2 170 -2 162 -2 c 0
 153 -2 131 17 124 23 c 0
459 205 m 0
 459 242 450 285 432 323 c 1
 374 259 334 173 334 103 c 0
 334 98 335 94 336 89 c 1
 346 85 361 82 372 82 c 0
 443 82 459 147 459 205 c 0
EndSplineSet
Ligature2: "'liga' +BCEEQgQwBD0ENAQwBEAEQgQ9BEsENQAA +BDsEOAQzBDAEQgRDBEAESwAA in Latin lookup 0 subtable" Tutg.T Tutg.Uml.Uu
EndChar

StartChar: A_l
Encoding: 1114153 -1 104
Width: 0
GlyphClass: 3
Flags: W
HStem: -221 81<-570.727 -484.053 -243.993 -114.771> -65 82<-536.594 -457.009> -50 81<-196.954 -113.708>
VStem: -637 65<-143.778 -98.6069> -455 64<-112.408 -81.7024> -85 63<-111.242 -58.0263>
LayerCount: 2
Fore
SplineSet
-637 -107 m 0xbc
 -637 -1 -563 17 -473 17 c 0xdc
 -405 17 -336 -140 -192 -140 c 0
 -155 -140 -112 -129 -93 -94 c 0
 -88 -86 -85 -76 -85 -66 c 1
 -101 -56 -132 -51 -151 -50 c 0
 -158 -50 -165 -50 -172 -48 c 0
 -192 -42 -220 -2 -220 19 c 0
 -220 27 -217 31 -209 31 c 0
 -137 31 -76 3 -40 -61 c 0
 -30 -78 -22 -99 -22 -119 c 0
 -22 -192 -84 -221 -148 -221 c 0
 -268 -221 -352 -123 -400 -81 c 1
 -394 -96 -391 -110 -391 -123 c 0
 -391 -189 -455 -225 -515 -225 c 0
 -561 -225 -592 -204 -617 -167 c 0
 -629 -149 -637 -128 -637 -107 c 0xbc
-572 -144 m 1
 -558 -144 l 2
 -514 -144 -455 -116 -455 -65 c 1
 -508 -67 -563 -82 -572 -144 c 1
EndSplineSet
LCarets2: 1 0
Ligature2: "'liga' +BCEEQgQwBD0ENAQwBEAEQgQ9BEsENQAA +BDsEOAQzBDAEQgRDBEAESwAA in Latin lookup 0 subtable" Tutg.Uml.Vir Tutg.L
EndChar

StartChar: A_r
Encoding: 1114154 -1 105
Width: 159
GlyphClass: 3
Flags: W
HStem: -223 81<-323.314 -109.863>
VStem: 75 67<53.4475 159.441>
LayerCount: 2
Fore
SplineSet
-484 -129 m 0
 -500 -117 -522 -88 -522 -67 c 0
 -522 -59 -519 -55 -511 -55 c 0
 -506 -55 -496 -61 -492 -63 c 0
 -411 -109 -323 -142 -228 -142 c 0
 -53 -142 53 -23 75 140 c 0
 77 152 73 182 89 182 c 0
 110 182 142 134 142 114 c 0
 142 81 134 46 125 14 c 0
 82 -137 -29 -223 -187 -223 c 0
 -284 -223 -374 -190 -458 -144 c 0
 -467 -139 -476 -135 -484 -129 c 0
EndSplineSet
Ligature2: "'liga' +BCEEQgQwBD0ENAQwBEAEQgQ9BEsENQAA +BDsEOAQzBDAEQgRDBEAESwAA in Latin lookup 0 subtable" Tutg.Uml.Vir Tutg.R
EndChar

StartChar: A_v
Encoding: 1114155 -1 106
Width: 122
GlyphClass: 3
Flags: W
HStem: -143 81<-364.626 41>
VStem: 41 64<-65 400.504>
LayerCount: 2
Fore
SplineSet
-365 -158 m 0
 -386 -158 -418 -110 -418 -90 c 0
 -418 -86 -417 -82 -414 -79 c 0
 -394 -62 -186 -62 -147 -62 c 0
 -87 -62 -28 -65 32 -65 c 2
 41 -65 l 1
 41 310 l 2
 41 324 40 415 43 420 c 0
 46 423 48 423 52 423 c 0
 73 423 105 375 105 355 c 2
 105 -133 l 2
 105 -144 99 -146 89 -146 c 0
 17 -146 -54 -143 -126 -143 c 0
 -180 -143 -235 -143 -289 -147 c 0
 -307 -148 -325 -150 -343 -154 c 0
 -350 -156 -357 -158 -365 -158 c 0
EndSplineSet
LCarets2: 1 0
Ligature2: "'liga' +BCEEQgQwBD0ENAQwBEAEQgQ9BEsENQAA +BDsEOAQzBDAEQgRDBEAESwAA in Latin lookup 0 subtable" Tutg.Uml.Vir Tutg.V
EndChar

StartChar: A_s
Encoding: 1114156 -1 107
Width: 172
GlyphClass: 3
Flags: W
HStem: -247 81<-8.70212 45.378> -87 81<-334.26 -255.545 -143.726 -69.1486>
VStem: -411 93<-167 -76> -89 90<-165.436 -89.9822> 91 64<-108.85 99.1905>
LayerCount: 2
Fore
SplineSet
-411 -76 m 0
 -411 -29 -359 -6 -318 -6 c 0
 -281 -6 -248 -29 -224 -56 c 1
 -203 -22 -158 -7 -121 -7 c 0
 -62 -7 1 -68 1 -127 c 0
 1 -140 -4 -154 -9 -166 c 1
 77 -166 91 -55 91 10 c 0
 91 56 83 113 65 156 c 1
 50 169 31 194 31 215 c 0
 31 223 34 227 42 227 c 0
 50 227 68 213 74 207 c 0
 133 149 155 35 155 -46 c 0
 155 -141 135 -247 22 -247 c 0
 7 -247 -10 -246 -24 -241 c 0
 -57 -229 -89 -186 -89 -150 c 0
 -89 -128 -73 -110 -68 -89 c 1
 -72 -89 -76 -88 -80 -88 c 0
 -109 -88 -145 -102 -162 -126 c 0
 -174 -143 -173 -161 -176 -166 c 0
 -178 -169 -181 -169 -185 -169 c 0
 -200 -169 -224 -139 -230 -126 c 0
 -233 -120 -239 -98 -241 -96 c 0
 -247 -90 -268 -87 -276 -87 c 0
 -296 -87 -332 -99 -342 -118 c 1
 -332 -129 -318 -152 -318 -167 c 0
 -318 -175 -321 -179 -329 -179 c 0
 -333 -179 -341 -175 -345 -173 c 0
 -374 -155 -411 -112 -411 -76 c 0
EndSplineSet
LCarets2: 1 0
Ligature2: "'liga' +BCEEQgQwBD0ENAQwBEAEQgQ9BEsENQAA +BDsEOAQzBDAEQgRDBEAESwAA in Latin lookup 0 subtable" Tutg.Uml.Vir Tutg.S
EndChar

StartChar: j_A_j
Encoding: 1114157 -1 108
Width: 2408
GlyphClass: 3
Flags: W
HStem: 0 81<123.092 194.648 687.324 814.289 1165.89 1239.97 1729.1 1858.67 2166.09 2285.78> 183 81<2189.19 2272.11> 209 81<108.612 189.698> 407 81<1265.75 1370.89> 409 81<218.734 326.684 544.416 636.38 1589.91 1678.92> 416 81<1054.73 1137.76 2101.38 2213.73>
VStem: 244 64<79.5 175.712> 409 69<78.7129 322.419> 619 64<83.1461 171.14> 672 64<259.538 374.091> 1061 63<133.595 274.3> 1283 64<125.877 272.409> 1453 69<76.7129 317.799> 1663 64<81.1461 169.14> 1716 64<257.33 372.091> 2081 64<88.2896 139.283> 2327 64<138.372 267.309>
LayerCount: 2
Fore
SplineSet
19 210 m 0xc37980
 18 219 17 227 17 235 c 0
 17 275 24 315 41 351 c 0
 74 419 172 490 249 490 c 0
 332 490 393 422 426 353 c 1
 446 427 487 495 563 495 c 0
 652 495 736 376 736 293 c 0xcb7980
 736 221 688 159 683 87 c 1
 702 82 722 81 741 81 c 0
 868 81 861 197 879 290 c 0
 888 335 900 380 929 417 c 0
 965 465 1039 499 1098 499 c 0
 1134 499 1169 481 1197 459 c 1
 1229 477 1263 488 1293 488 c 0
 1376 488 1437 420 1470 351 c 1
 1490 425 1531 493 1607 493 c 0
 1696 493 1780 374 1780 291 c 0xb3bb80
 1780 219 1732 157 1727 85 c 1
 1746 80 1766 79 1785 79 c 0
 1986 79 1843 348 2031 464 c 0
 2063 484 2104 497 2142 497 c 0
 2173 497 2207 482 2232 464 c 0
 2323 400 2391 264 2391 153 c 0
 2391 74 2358 0 2268 0 c 0
 2198 0 2138 22 2100 84 c 0
 2089 102 2081 124 2081 145 c 0
 2081 211 2147 264 2210 264 c 0
 2257 264 2298 227 2326 186 c 1
 2327 194 2327 202 2327 210 c 0
 2327 291 2280 416 2183 416 c 0
 2152 416 2112 402 2086 386 c 0
 1902 272 2055 -2 1826 -2 c 0
 1766 -2 1720 13 1686 66 c 0
 1671 89 1663 112 1663 140 c 0xc73d80
 1663 212 1716 276 1716 348 c 0
 1716 389 1690 412 1650 412 c 0
 1549 412 1518 252 1516 176 c 1
 1521 136 1522 97 1522 61 c 0
 1522 53 1519 49 1511 49 c 0
 1504 49 1493 58 1488 62 c 0
 1475 74 1465 89 1460 106 c 0
 1453 128 1453 184 1453 214 c 0
 1446 285 1431 369 1395 391 c 0
 1377 402 1357 407 1336 407 c 0
 1314 407 1289 400 1265 388 c 1
 1315 320 1347 232 1347 155 c 0
 1347 99 1332 50 1295 24 c 1
 1281 9 1241 1 1228 1 c 0
 1127 1 1061 146 1061 233 c 0
 1061 310 1083 367 1139 418 c 1
 1108 418 1068 404 1042 388 c 0
 858 274 1011 0 782 0 c 0
 721 0 676 15 642 68 c 0
 627 91 619 114 619 142 c 0x93bb80
 619 214 672 279 672 350 c 0
 672 391 646 414 606 414 c 0
 588 414 572 408 557 398 c 0
 494 357 474 251 472 178 c 1
 477 138 478 99 478 63 c 0
 478 55 475 51 467 51 c 0
 460 51 449 60 444 64 c 0
 431 76 421 91 416 108 c 0
 408 131 409 193 409 221 c 0
 404 277 392 335 369 372 c 0
 352 400 323 409 292 409 c 0
 228 409 143 348 108 290 c 1
 110 290 113 290 115 290 c 0xab7980
 201 290 308 196 308 108 c 0
 308 51 236 3 184 3 c 0
 101 3 42 100 23 183 c 0
 20 190 18 197 18 202 c 0
 18 205 18 207 19 210 c 0xc37980
1124 176 m 0
 1124 142 1131 89 1172 83 c 0
 1193 83 1211 87 1230 96 c 0
 1268 117 1283 160 1283 212 c 0
 1283 260 1266 325 1232 368 c 1
 1161 320 1124 262 1124 176 c 0
83 148 m 0
 90 112 97 84 141 84 c 0
 176 84 244 125 244 164 c 0
 244 166 244 172 243 174 c 0
 229 194 180 209 156 209 c 0xa33980
 125 209 96 195 86 164 c 0
 84 159 84 153 83 148 c 0
2251 183 m 0xc33980
 2200 183 2158 144 2145 96 c 1
 2145 95 l 1
 2166 85 2201 81 2225 81 c 0
 2268 81 2296 103 2311 134 c 1
 2297 159 2291 183 2251 183 c 0xc33980
EndSplineSet
LCarets2: 2 0 0
Ligature2: "'liga' +BCEEQgQwBD0ENAQwBEAEQgQ9BEsENQAA +BDsEOAQzBDAEQgRDBEAESwAA in Latin lookup 0 subtable" Tutg.J Tutg.Uml.Vir Tutg.J
EndChar

StartChar: k_A_k
Encoding: 1114158 -1 109
Width: 1329
GlyphClass: 3
Flags: W
HStem: 2 81<190.782 246.141 458.281 536.672 751.085 807.141 1019.49 1107.07> 425 81<176.581 317.436 513.411 860.851> 427 81<181.113 317.436 615.421 860.851 1059.33 1175.8>
VStem: 17 62<263.496 332.801> 127 63<83.329 171.29> 564 63<158.708 282.228> 688 63<83.4646 175.819> 1125 64<158.817 282.624>
LayerCount: 2
Fore
SplineSet
17 309 m 0xdf
 17 440 113 506 236 506 c 0xdf
 296 506 355 493 409 470 c 1
 416 472 422 475 429 477 c 0
 480 494 573 504 628 504 c 2
 633 504 l 2
 645 504 655 504 664 502 c 0
 705 502 747 502 788 502 c 0
 845 502 898 495 951 475 c 1
 995 495 1041 508 1084 508 c 0
 1184 508 1252 441 1291 355 c 0
 1297 342 1312 307 1312 294 c 0
 1312 286 1309 282 1301 282 c 0
 1296 282 1288 287 1284 290 c 0
 1243 324 1255 356 1228 389 c 0
 1204 419 1164 427 1127 427 c 0xbf
 1105 427 1082 423 1058 416 c 1
 1128 364 1189 278 1189 188 c 0
 1189 126 1146 1 1069 1 c 0
 1025 1 969 72 948 107 c 1
 913 67 857 2 799 2 c 0
 752 2 709 66 696 106 c 0
 691 123 688 140 688 158 c 0
 688 258 788 364 862 420 c 1
 852 421 841 421 829 421 c 0
 757 421 685 420 612 420 c 0
 579 417 542 412 512 405 c 1
 572 354 627 274 627 192 c 0
 627 171 625 151 620 131 c 0
 607 83 567 1 510 1 c 0
 463 1 409 69 387 107 c 1
 352 67 296 2 238 2 c 0
 190 2 145 70 133 111 c 0
 128 126 127 141 127 157 c 0
 127 259 235 366 314 419 c 0
 316 420 317 421 319 423 c 1
 304 424 291 425 278 425 c 0
 184 425 94 377 82 278 c 0
 81 270 82 251 79 244 c 0
 77 241 73 241 70 241 c 0
 49 241 17 289 17 309 c 0xdf
191 111 m 0
 190 106 190 102 190 97 c 0
 190 92 190 87 191 83 c 1
 196 83 l 2
 236 83 291 140 316 168 c 0
 326 179 336 194 347 203 c 0
 349 204 352 204 354 204 c 0
 368 204 388 180 395 170 c 0
 410 149 438 82 466 82 c 0
 510 82 547 161 557 197 c 0
 562 214 564 231 564 248 c 0
 564 313 514 358 453 386 c 1
 340 339 214 230 191 111 c 0
996 391 m 1
 906 345 751 213 751 98 c 0
 751 93 752 88 753 83 c 1
 757 83 l 2
 797 83 852 140 877 168 c 0
 887 179 897 194 908 203 c 0
 910 205 913 204 915 204 c 0
 952 204 989 82 1027 82 c 0
 1083 82 1125 198 1125 244 c 0
 1125 318 1062 369 996 391 c 1
EndSplineSet
LCarets2: 2 0 0
Ligature2: "'liga' +BCEEQgQwBD0ENAQwBEAEQgQ9BEsENQAA +BDsEOAQzBDAEQgRDBEAESwAA in Latin lookup 0 subtable" Tutg.K Tutg.Uml.Vir Tutg.K
EndChar

StartChar: g_A_g
Encoding: 1114159 -1 110
Width: 1378
GlyphClass: 3
Flags: W
HStem: 0 81<157.513 274.827 731.446 827.659 1126.65 1226.72> 417 81<175.264 280.554 567.463 642.146 1108.39 1201.98>
VStem: 22 64<162.363 319.275> 642 65<110.329 417.555> 1295 64<147.887 294.91>
LayerCount: 2
Fore
SplineSet
22 276 m 0
 22 394 87 498 215 498 c 0
 254 498 275 491 295 456 c 0
 300 447 305 436 305 426 c 0
 305 418 302 414 294 414 c 0
 281 414 269 417 256 417 c 0
 145 417 86 322 86 220 c 0
 86 139 107 81 198 81 c 0
 403 81 348 398 522 482 c 0
 532 487 551 495 561 495 c 0
 564 496 566 497 568 497 c 0
 578 499 587 500 597 500 c 0
 614 500 631 492 644 481 c 0
 695 440 707 373 707 311 c 0
 707 274 705 236 705 199 c 0
 705 182 708 99 718 90 c 0
 725 84 747 81 756 81 c 0
 988 81 882 495 1142 495 c 0
 1237 495 1317 362 1342 283 c 0
 1353 247 1359 209 1359 172 c 0
 1359 146 1354 120 1344 96 c 0
 1314 20 1248 -1 1172 -1 c 0
 1166 -1 1158 -1 1153 1 c 0
 1132 8 1105 46 1105 68 c 0
 1105 76 1108 80 1116 80 c 0
 1140 80 1164 80 1188 86 c 0
 1256 103 1295 161 1295 229 c 0
 1295 299 1267 415 1179 415 c 0
 1157 415 1128 407 1109 396 c 0
 958 306 1022 0 797 0 c 0
 724 0 671 73 654 138 c 0
 644 176 642 217 642 256 c 0
 642 293 643 331 643 368 c 0
 643 385 642 402 640 419 c 1
 638 419 l 2
 604 419 564 392 547 386 c 1
 531 374 517 359 506 344 c 0
 424 228 426 0 240 0 c 0
 102 0 22 154 22 276 c 0
EndSplineSet
LCarets2: 2 0 0
Ligature2: "'liga' +BCEEQgQwBD0ENAQwBEAEQgQ9BEsENQAA +BDsEOAQzBDAEQgRDBEAESwAA in Latin lookup 0 subtable" Tutg.G Tutg.Uml.Vir Tutg.G
EndChar

StartChar: c_A_c
Encoding: 1114160 -1 111
Width: 765
GlyphClass: 3
Flags: W
HStem: -247 80<33.7219 67.28 270 661> 0 81<317 435> 416 81<207.074 335.992>
VStem: 79 62<303.496 353.15> 395 63<261.849 375.549> 661 64<-167 -11> 689 64<114.185 305.471>
LayerCount: 2
Fore
SplineSet
11 -179 m 0xfc
 11 -175 12 -171 15 -168 c 0
 20 -163 142 -117 161 -110 c 0
 190 -98 315 -48 435 0 c 1
 423 0 412 0 400 0 c 0
 359 0 79 0 65 6 c 0
 44 15 17 50 17 73 c 0
 17 76 18 82 21 84 c 0
 25 86 38 86 43 87 c 0
 173 101 395 191 395 339 c 0
 395 374 392 386 360 402 c 0
 337 413 311 416 286 416 c 0
 218 416 155 373 144 304 c 0
 143 298 144 289 141 284 c 0
 139 281 135 281 132 281 c 0
 111 281 79 329 79 349 c 0
 79 438 159 497 243 497 c 0
 360 497 458 400 458 283 c 0
 458 190 392 125 317 81 c 1
 359 81 l 2
 420 81 482 82 543 83 c 0
 571 84 601 80 629 86 c 0
 682 99 689 169 689 215 c 0
 689 266 678 356 646 396 c 0
 640 404 627 405 619 409 c 0
 601 419 576 453 576 474 c 0
 576 482 579 486 587 486 c 0
 602 486 631 467 642 457 c 0
 721 386 753 261 753 158 c 0xfa
 753 122 746 68 723 35 c 0
 724 31 725 27 725 24 c 2
 725 -235 l 2
 725 -243 722 -247 714 -247 c 2
 64 -247 l 2
 43 -247 11 -199 11 -179 c 0xfc
661 -11 m 1xfc
 270 -167 l 1
 661 -167 l 1
 661 -11 l 1xfc
EndSplineSet
LCarets2: 2 0 0
Ligature2: "'liga' +BCEEQgQwBD0ENAQwBEAEQgQ9BEsENQAA +BDsEOAQzBDAEQgRDBEAESwAA in Latin lookup 0 subtable" Tutg.C Tutg.Uml.Vir Tutg.C
EndChar

StartChar: q_A_q
Encoding: 1114161 -1 112
Width: 550
GlyphClass: 3
Flags: W
HStem: -83 81<189.395 364.013> 60 81<189.052 320.726> 286 81<309.612 438.276> 421 81<293.172 399.954>
VStem: 17 65<103.917 230.504> 83 65<189.345 310.225> 439 63<234.768 284.708> 469 64<23 148.419>
LayerCount: 2
Fore
SplineSet
17 232 m 0xfd
 17 240 18 253 29 253 c 0
 50 253 82 205 82 185 c 0
 82 109 81 49 162 16 c 0
 194 3 227 -2 262 -2 c 0
 334 -2 469 43 469 133 c 0xfd
 469 139 468 144 467 149 c 1
 420 96 341 60 269 60 c 0
 148 60 83 190 83 296 c 0
 83 307 79 333 95 333 c 0
 116 333 148 285 148 265 c 0
 148 234 145 192 160 163 c 0
 168 148 211 141 227 141 c 0
 297 141 388 185 425 246 c 0
 432 257 439 271 439 284 c 1
 431 286 423 286 415 286 c 0
 365 286 318 259 269 259 c 0
 220 259 178 338 178 381 c 0
 178 476 276 502 353 502 c 0
 360 502 368 502 375 500 c 0
 395 494 423 454 423 433 c 0
 423 425 420 421 412 421 c 0
 351 421 262 412 244 342 c 1
 286 351 328 367 372 367 c 0
 387 367 403 365 417 359 c 0
 463 340 502 279 502 229 c 0xfe
 502 215 499 202 494 190 c 1
 516 154 533 120 533 77 c 0
 533 -31 396 -83 305 -83 c 0
 122 -83 17 58 17 232 c 0xfd
EndSplineSet
LCarets2: 2 0 0
Ligature2: "'liga' +BCEEQgQwBD0ENAQwBEAEQgQ9BEsENQAA +BDsEOAQzBDAEQgRDBEAESwAA in Latin lookup 0 subtable" Tutg.Tt Tutg.Uml.Vir Tutg.Tt
EndChar

StartChar: t_A_t
Encoding: 1114162 -1 113
Width: 1137
GlyphClass: 3
Flags: W
HStem: 1 81<345.382 428.887 671.382 753.831> 419 81<195.867 345.66 526.145 655.246 852.246 987.604>
VStem: 17 64<149.688 308.01> 271 63<87.2126 200.254> 459 63<114.967 264.836> 597 63<87.2126 200.687> 782 63<111.832 259.142> 1056 64<170.529 356.369>
LayerCount: 2
Fore
SplineSet
124 23 m 0
 53 86 17 177 17 271 c 0
 17 407 121 504 258 504 c 0
 313 504 363 474 405 430 c 1
 451 471 507 499 570 500 c 0
 631 500 683 469 725 425 c 1
 773 469 832 500 896 500 c 0
 1029 500 1120 378 1120 252 c 0
 1120 177 1099 71 1050 13 c 0
 1044 6 1034 -7 1023 -7 c 0
 1002 -7 970 41 970 61 c 0
 970 74 980 75 988 83 c 0
 996 91 1002 102 1008 112 c 0
 1042 171 1056 241 1056 308 c 0
 1056 337 1051 382 1024 399 c 0
 1000 414 966 420 938 420 c 0
 884 420 829 391 783 348 c 1
 823 279 845 208 845 128 c 0
 845 80 827 21 776 5 c 0
 764 1 751 1 739 1 c 0
 674 1 622 56 604 115 c 0
 599 133 597 152 597 171 c 0
 597 246 648 339 695 394 c 1
 666 414 642 419 607 419 c 0
 599 418 591 418 583 417 c 0
 535 410 498 382 461 353 c 1
 499 285 522 208 522 149 c 0
 522 75 501 1 413 1 c 0
 348 1 296 56 278 115 c 0
 273 133 271 152 271 171 c 0
 271 248 324 343 373 399 c 1
 352 414 328 423 299 423 c 0
 179 423 81 336 81 215 c 0
 81 178 86 124 110 95 c 0
 119 84 131 76 141 67 c 0
 155 55 173 29 173 10 c 0
 173 2 170 -2 162 -2 c 0
 153 -2 131 17 124 23 c 0
459 205 m 0
 459 242 450 285 432 323 c 1
 377 262 334 177 334 103 c 0
 334 98 335 94 336 89 c 1
 346 85 361 82 372 82 c 0
 443 82 459 147 459 205 c 0
782 184 m 0
 782 226 773 275 753 318 c 1
 698 254 660 171 660 103 c 0
 660 98 661 94 662 89 c 1
 672 85 687 82 698 82 c 0
 757 82 782 132 782 184 c 0
EndSplineSet
Ligature2: "'liga' +BCEEQgQwBD0ENAQwBEAEQgQ9BEsENQAA +BDsEOAQzBDAEQgRDBEAESwAA in Latin lookup 0 subtable" Tutg.T Tutg.Uml.Vir Tutg.T
EndChar

StartChar: n_A_n
Encoding: 1114163 -1 114
Width: 1229
GlyphClass: 3
Flags: W
HStem: 1 21G<145 154 373.5 385> 416 81<134.954 242.809 541.81 662.464 963.162 1125.86>
VStem: 17 63<161.178 351.873> 332 60<21.9947 212.563> 754 61<25.2473 219.395> 1149 63<214.729 394.485>
LayerCount: 2
Fore
SplineSet
118 23 m 0
 51 90 17 200 17 293 c 0
 17 352 30 442 84 477 c 0
 105 491 140 497 165 497 c 0
 268 497 330 398 359 311 c 1
 388 398 434 459 523 488 c 0
 531 492 560 497 569 497 c 0
 576 498 581 498 584 498 c 0
 689 498 750 398 781 310 c 1
 790 336 800 362 814 385 c 0
 864 466 945 503 1038 503 c 0
 1145 503 1212 396 1212 298 c 0
 1212 208 1186 120 1149 39 c 0
 1146 32 1135 8 1131 4 c 0
 1129 2 1126 3 1124 3 c 0
 1103 3 1071 51 1071 71 c 0
 1071 79 1086 105 1090 114 c 0
 1123 185 1149 274 1149 352 c 0
 1149 363 1146 399 1140 407 c 0
 1132 418 1092 422 1079 422 c 0
 1050 422 1020 416 992 407 c 0
 863 363 832 240 820 118 c 0
 819 104 817 9 815 6 c 0
 813 3 810 3 806 3 c 0
 785 3 757 48 754 66 c 0
 753 73 752 80 752 87 c 0
 752 130 751 173 747 216 c 0
 743 259 724 373 689 399 c 0
 670 413 650 417 627 417 c 0
 610 417 593 410 576 408 c 0
 446 373 408 235 397 116 c 0
 396 102 394 8 392 4 c 0
 390 1 387 1 383 1 c 0
 364 1 337 41 332 58 c 0
 327 75 330 122 329 142 c 0
 327 210 317 322 283 381 c 0
 267 409 238 416 208 416 c 0
 103 416 80 323 80 237 c 0
 80 186 92 123 120 80 c 0
 135 58 161 44 161 13 c 0
 161 5 158 1 150 1 c 0
 140 1 125 16 118 23 c 0
EndSplineSet
Ligature2: "'liga' +BCEEQgQwBD0ENAQwBEAEQgQ9BEsENQAA +BDsEOAQzBDAEQgRDBEAESwAA in Latin lookup 0 subtable" Tutg.N Tutg.Uml.Vir Tutg.N
EndChar

StartChar: f_A
Encoding: 1114164 -1 115
Width: 0
GlyphClass: 3
Flags: W
HStem: 499 81<-309.188 -263.88 -162.742 -97.5113>
VStem: -375 72<580.504 684.893> -365 62<638.543 685.504> -116 63<561 662.503>
LayerCount: 2
Fore
SplineSet
-265 499 m 0xd0
 -329 499 -375 581 -375 638 c 0xd0
 -375 649 -370 698 -365 705 c 0xb0
 -362 709 -360 708 -356 708 c 0
 -335 708 -303 660 -303 640 c 0
 -303 633 -306 626 -307 619 c 0
 -309 607 -311 594 -311 582 c 2
 -311 580 l 1
 -309 580 l 2
 -286 580 -257 601 -250 623 c 0
 -248 629 -248 643 -245 647 c 0
 -243 650 -240 650 -236 650 c 0
 -208 650 -186 580 -156 580 c 0
 -130 580 -116 614 -116 636 c 0
 -116 669 -134 673 -134 696 c 0
 -134 704 -131 708 -123 708 c 0
 -116 708 -105 700 -100 695 c 0
 -70 667 -53 621 -53 580 c 0
 -53 542 -70 499 -114 499 c 0
 -141 499 -174 528 -191 547 c 1
 -200 521 -238 499 -265 499 c 0xd0
EndSplineSet
Ligature2: "'liga' +BCEEQgQwBD0ENAQwBEAEQgQ9BEsENQAA +BDsEOAQzBDAEQgRDBEAESwAA in Latin lookup 0 subtable" Tutg.Reph Tutg.Uml.Vir
EndChar

StartChar: p_A_p
Encoding: 1114165 -1 116
Width: 945
GlyphClass: 3
Flags: W
HStem: -514 81<459 777.325> -184 81<217.876 363.917> -92 81<672.629 761.673> -4 81<454 772.325> 326 81<212.876 358.917> 418 81<667.629 756.673>
VStem: 22 64<-399.848 -301.641 101.468 216.09> 446 63<-324.477 -240.59 171.5 262.673> 861 64<-358.751 -215.404 160.403 281.869>
LayerCount: 2
Fore
SplineSet
111 20 m 0
 59 65 17 127 17 198 c 0
 17 293 109 371 193 396 c 0
 218 404 244 407 270 407 c 0
 378 407 504 303 504 191 c 0
 504 152 482 112 454 79 c 1
 482 78 510 77 538 77 c 0
 600 77 747 77 797 109 c 0
 836 134 856 189 856 233 c 0
 856 308 821 418 730 418 c 0
 720 418 711 414 701 414 c 0
 680 414 648 462 648 482 c 0
 648 498 673 499 684 499 c 0
 794 499 878 367 906 273 c 0
 915 242 920 209 920 176 c 0
 920 124 898 60 852 31 c 0
 798 -3 658 -4 592 -4 c 0
 520 -4 449 1 377 1 c 2
 361 1 l 2
 359 0 357 0 355 0 c 0
 332 0 301 48 301 69 c 0
 301 77 306 80 312 81 c 1
 311 82 l 1
 361 108 441 189 441 248 c 0
 441 256 441 264 438 272 c 0
 436 276 429 283 425 286 c 0
 394 313 352 326 311 326 c 0
 227 326 139 277 99 203 c 0
 89 184 81 164 81 142 c 0
 81 75 123 86 148 35 c 0
 151 28 155 20 155 12 c 0
 155 4 152 0 144 0 c 0
 136 0 117 15 111 20 c 0
22 -312 m 0
 22 -217 114 -139 198 -114 c 0
 223 -106 249 -103 275 -103 c 0
 383 -103 509 -207 509 -319 c 0
 509 -358 487 -398 459 -431 c 1
 487 -432 515 -433 543 -433 c 0
 605 -433 752 -433 802 -401 c 0
 841 -376 861 -321 861 -277 c 0
 861 -202 826 -92 735 -92 c 0
 725 -92 716 -96 706 -96 c 0
 685 -96 653 -48 653 -28 c 0
 653 -12 678 -11 689 -11 c 0
 799 -11 883 -143 911 -237 c 0
 920 -268 925 -301 925 -334 c 0
 925 -386 903 -450 857 -479 c 0
 803 -513 663 -514 597 -514 c 0
 525 -514 454 -509 382 -509 c 2
 366 -509 l 2
 364 -510 362 -510 360 -510 c 0
 337 -510 306 -462 306 -441 c 0
 306 -433 311 -430 317 -429 c 1
 316 -428 l 1
 366 -402 446 -321 446 -262 c 0
 446 -254 446 -246 443 -238 c 0
 441 -234 434 -227 430 -224 c 0
 399 -197 357 -184 316 -184 c 0
 232 -184 144 -233 104 -307 c 0
 94 -326 86 -346 86 -368 c 0
 86 -435 128 -424 153 -475 c 0
 156 -482 160 -490 160 -498 c 0
 160 -506 157 -510 149 -510 c 0
 141 -510 122 -495 116 -490 c 0
 64 -445 22 -383 22 -312 c 0
EndSplineSet
Ligature2: "'liga' +BCEEQgQwBD0ENAQwBEAEQgQ9BEsENQAA +BDsEOAQzBDAEQgRDBEAESwAA in Latin lookup 0 subtable" Tutg.P Tutg.Uml.Vir Tutg.P
EndChar

StartChar: b_A_b
Encoding: 1114166 -1 117
Width: 861
GlyphClass: 3
Flags: W
HStem: -247 80<423 754> 8 81<123.099 177.135> 147 81<90.5149 182.883> 415 80<150.719 252.366 394.966 514.224>
VStem: 17 64<228.036 327.913> 564 64<202.907 363.898> 754 64<-167 -25> 780 64<154.588 405.13>
LayerCount: 2
Fore
SplineSet
112 39 m 0xfe
 44 99 17 189 17 278 c 0
 17 371 59 495 171 495 c 0
 231 495 272 469 306 421 c 1
 325 480 370 498 428 498 c 0
 520 498 588 423 615 341 c 0
 625 312 628 281 628 250 c 0
 628 191 607 132 577 82 c 1
 616 82 674 83 709 101 c 0
 725 109 738 120 748 135 c 0
 780 183 780 280 780 337 c 0
 780 367 779 398 767 426 c 0
 760 443 741 468 741 486 c 0
 741 494 744 498 752 498 c 0
 761 498 775 486 780 480 c 0
 824 432 844 343 844 281 c 0xfd
 844 216 843 105 800 52 c 1
 810 37 818 21 818 11 c 2
 818 -235 l 2
 818 -243 815 -247 807 -247 c 2
 230 -247 l 2
 209 -247 177 -199 177 -179 c 0
 177 -163 208 -157 220 -152 c 2
 578 1 l 1
 541 1 495 2 490 4 c 0
 469 13 442 48 442 71 c 0
 442 74 442 78 444 80 c 0
 446 83 449 84 452 86 c 0
 520 131 564 228 564 307 c 0
 564 378 553 417 470 417 c 0
 377 417 357 353 357 273 c 0
 357 245 358 217 360 189 c 0
 361 174 363 160 363 145 c 0
 363 137 360 133 352 133 c 0
 333 133 306 173 301 190 c 0
 296 207 296 224 294 241 c 0
 289 294 291 349 274 400 c 1
 275 400 l 1
 255 411 235 415 213 415 c 0
 121 415 82 306 81 228 c 1
 147 228 206 210 242 152 c 0
 252 136 261 116 261 96 c 0
 261 51 220 8 175 8 c 0
 151 8 129 24 112 39 c 0xfe
754 -25 m 1xfe
 423 -167 l 1
 754 -167 l 1
 754 -25 l 1xfe
123 147 m 0
 111 147 101 142 90 139 c 1
 97 112 110 89 132 89 c 0
 157 89 187 114 195 137 c 1
 172 144 147 147 123 147 c 0
EndSplineSet
Ligature2: "'liga' +BCEEQgQwBD0ENAQwBEAEQgQ9BEsENQAA +BDsEOAQzBDAEQgRDBEAESwAA in Latin lookup 0 subtable" Tutg.B Tutg.Uml.Vir Tutg.B
EndChar

StartChar: m_A_m
Encoding: 1114167 -1 118
Width: 1094
GlyphClass: 3
Flags: W
HStem: -7 81<235.934 377.356 738.343 987.811> 3 73<738 854.241> 6 95<38.4746 103.568> 417 81<190.479 294.401 659.371 804.921>
VStem: 90 64<313.421 380.757> 338 64<286.962 391.6> 849 64<296.057 394.707> 1013 64<78.5 174.613>
LayerCount: 2
Fore
SplineSet
65 6 m 0x3f
 45 12 17 52 17 73 c 0
 17 77 19 82 22 85 c 0
 25 88 58 99 65 101 c 0x3f
 163 136 271 193 319 290 c 0
 330 312 338 341 338 365 c 0
 338 378 339 390 327 398 c 0
 309 411 279 417 257 417 c 0
 198 417 154 377 154 317 c 0
 154 311 155 307 155 301 c 0
 155 293 152 289 144 289 c 0
 125 289 98 329 93 346 c 0
 90 355 90 365 90 374 c 0
 90 449 139 498 214 498 c 0
 312 498 402 406 402 308 c 0
 402 202 318 123 233 74 c 1
 273 74 l 2x9f
 355 74 389 82 421 160 c 0
 443 216 449 275 478 329 c 0
 479 332 481 335 482 338 c 0
 485 351 500 377 505 386 c 0
 554 463 631 498 721 498 c 0
 816 498 913 414 913 316 c 0
 913 211 821 126 738 76 c 1x5f
 776 75 813 74 851 74 c 0
 879 74 963 76 984 91 c 0
 1000 102 1013 128 1013 148 c 0
 1013 194 985 211 955 238 c 0
 941 250 923 276 923 295 c 0
 923 303 926 307 934 307 c 0
 942 307 961 292 968 286 c 0
 1021 241 1077 164 1077 92 c 0
 1077 65 1063 28 1040 13 c 0
 1012 -5 928 -7 893 -7 c 0x9f
 801 -7 710 -1 618 3 c 0x5f
 609 3 581 4 574 6 c 0x3f
 553 13 526 51 526 73 c 0
 526 77 528 82 531 85 c 0
 535 88 569 101 577 104 c 0
 677 144 784 203 832 305 c 0
 841 325 849 350 849 372 c 0
 849 382 850 387 843 395 c 0
 831 408 780 417 762 417 c 0
 672 417 590 373 552 290 c 0
 549 284 548 276 543 269 c 0
 538 253 517 211 513 197 c 0
 495 137 487 75 444 27 c 0
 415 -7 356 -7 315 -7 c 0x9f
 245 -7 174 0 104 3 c 0x5f
 95 3 72 4 65 6 c 0x3f
EndSplineSet
Ligature2: "'liga' +BCEEQgQwBD0ENAQwBEAEQgQ9BEsENQAA +BDsEOAQzBDAEQgRDBEAESwAA in Latin lookup 0 subtable" Tutg.M Tutg.Uml.Vir Tutg.M
EndChar

StartChar: L_A_L
Encoding: 1114168 -1 119
Width: 1098
GlyphClass: 3
Flags: W
HStem: -2 71<469.969 705 756 1042.06> 111 72<847.609 1020.95> 112 72<296.609 469.951 765.892 977.891> 119 72<220.273 426.891> 228 72<76.3205 149.993 625.423 700.993> 248 79<293.613 367.625 843.808 918.625> 427 72<174.24 393.319 725.161 940.689>
VStem: 17 56<302.293 366.624> 161 57<280.5 374.739> 473 56<347.928 391.995> 568 56<301.293 365.624> 698 58<70.2216 101.917> 712 57<279.5 373.739> 1024 56<346.928 390.995>
LayerCount: 2
Fore
SplineSet
139 228 m 0x8bf4
 69 228 17 301 17 366 c 0
 17 392 29 416 46 435 c 0
 47 436 48 437 49 438 c 0
 50 440 52 442 55 443 c 0
 106 489 192 499 257 499 c 0
 347 499 458 473 509 392 c 0
 520 374 529 352 529 330 c 0
 529 294 505 277 472 267 c 1
 497 245 530 204 530 169 c 0
 530 121 486 112 447 112 c 0xabf4
 402 112 358 119 313 119 c 0
 278 119 215 117 205 74 c 1
 262 63 320 63 378 63 c 0
 487 63 596 68 705 69 c 1
 700 82 698 96 698 110 c 0x93f4
 698 184 770 190 827 190 c 0
 872 190 917 183 962 183 c 0
 984 183 1020 186 1025 214 c 1
 989 236 960 252 919 254 c 0
 911 253 903 253 896 252 c 0
 888 250 881 247 873 247 c 0
 854 247 827 291 827 308 c 0
 827 312 828 316 832 319 c 0
 835 321 839 322 846 323 c 0
 858 326 869 326 881 326 c 0
 938 329 1024 333 1024 379 c 2
 1024 381 l 1
 979 414 900 426 845 426 c 0
 811 426 764 422 723 410 c 1
 750 377 769 334 769 303 c 0xc3ec
 769 256 736 227 690 227 c 0
 620 227 568 300 568 365 c 0
 568 394 580 417 600 437 c 0
 601 439 604 441 606 443 c 0
 658 488 742 498 808 498 c 0
 899 498 1008 473 1060 391 c 0
 1071 373 1080 351 1080 329 c 0
 1080 293 1056 276 1023 266 c 1
 1048 244 1081 203 1081 168 c 0
 1081 120 1037 111 998 111 c 0
 953 111 909 118 864 118 c 0
 825 118 770 117 756 73 c 1
 756 72 l 1
 775 70 795 69 814 69 c 0
 860 69 906 70 952 70 c 0
 998 70 1037 66 1065 25 c 0
 1071 16 1079 3 1079 -9 c 0
 1079 -16 1076 -20 1069 -20 c 0
 1059 -20 1053 -9 1043 -6 c 0
 1023 -1 999 -2 979 -2 c 0
 936 -2 894 -3 851 -3 c 0
 836 -3 822 -3 807 -2 c 0
 789 -3 742 -3 734 -3 c 0
 635 -5 535 -9 436 -9 c 0
 383 -9 239 -10 196 16 c 0
 163 36 147 74 147 111 c 0xc3f4
 147 185 219 191 276 191 c 0x93f4
 321 191 366 184 411 184 c 0
 433 184 469 187 474 215 c 1
 438 237 409 253 368 255 c 0
 360 254 352 254 345 253 c 0
 337 251 330 248 322 248 c 0
 303 248 276 292 276 309 c 0
 276 313 277 317 281 320 c 0
 284 322 289 323 296 324 c 0
 307 327 318 327 330 327 c 0xa7f4
 387 330 473 334 473 380 c 2
 473 382 l 1
 428 415 349 427 294 427 c 0
 260 427 213 423 172 411 c 1
 199 378 218 335 218 304 c 0
 218 257 185 228 139 228 c 0x8bf4
78 340 m 0
 76 334 73 323 73 316 c 2
 73 305 l 1
 82 301 91 300 101 300 c 0
 133 300 161 320 161 354 c 0
 161 373 153 383 134 383 c 0
 113 383 103 371 95 367 c 0
 88 359 82 350 78 340 c 0
629 339 m 0
 627 333 624 322 624 315 c 2
 624 304 l 1
 633 300 643 299 652 299 c 0
 684 299 712 319 712 353 c 0x83ec
 712 372 704 382 685 382 c 0
 664 382 654 370 646 366 c 0
 639 358 633 349 629 339 c 0
EndSplineSet
Ligature2: "'liga' +BCEEQgQwBD0ENAQwBEAEQgQ9BEsENQAA +BDsEOAQzBDAEQgRDBEAESwAA in Latin lookup 0 subtable" Tutg.Ll Tutg.Uml.Vir Tutg.Ll
EndChar

StartChar: c_A_C
Encoding: 1114169 -1 120
Width: 1293
GlyphClass: 3
Flags: W
HStem: 4 81<317 662.228 1082.2 1149.64> 177 81<1063.56 1163.24> 416 81<207.074 335.992> 423 80<974.678 1106.23>
VStem: 79 62<303.496 353.15> 395 63<261.849 375.549> 689 64<132.481 305.471> 860 63<95.3348 370.184> 992 63<106.156 206> 1211 64<178.924 310.13>
LayerCount: 2
Fore
SplineSet
65 6 m 0xdfc0
 44 15 17 50 17 73 c 0
 17 76 18 82 21 84 c 0
 25 86 38 86 43 87 c 0
 173 101 395 191 395 339 c 0
 395 374 392 386 360 402 c 0
 337 413 311 416 286 416 c 0
 218 416 155 373 144 304 c 0
 143 298 144 289 141 284 c 0
 139 281 135 281 132 281 c 0
 111 281 79 329 79 349 c 0
 79 438 159 497 243 497 c 0xefc0
 360 497 458 400 458 283 c 0
 458 190 392 125 317 81 c 1
 359 81 l 2
 420 81 482 82 543 83 c 0
 571 84 601 80 629 86 c 0
 682 99 689 169 689 215 c 0
 689 266 678 356 646 396 c 0
 640 404 627 405 619 409 c 0
 601 419 576 453 576 474 c 0
 576 482 579 486 587 486 c 0
 602 486 631 467 642 457 c 0
 721 386 753 261 753 158 c 0
 753 152 753 147 752 140 c 1
 777 123 811 94 820 86 c 1
 858 91 860 144 860 173 c 0
 860 217 855 260 855 304 c 0
 855 420 883 503 1015 503 c 0
 1165 503 1275 338 1275 200 c 0
 1275 173 1271 145 1263 119 c 0
 1246 67 1202 4 1141 4 c 0
 1067 4 992 113 992 182 c 0
 992 230 1020 258 1068 258 c 0
 1112 258 1169 237 1208 215 c 1
 1210 229 1211 243 1211 256 c 0
 1211 355 1160 423 1057 423 c 0
 942 423 919 348 919 248 c 0
 919 204 923 160 923 116 c 0
 923 69 917 4 856 4 c 0
 844 4 769 67 745 90 c 1
 737 52 719 13 678 5 c 0
 649 -1 618 3 589 2 c 0
 526 1 463 0 400 0 c 0
 359 0 79 0 65 6 c 0xdfc0
1055 126 m 0
 1055 98 1073 85 1099 85 c 0
 1139 85 1172 124 1190 159 c 1
 1165 170 1139 177 1111 177 c 0
 1079 177 1055 159 1055 126 c 0
EndSplineSet
Ligature2: "'liga' +BCEEQgQwBD0ENAQwBEAEQgQ9BEsENQAA +BDsEOAQzBDAEQgRDBEAESwAA in Latin lookup 0 subtable" Tutg.C Tutg.Uml.Vir Tutg.Ch
EndChar

StartChar: Z_A_k_u
Encoding: 1114170 -1 121
Width: 1319
GlyphClass: 3
Flags: W
HStem: 0 81<96.2063 200.091 585.009 643.847 851.333 903.566 1148 1279.39> 198 81<103.067 208.088> 416 81<200.033 310.946 549.287 699.677> 424 81<894.618 1008.59>
VStem: 17 63<109.056 209.164> 245 64<120.648 184.651> 522 63<81.0535 175.637> 958 64<153.32 280.342> 1096 63<115.392 309.087>
LayerCount: 2
Fore
SplineSet
96 22 m 0xef80
 44 60 17 160 17 222 c 0
 17 253 20 284 29 314 c 0
 55 404 131 497 232 497 c 0xef80
 311 497 372 436 412 374 c 1
 443 466 534 502 624 502 c 0
 679 502 735 492 787 472 c 1
 828 491 875 505 921 505 c 0
 1091 505 1159 309 1159 167 c 0
 1159 138 1155 108 1148 80 c 1
 1165 80 1246 82 1254 79 c 0
 1275 71 1302 35 1302 12 c 0
 1302 4 1299 0 1291 0 c 2
 1100 0 l 2
 1079 0 1047 48 1047 68 c 0
 1047 77 1063 95 1068 103 c 0
 1087 135 1096 187 1096 224 c 0
 1096 269 1085 367 1051 398 c 0
 1029 418 992 424 963 424 c 0xdf80
 942 424 918 420 893 412 c 1
 959 362 1022 275 1022 189 c 0
 1022 173 1021 157 1018 142 c 0
 1010 99 974 23 933 4 c 0
 923 -1 913 -2 902 -2 c 0
 858 -2 802 69 782 104 c 1
 747 64 691 -1 633 -1 c 0
 572 -1 522 95 522 153 c 0
 522 251 612 354 701 420 c 1
 689 421 678 421 666 421 c 0
 570 421 480 376 467 274 c 0
 466 265 467 247 464 240 c 0
 462 237 458 237 455 237 c 0
 450 237 440 243 436 246 c 0
 407 270 403 299 390 332 c 0
 369 383 332 416 275 416 c 0
 198 416 131 347 102 279 c 1
 161 279 237 258 276 210 c 0
 295 186 309 144 309 114 c 0
 309 38 234 0 167 0 c 0
 142 0 117 7 96 22 c 0xef80
832 388 m 1
 709 327 585 201 585 91 c 0
 585 88 586 83 587 80 c 2
 591 80 l 2
 631 80 686 137 711 165 c 0
 721 176 731 191 742 200 c 0
 744 201 747 201 749 201 c 0
 763 201 783 177 790 167 c 0
 805 146 833 79 861 79 c 0
 905 79 942 157 952 194 c 0
 956 211 958 228 958 245 c 0
 958 319 893 361 832 388 c 1
152 198 m 0
 127 198 105 193 81 186 c 1
 80 179 80 172 80 165 c 0
 80 146 87 102 95 85 c 1
 105 83 115 81 125 81 c 0
 175 81 245 113 245 171 c 2
 245 176 l 1
 220 191 181 198 152 198 c 0
EndSplineSet
LCarets2: 3 0 0 0
Ligature2: "'liga' +BCEEQgQwBD0ENAQwBEAEQgQ9BEsENQAA +BDsEOAQzBDAEQgRDBEAESwAA in Latin lookup 0 subtable" Tutg.Ny Tutg.Uml.Vir Tutg.K Tutg.Uml.U
EndChar

StartChar: Z_A_k_U
Encoding: 1114171 -1 122
Width: 1287
GlyphClass: 3
Flags: W
HStem: -232 81<670.62 1252.18> -119 81<680.753 1083.5> -2 81<99.0989 196.212 585.445 641.141 853.728 907.172> 198 81<103.067 208.088> 414 81<910.301 1132.44> 416 81<200.033 310.946 549.287 697.671>
VStem: 17 63<108.834 209.164> 245 64<120.648 184.651> 522 63<80.6152 174.111> 958 64<153.32 278.051> 1182 64<49.3022 144.108 300.517 388.492>
LayerCount: 2
Fore
SplineSet
17 222 m 0xf7e0
 17 253 20 284 29 314 c 0
 55 404 131 497 232 497 c 0xf7e0
 311 497 372 436 412 374 c 1
 443 466 534 502 624 502 c 0
 684 502 744 490 800 467 c 1
 863 486 935 495 992 495 c 0
 1052 495 1135 487 1182 445 c 0
 1219 413 1245 354 1245 306 c 0
 1245 257 1227 222 1186 196 c 1
 1223 160 1246 109 1246 57 c 0
 1246 24 1232 -10 1212 -37 c 0
 1163 -103 1086 -120 1008 -120 c 2
 809 -119 l 2
 768 -119 696 -113 669 -151 c 1
 852 -149 1034 -145 1217 -145 c 0
 1238 -145 1270 -193 1270 -213 c 0
 1270 -227 1258 -227 1247 -227 c 0
 1059 -227 873 -232 685 -232 c 0
 641 -232 597 -157 597 -118 c 0
 597 -49 673 -38 726 -38 c 0
 792 -38 857 -39 923 -39 c 0
 962 -39 1002 -41 1041 -32 c 0
 1115 -15 1182 43 1182 124 c 0
 1182 128 1180 144 1178 147 c 0
 1177 149 1167 154 1165 155 c 0
 1125 177 1104 154 1071 204 c 0
 1065 213 1058 227 1058 238 c 0
 1058 241 1059 247 1062 249 c 0
 1066 251 1090 256 1096 258 c 0
 1145 274 1182 309 1182 363 c 0
 1182 372 1180 380 1177 389 c 1
 1146 409 1071 414 1033 414 c 0xfbe0
 996 414 951 410 908 401 c 1
 967 351 1022 269 1022 189 c 0
 1022 173 1021 157 1018 142 c 0
 1010 99 974 23 933 4 c 0
 922 -1 913 -2 902 -2 c 0
 858 -2 802 69 782 104 c 1
 747 64 691 -1 633 -1 c 0
 573 -1 522 94 522 151 c 0
 522 250 618 364 699 420 c 1
 688 421 677 421 666 421 c 0
 570 421 480 376 467 274 c 0
 466 265 467 247 464 240 c 0
 462 237 458 237 455 237 c 0
 449 237 440 243 436 246 c 0
 408 269 403 300 390 332 c 0
 369 383 332 416 275 416 c 0
 198 416 131 347 102 279 c 1
 161 279 237 258 276 210 c 0
 295 186 309 144 309 114 c 0
 309 38 234 0 167 0 c 0
 142 0 117 7 96 22 c 0
 44 60 17 160 17 222 c 0xf7e0
585 94 m 0
 585 89 586 85 587 80 c 1
 591 80 l 2
 630 80 686 137 711 165 c 0
 721 176 731 191 742 200 c 0
 744 201 747 201 749 201 c 0
 763 201 783 177 790 167 c 0
 805 146 833 79 861 79 c 0
 905 79 942 157 952 194 c 0
 956 211 958 228 958 245 c 0
 958 316 899 356 841 384 c 1
 817 376 795 367 776 356 c 0
 700 313 585 189 585 94 c 0
152 198 m 0
 127 198 105 193 81 186 c 1
 80 179 80 172 80 165 c 0
 80 146 87 101 95 85 c 1
 105 83 115 81 125 81 c 0
 175 81 245 113 245 171 c 2
 245 176 l 1
 220 191 181 198 152 198 c 0
EndSplineSet
Ligature2: "'liga' +BCEEQgQwBD0ENAQwBEAEQgQ9BEsENQAA +BDsEOAQzBDAEQgRDBEAESwAA in Latin lookup 0 subtable" Tutg.Ny Tutg.Uml.Vir Tutg.K Tutg.Uml.Uu
EndChar

StartChar: Z_A_g_u
Encoding: 1114172 -1 123
Width: 789
GlyphClass: 3
Flags: W
HStem: -505 80<140.793 253.249 722 898.172> -499 82<506.595 613.318> -89 81<163.264 268.68> -83 80<492.79 609.828> -2 21G<651.5 659> 113 81<121.073 196.499> 243 81<515.583 592.335> 257 78<113.135 205.515> 416 81<163.449 274.121 496.633 665.507>
VStem: 10 64<-348.826 -188.772> 211 64<208.172 254.92> 599 67<23.9568 106> 684 63<-345.79 -188.624> 702 64<305.994 392.113>
LayerCount: 2
Fore
SplineSet
19 321 m 0x0df4
 19 416 99 497 194 497 c 0
 258 497 316 456 352 406 c 1
 396 467 492 503 566 503 c 0
 644 503 706 460 744 393 c 0
 756 371 766 345 766 319 c 0
 766 249 718 189 666 148 c 1
 666 117 663 88 663 57 c 0
 663 41 666 26 666 10 c 0
 666 2 663 -2 655 -2 c 0
 648 -2 637 7 632 11 c 0
 603 38 599 69 599 106 c 1
 574 95 549 88 525 88 c 0
 464 88 412 158 412 215 c 0
 412 273 476 324 531 324 c 0x0ef4
 575 324 617 289 641 250 c 1
 677 290 702 337 702 375 c 0
 702 380 701 385 700 390 c 2
 700 391 l 1
 683 415 633 422 606 422 c 0
 545 422 434 381 404 321 c 0
 401 316 401 309 398 304 c 0
 396 301 393 301 389 301 c 0
 375 301 354 326 348 337 c 0
 343 345 341 353 336 361 c 0
 314 399 281 416 237 416 c 0
 182 416 129 381 102 333 c 1
 105 334 108 335 110 335 c 0
 119 337 127 338 136 338 c 0
 207 338 275 263 275 194 c 0
 275 148 240 113 194 113 c 0
 94 113 19 229 19 321 c 0x0df4
10 -232 m 0
 10 -114 75 -8 203 -8 c 0
 243 -8 263 -14 283 -50 c 0
 288 -59 293 -70 293 -80 c 0
 293 -88 290 -92 282 -92 c 0
 269 -92 257 -89 244 -89 c 0
 133 -89 74 -187 74 -289 c 0
 74 -361 90 -425 175 -425 c 0xacf8
 417 -425 262 -80 469 -12 c 0
 493 -4 521 -3 547 -3 c 0
 576 -3 604 -18 626 -36 c 0
 705 -100 747 -214 747 -314 c 0
 747 -354 738 -390 722 -419 c 1
 791 -420 866 -420 869 -422 c 0
 890 -431 917 -466 917 -489 c 0
 917 -497 914 -501 906 -501 c 2
 795 -502 l 2
 772 -502 539 -502 533 -499 c 0
 512 -490 482 -451 482 -427 c 0
 482 -419 485 -415 493 -415 c 0
 506 -415 520 -417 533 -417 c 0x5cf8
 628 -417 684 -349 684 -257 c 0
 684 -200 665 -83 589 -83 c 0
 561 -83 528 -86 502 -99 c 0
 333 -183 476 -505 217 -505 c 0x9cf8
 120 -505 48 -409 23 -324 c 0
 14 -294 10 -263 10 -232 c 0
573 243 m 0x0ef0
 534 243 487 208 477 170 c 1
 481 169 l 2
 517 160 563 180 603 213 c 1
 603 222 603 229 601 237 c 1
 592 242 583 243 573 243 c 0x0ef0
89 225 m 1
 94 200 129 194 150 194 c 0
 180 194 211 218 211 250 c 2
 211 252 l 1
 201 256 191 257 180 257 c 0x0df0
 144 257 100 226 89 225 c 1
EndSplineSet
LCarets2: 3 0 0 0
Ligature2: "'liga' +BCEEQgQwBD0ENAQwBEAEQgQ9BEsENQAA +BDsEOAQzBDAEQgRDBEAESwAA in Latin lookup 0 subtable" Tutg.Ny Tutg.Uml.Vir Tutg.G Tutg.Uml.U
EndChar

StartChar: Z_A_g_U
Encoding: 1114173 -1 124
Width: 786
GlyphClass: 3
Flags: W
HStem: -726 81<158.248 744.339> -606 81<174.219 586.666> -505 80<140.793 254.69> -89 81<163.264 268.554> -84 82<494.454 648.032> -2 21G<651.5 659> 113 81<121.073 196.499> 243 81<515.583 592.335> 257 78<113.135 205.515> 416 81<163.449 274.121 496.633 665.507>
VStem: 10 64<-348.826 -188.772> 211 64<208.172 254.92> 599 67<23.9568 106> 690 63<-485.218 -363.936> 703 63<-216.204 -115.392 307.198 392.113>
LayerCount: 2
Fore
SplineSet
10 -232 m 0xea7a
 10 -114 75 -8 203 -8 c 0
 242 -8 263 -14 283 -50 c 0
 288 -59 293 -70 293 -80 c 0
 293 -88 290 -92 282 -92 c 0
 269 -92 257 -89 244 -89 c 0xf27a
 133 -89 74 -187 74 -289 c 0
 74 -361 90 -425 175 -425 c 0
 417 -425 262 -81 469 -12 c 0
 491 -5 526 -2 550 -2 c 0
 632 -2 700 -41 742 -111 c 0
 756 -135 766 -163 766 -192 c 0xea7a
 766 -246 726 -281 681 -303 c 1
 720 -336 753 -388 753 -440 c 0
 753 -529 661 -586 583 -601 c 0
 555 -606 527 -607 499 -607 c 2
 310 -606 l 2
 266 -606 183 -598 158 -645 c 1
 342 -643 525 -639 709 -639 c 0
 730 -639 762 -687 762 -707 c 0
 762 -720 752 -720 742 -720 c 0
 554 -720 366 -726 177 -726 c 0
 132 -726 89 -649 89 -609 c 0
 89 -538 162 -525 218 -525 c 0
 283 -525 350 -526 415 -526 c 0
 502 -526 581 -527 649 -464 c 0
 670 -444 690 -414 690 -384 c 0xea7c
 690 -379 689 -371 687 -366 c 0
 681 -353 626 -334 611 -331 c 0
 601 -329 589 -328 580 -323 c 0
 562 -314 537 -279 537 -258 c 0
 537 -254 538 -249 541 -247 c 0
 543 -246 583 -239 590 -237 c 0
 636 -225 703 -190 703 -135 c 0
 703 -129 702 -120 698 -115 c 0
 697 -114 690 -109 689 -108 c 0
 663 -90 625 -83 594 -83 c 0
 592 -84 590 -84 588 -84 c 0
 583 -84 578 -84 573 -84 c 0
 567 -85 561 -86 554 -86 c 0
 303 -117 500 -505 217 -505 c 0
 120 -505 48 -409 23 -324 c 0
 14 -294 10 -263 10 -232 c 0xea7a
194 113 m 0
 94 113 19 229 19 321 c 0
 19 416 99 497 194 497 c 0
 258 497 316 456 352 406 c 1
 396 467 492 503 566 503 c 0
 644 503 706 460 744 393 c 0
 756 371 766 345 766 319 c 0
 766 249 718 189 666 148 c 1
 666 117 663 88 663 57 c 0
 663 41 666 26 666 10 c 0
 666 2 663 -2 655 -2 c 0
 648 -2 637 7 632 11 c 0
 603 38 599 69 599 106 c 1
 574 95 549 88 525 88 c 0
 464 88 412 158 412 215 c 0
 412 273 476 324 531 324 c 0xe77a
 575 324 617 289 641 250 c 1
 677 290 702 337 702 375 c 0
 702 380 701 385 700 390 c 2
 700 391 l 1
 683 415 633 422 606 422 c 0
 545 422 434 381 404 321 c 0
 401 316 401 309 398 304 c 0
 396 301 393 301 389 301 c 0
 375 301 354 326 348 337 c 0
 343 345 341 353 336 361 c 0
 314 399 281 416 237 416 c 0
 182 416 129 381 102 333 c 1
 105 334 108 335 110 335 c 0xe2fa
 119 337 127 338 136 338 c 0
 207 338 275 263 275 194 c 0
 275 148 240 113 194 113 c 0
573 243 m 0
 534 243 487 208 477 170 c 1
 481 169 l 2
 517 160 563 180 603 213 c 1
 603 222 603 229 601 237 c 1
 592 242 583 243 573 243 c 0
89 225 m 1
 94 200 129 194 150 194 c 0
 180 194 211 218 211 250 c 2
 211 252 l 1
 201 256 191 257 180 257 c 0xe2f8
 144 257 100 226 89 225 c 1
EndSplineSet
Ligature2: "'liga' +BCEEQgQwBD0ENAQwBEAEQgQ9BEsENQAA +BDsEOAQzBDAEQgRDBEAESwAA in Latin lookup 0 subtable" Tutg.Ny Tutg.Uml.Vir Tutg.G Tutg.Uml.Uu
EndChar

StartChar: z_A_C_u
Encoding: 1114174 -1 125
Width: 1444
GlyphClass: 3
Flags: W
HStem: -246 80<830.708 1355.39> -136 81<952.781 1329.03> -129 80<848.004 1063.22> -4 81<922.788 959.059 1207.64 1282.39> 8 81<101.61 186.401 551.636 611.5> 147 81<1217.44 1284.88> 415 80<446.133 567.023 691.143 814.113 1085.68 1214.26>
VStem: 198 64<58 165.298> 305 62<183.496 308.892> 473 63<103.853 235.45> 640 63<161.629 348.375> 858 63<78.0176 164.109> 860 68<108.891 366.149> 971 63<87.3348 362.184> 1142 63<80.9386 173.5> 1308 63<213 311.497> 1381 63<-1.53413 104.78>
LayerCount: 2
Fore
SplineSet
17 221 m 0x8fef80
 17 320 68 502 192 502 c 0
 259 502 310 465 340 412 c 1
 366 463 411 499 483 499 c 0
 535 499 574 491 614 457 c 1
 647 481 684 496 724 496 c 0
 741 496 757 494 773 489 c 0
 893 461 928 345 928 237 c 0x8fef80
 928 227 926 178 923 165 c 0
 922 146 921 127 921 108 c 0
 921 97 922 88 923 77 c 1
 924 77 l 2
 968 77 971 133 971 165 c 0
 971 209 966 252 966 296 c 0
 966 412 994 495 1126 495 c 0
 1272 495 1371 334 1371 201 c 0
 1371 193 1371 184 1370 175 c 1
 1412 137 1444 76 1444 21 c 0
 1444 -41 1418 -105 1354 -125 c 0
 1321 -135 1219 -136 1180 -136 c 0xd7f780
 1142 -136 1103 -132 1065 -131 c 0
 1027 -130 989 -129 951 -129 c 0
 918 -129 850 -137 829 -166 c 1
 885 -166 1323 -164 1330 -167 c 0
 1351 -177 1378 -210 1378 -234 c 0
 1378 -242 1375 -246 1367 -246 c 2
 841 -246 l 2
 797 -246 753 -174 753 -135 c 0
 753 -60 853 -49 909 -49 c 0xa7f780
 947 -49 986 -49 1024 -50 c 0
 1062 -51 1100 -55 1138 -55 c 0
 1172 -55 1206 -54 1240 -52 c 0
 1262 -51 1284 -51 1305 -45 c 0
 1357 -30 1381 28 1381 78 c 0
 1381 94 1378 115 1363 124 c 1
 1350 73 1313 -2 1255 -2 c 0
 1197 -2 1142 93 1142 145 c 0
 1142 202 1175 228 1230 228 c 0
 1252 228 1279 222 1304 213 c 1
 1307 228 1308 243 1308 257 c 0
 1308 350 1267 415 1168 415 c 0
 1053 415 1030 340 1030 240 c 0
 1030 196 1034 152 1034 108 c 0
 1034 61 1028 -4 967 -4 c 0
 919 -4 878 53 866 94 c 0
 859 117 858 141 858 165 c 0xd7f780
 858 189 859 213 860 236 c 0
 861 256 862 276 862 296 c 0
 862 326 862 356 852 384 c 0
 843 403 810 411 791 414 c 0
 790 414 788 414 786 414 c 0
 778 414 768 414 761 416 c 0
 730 415 699 401 671 380 c 1
 693 334 703 279 703 231 c 0
 703 170 688 82 648 34 c 0
 636 20 621 8 602 8 c 0
 554 8 507 74 490 114 c 0
 480 138 473 165 473 191 c 0
 473 275 512 354 568 416 c 1
 553 418 539 418 527 418 c 0
 422 418 384 330 373 238 c 0
 372 209 370 168 367 164 c 0
 365 161 362 161 358 161 c 0
 337 161 305 209 305 229 c 0
 305 256 307 285 311 314 c 0
 311 337 311 360 306 383 c 0
 304 391 300 398 298 406 c 1
 281 420 256 421 235 421 c 0
 169 421 125 350 104 296 c 1
 182 285 262 158 262 86 c 0
 262 30 221 6 169 6 c 0
 97 6 46 78 28 140 c 0
 20 166 17 194 17 221 c 0x8fef80
536 134 m 0
 536 123 540 101 546 92 c 0
 548 90 555 89 557 89 c 0
 567 89 575 95 582 101 c 0
 623 137 640 235 640 288 c 0
 640 307 638 329 634 349 c 1
 578 292 536 216 536 134 c 0
138 215 m 0
 95 215 90 157 82 138 c 1
 84 118 88 95 97 91 c 0
 105 87 116 86 125 86 c 0
 160 86 198 103 198 143 c 0
 198 175 174 215 138 215 c 0
1272 147 m 0
 1235 147 1205 128 1205 88 c 0
 1205 85 1205 83 1206 80 c 0
 1209 79 1211 79 1214 79 c 0
 1244 79 1274 123 1285 146 c 1
 1280 147 1275 147 1272 147 c 0
EndSplineSet
Ligature2: "'liga' +BCEEQgQwBD0ENAQwBEAEQgQ9BEsENQAA +BDsEOAQzBDAEQgRDBEAESwAA in Latin lookup 0 subtable" z Tutg.Uml.Vir Tutg.Ch Tutg.Uml.U
EndChar

